{
.appVersion = "1286";
classes = (
{
automatic = 1;

glyphs = (
{
color = 4;
glyphname = A;
layers = (
{
anchors = (
{
name = bottom;
position = "{246, 0}";
},
{
name = ogonek;
position = "{515, 0}";
},
{
name = top;
position = "{338, 641}";
}
);
layerId = "E1BF09ED-4302-4AD3-9939-8FDA35DE0FE8";
paths = (
{
closed = 1;
nodes = (
"83 0 LINE SMOOTH",
"96 0 OFFCURVE",
"99 4 OFFCURVE",
"102 18 CURVE",
"38 32 LINE",
"36 15 LINE",
"330 604 LINE",
"327 602 LINE",
"447 23 LINE",
"457 34 LINE",
"395 20 LINE SMOOTH",
"384 18 OFFCURVE",
"379 12 OFFCURVE",
"377 0 CURVE",
"515 0 LINE SMOOTH",
"528 0 OFFCURVE",
"531 4 OFFCURVE",
"533 18 CURVE",
"460 34 LINE",
"479 18 LINE",
"347 653 LINE",
"347 654 OFFCURVE",
"344 655 OFFCURVE",
"342 655 CURVE SMOOTH",
"336 655 OFFCURVE",
"334 653 OFFCURVE",
"330 645 CURVE SMOOTH",
"16 16 LINE",
"31 30 LINE",
"-13 20 LINE SMOOTH",
"-24 18 OFFCURVE",
"-29 12 OFFCURVE",
"-31 0 CURVE"
);
},
{
closed = 1;
nodes = (
"411 230 LINE",
"405 250 LINE",
"147 250 LINE",
"136 230 LINE"
);
}
);
width = 569;
},
{
anchors = (
{
name = bottom;
position = "{287, 0}";
},
{
name = ogonek;
position = "{615, 0}";
},
{
name = top;
position = "{388, 641}";
}
);
guideLines = (
{
angle = 110.927;
position = "{336, 56}";
}
);
layerId = "7B53E429-1BF0-49C5-9F57-63EEBF39C6CC";
paths = (
{
closed = 1;
nodes = (
"200 0 LINE",
"222 29 OFFCURVE",
"230 50 OFFCURVE",
"234 76 CURVE",
"121 106 LINE",
"124 57 LINE",
"363 539 LINE",
"314 539 LINE",
"410 56 LINE",
"417 96 LINE",
"344 69 LINE SMOOTH",
"334 65 OFFCURVE",
"325 39 OFFCURVE",
"318 0 CURVE",
"615 0 LINE",
"636 29 OFFCURVE",
"644 50 OFFCURVE",
"648 76 CURVE",
"557 100 LINE",
"584 57 LINE",
"467 648 LINE",
"448 653 OFFCURVE",
"429 656 OFFCURVE",
"406 656 CURVE SMOOTH",
"380 656 OFFCURVE",
"317 646 OFFCURVE",
"304 618 CURVE SMOOTH",
"23 52 LINE",
"76 103 LINE",
"-7 69 LINE SMOOTH",
"-17 65 OFFCURVE",
"-27 39 OFFCURVE",
"-33 0 CURVE"
);
},
{
closed = 1;
nodes = (
"406 185 LINE",
"403 275 LINE",
"188 275 LINE",
"158 185 LINE"
);
}
);
width = 673;
},
{
anchors = (
{
name = bottom;
position = "{259, 0}";
},
{
name = ogonek;
position = "{548, 0}";
},
{
name = top;
position = "{354, 641}";
}
);
layerId = "3EF2C2DE-A0EB-47A2-88E7-F2C629C295C3";
paths = (
{
closed = 1;
nodes = (
"121 0 LINE SMOOTH",
"137 10 OFFCURVE",
"142 19 OFFCURVE",
"146 38 CURVE",
"65 56 LINE",
"64 28 LINE",
"341 583 LINE",
"323 582 LINE",
"435 34 LINE",
"444 54 LINE",
"379 36 LINE SMOOTH",
"368 33 OFFCURVE",
"362 21 OFFCURVE",
"357 0 CURVE",
"548 0 LINE SMOOTH",
"563 10 OFFCURVE",
"567 19 OFFCURVE",
"570 38 CURVE",
"492 55 LINE",
"513 30 LINE",
"386 651 LINE",
"380 654 OFFCURVE",
"372 655 OFFCURVE",
"363 655 CURVE SMOOTH",
"350 655 OFFCURVE",
"329 651 OFFCURVE",
"321 636 CURVE SMOOTH",
"18 28 LINE",
"45 54 LINE",
"-11 36 LINE SMOOTH",
"-22 33 OFFCURVE",
"-28 21 OFFCURVE",
"-32 0 CURVE"
);
},
{
closed = 1;
nodes = (
"409 216 LINE",
"404 258 LINE",
"160 258 LINE",
"143 216 LINE"
);
}
);
width = 602;
}
);
leftKerningGroup = A;
leftMetricsKey = "=H*.05";
rightKerningGroup = A;
rightMetricsKey = "=H*.05";
unicode = 0041;
},
{
color = 5;
glyphname = AE;
layers = (
{
anchors = (
{
name = bottom;
position = "{510, 0}";
},
{
name = top;
position = "{611, 641}";
}
);
layerId = "E1BF09ED-4302-4AD3-9939-8FDA35DE0FE8";
paths = (
{
closed = 1;
nodes = (
"106 0 LINE",
"119 0 OFFCURVE",
"123 4 OFFCURVE",
"125 18 CURVE",
"43 32 LINE",
"38 18 LINE",
"277 302 LINE",
"265 296 LINE",
"474 296 LINE",
"470 302 LINE",
"426 23 LINE",
"440 34 LINE",
"378 20 LINE SMOOTH",
"368 18 OFFCURVE",
"362 12 OFFCURVE",
"360 0 CURVE",
"756 0 LINE",
"773 108 LINE",
"775 115 OFFCURVE",
"773 121 OFFCURVE",
"759 121 CURVE",
"717 2 LINE",
"730 11 LINE",
"449 34 LINE",
"457 23 LINE",
"501 305 LINE",
"491 298 LINE",
"681 298 LINE",
"671 305 LINE",
"676 245 LINE",
"688 245 OFFCURVE",
"691 246 OFFCURVE",
"697 261 CURVE",
"712 353 LINE",
"710 368 OFFCURVE",
"709 369 OFFCURVE",
"696 369 CURVE",
"673 311 LINE",
"684 316 LINE",
"494 316 LINE",
"502 310 LINE",
"552 625 LINE",
"540 612 LINE",
"799 630 LINE",
"788 639 LINE",
"797 558 LINE SMOOTH",
"799 546 OFFCURVE",
"805 542 OFFCURVE",
"813 542 CURVE",
"829 641 LINE",
"465 641 LINE",
"452 641 OFFCURVE",
"449 637 OFFCURVE",
"447 623 CURVE",
"536 608 LINE",
"531 630 LINE",
"13 17 LINE",
"32 33 LINE",
"-13 20 LINE SMOOTH",
"-24 17 OFFCURVE",
"-29 12 OFFCURVE",
"-31 0 CURVE"
);
},
{
closed = 1;
nodes = (
"517 588 LINE",
"519 609 LINE",
"471 308 LINE",
"477 313 LINE",
"274 313 LINE",
"278 305 LINE"
);
}
);
width = 870;
},
{
anchors = (
{
name = bottom;
position = "{491, 0}";
},
{
name = top;
position = "{593, 641}";
}
);
layerId = "7B53E429-1BF0-49C5-9F57-63EEBF39C6CC";
paths = (
{
closed = 1;
nodes = (
"192 0 LINE",
"213 29 OFFCURVE",
"221 50 OFFCURVE",
"225 76 CURVE",
"111 109 LINE",
"134 58 LINE",
"271 238 LINE",
"224 206 LINE",
"420 206 LINE",
"409 235 LINE",
"383 70 LINE",
"407 96 LINE",
"334 69 LINE SMOOTH",
"324 65 OFFCURVE",
"314 39 OFFCURVE",
"308 0 CURVE",
"812 0 LINE",
"841 183 LINE",
"819 200 OFFCURVE",
"798 205 OFFCURVE",
"774 205 CURVE",
"721 72 LINE",
"736 94 LINE",
"554 111 LINE",
"561 100 LINE",
"589 276 LINE",
"578 266 LINE",
"680 266 LINE",
"669 275 LINE",
"679 202 LINE",
"703 202 OFFCURVE",
"734 207 OFFCURVE",
"762 224 CURVE",
"791 404 LINE",
"768 421 OFFCURVE",
"738 426 OFFCURVE",
"714 426 CURVE",
"683 356 LINE",
"696 366 LINE",
"594 366 LINE",
"602 356 LINE",
"631 544 LINE",
"619 531 LINE",
"792 549 LINE",
"781 558 LINE",
"795 478 LINE SMOOTH",
"797 466 OFFCURVE",
"810 458 OFFCURVE",
"857 458 CURVE",
"886 641 LINE",
"374 641 LINE",
"354 614 OFFCURVE",
"346 591 OFFCURVE",
"342 565 CURVE",
"478 541 LINE",
"426 591 LINE",
"-4 32 LINE",
"58 103 LINE",
"-25 69 LINE SMOOTH",
"-35 65 OFFCURVE",
"-45 39 OFFCURVE",
"-51 0 CURVE"
);
},
{
closed = 1;
nodes = (
"470 509 LINE",
"453 509 LINE",
"416 278 LINE",
"435 306 LINE",
"293 306 LINE",
"292 278 LINE"
);
}
);
width = 911;
},
{
anchors = (
{
name = bottom;
position = "{493, 0}";
},
{
name = top;
position = "{595, 641}";
}
);
layerId = "3EF2C2DE-A0EB-47A2-88E7-F2C629C295C3";
paths = (
{
closed = 1;
nodes = (
"138 0 LINE",
"154 12 OFFCURVE",
"159 18 OFFCURVE",
"163 44 CURVE",
"74 67 LINE",
"75 53 LINE",
"284 296 LINE",
"250 280 LINE",
"437 280 LINE",
"425 294 LINE",
"385 38 LINE",
"407 66 LINE",
"328 38 LINE SMOOTH",
"316 34 OFFCURVE",
"309 17 OFFCURVE",
"307 0 CURVE",
"743 0 LINE",
"765 146 LINE",
"758 160 OFFCURVE",
"752 164 OFFCURVE",
"728 164 CURVE",
"677 34 LINE",
"691 43 LINE",
"458 66 LINE",
"465 55 LINE",
"502 292 LINE",
"491 282 LINE",
"668 282 LINE",
"657 292 LINE",
"667 223 LINE",
"687 223 OFFCURVE",
"693 226 OFFCURVE",
"705 239 CURVE",
"727 375 LINE",
"719 388 OFFCURVE",
"714 391 OFFCURVE",
"693 391 CURVE",
"663 323 LINE",
"675 332 LINE",
"501 332 LINE",
"508 322 LINE",
"551 593 LINE",
"538 580 LINE",
"754 598 LINE",
"742 607 LINE",
"758 509 LINE SMOOTH",
"760 497 OFFCURVE",
"776 493 OFFCURVE",
"792 493 CURVE",
"815 641 LINE",
"417 641 LINE",
"402 630 OFFCURVE",
"397 619 OFFCURVE",
"393 597 CURVE",
"483 572 LINE",
"477 596 LINE",
"9 51 LINE",
"27 65 LINE",
"-42 39 LINE SMOOTH",
"-55 34 OFFCURVE",
"-61 17 OFFCURVE",
"-64 0 CURVE"
);
},
{
closed = 1;
nodes = (
"471 515 LINE",
"461 521 LINE",
"429 316 LINE",
"444 330 LINE",
"295 330 LINE",
"299 314 LINE"
);
}
);
width = 851.38462;
}
);
leftKerningGroup = A;
rightKerningGroup = E;
rightMetricsKey = E;
unicode = 00C6;
},
{
color = 4;
glyphname = B;
layers = (
{
anchors = (
{
name = bottom;
position = "{242, 0}";
},
{
name = top;
position = "{344, 641}";
}
);
background = {
paths = (
{
closed = 1;
nodes = (
"258 0 LINE SMOOTH",
"375 0 OFFCURVE",
"466 75 OFFCURVE",
"484 186 CURVE SMOOTH",
"498 275 OFFCURVE",
"435 350 OFFCURVE",
"347 350 CURVE",
"335 346 LINE",
"417 346 OFFCURVE",
"495 417 OFFCURVE",
"509 503 CURVE SMOOTH",
"522 587 OFFCURVE",
"466 641 OFFCURVE",
"362 641 CURVE SMOOTH",
"155 641 LINE SMOOTH",
"143 641 OFFCURVE",
"139 637 OFFCURVE",
"137 623 CURVE",
"210 607 LINE",
"199 618 LINE",
"105 23 LINE",
"118 34 LINE",
"57 20 LINE SMOOTH",
"45 17 OFFCURVE",
"40 12 OFFCURVE",
"39 0 CURVE"
);
},
{
closed = 1;
nodes = (
"176 339 LINE",
"310 339 LINE SMOOTH",
"413 339 OFFCURVE",
"461 282 OFFCURVE",
"444 177 CURVE SMOOTH",
"428 73 OFFCURVE",
"361 18 OFFCURVE",
"254 18 CURVE SMOOTH",
"213 18 OFFCURVE",
"158 27 OFFCURVE",
"128 38 CURVE",
"136 28 LINE",
"229 614 LINE",
"218 605 LINE",
"260 617 OFFCURVE",
"303 623 OFFCURVE",
"338 623 CURVE SMOOTH",
"438 623 OFFCURVE",
"486 573 OFFCURVE",
"473 487 CURVE SMOOTH",
"460 406 OFFCURVE",
"396 357 OFFCURVE",
"302 357 CURVE SMOOTH",
"179 357 LINE"
);
}
);
};
layerId = "E1BF09ED-4302-4AD3-9939-8FDA35DE0FE8";
paths = (
{
closed = 1;
nodes = (
"258 0 LINE SMOOTH",
"383 0 OFFCURVE",
"486 93 OFFCURVE",
"486 211 CURVE SMOOTH",
"486 288 OFFCURVE",
"427 350 OFFCURVE",
"347 350 CURVE",
"335 346 LINE",
"426 346 OFFCURVE",
"511 435 OFFCURVE",
"511 526 CURVE SMOOTH",
"511 597 OFFCURVE",
"456 641 OFFCURVE",
"362 641 CURVE SMOOTH",
"155 641 LINE SMOOTH",
"143 641 OFFCURVE",
"139 637 OFFCURVE",
"137 623 CURVE",
"210 607 LINE",
"199 618 LINE",
"105 23 LINE",
"118 34 LINE",
"57 20 LINE SMOOTH",
"45 17 OFFCURVE",
"40 12 OFFCURVE",
"39 0 CURVE"
);
},
{
closed = 1;
nodes = (
"176 339 LINE",
"310 339 LINE SMOOTH",
"399 339 OFFCURVE",
"447 296 OFFCURVE",
"447 216 CURVE SMOOTH",
"447 97 OFFCURVE",
"380 18 OFFCURVE",
"254 18 CURVE SMOOTH",
"213 18 OFFCURVE",
"158 27 OFFCURVE",
"128 38 CURVE",
"136 28 LINE",
"229 614 LINE",
"218 605 LINE",
"260 617 OFFCURVE",
"303 623 OFFCURVE",
"338 623 CURVE SMOOTH",
"427 623 OFFCURVE",
"475 583 OFFCURVE",
"475 513 CURVE SMOOTH",
"475 419 OFFCURVE",
"406 357 OFFCURVE",
"302 357 CURVE SMOOTH",
"179 357 LINE"
);
}
);
width = 555;
},
{
anchors = (
{
name = bottom;
position = "{282, 0}";
},
{
name = top;
position = "{383, 641}";
}
);
background = {
paths = (
{
closed = 1;
nodes = (
"339 0 LINE SMOOTH",
"468 0 OFFCURVE",
"559 74 OFFCURVE",
"578 193 CURVE SMOOTH",
"592 282 OFFCURVE",
"536 351 OFFCURVE",
"435 367 CURVE",
"444 354 LINE",
"530 373 OFFCURVE",
"591 431 OFFCURVE",
"602 503 CURVE SMOOTH",
"616 590 OFFCURVE",
"553 641 OFFCURVE",
"434 641 CURVE SMOOTH",
"120 641 LINE",
"102 617 OFFCURVE",
"93 594 OFFCURVE",
"88 565 CURVE",
"169 541 LINE",
"152 566 LINE",
"74 70 LINE",
"97 96 LINE",
"24 69 LINE SMOOTH",
"14 65 OFFCURVE",
"5 39 OFFCURVE",
"-1 0 CURVE"
);
},
{
closed = 1;
nodes = (
"259 300 LINE",
"306 300 LINE SMOOTH",
"385 300 OFFCURVE",
"417 264 OFFCURVE",
"405 189 CURVE SMOOTH",
"395 128 OFFCURVE",
"360 95 OFFCURVE",
"310 95 CURVE SMOOTH",
"286 95 OFFCURVE",
"262 102 OFFCURVE",
"244 114 CURVE",
"252 100 LINE",
"322 545 LINE",
"311 533 LINE",
"331 542 OFFCURVE",
"354 546 OFFCURVE",
"378 546 CURVE SMOOTH",
"420 546 OFFCURVE",
"435 524 OFFCURVE",
"428 474 CURVE SMOOTH",
"419 421 OFFCURVE",
"388 396 OFFCURVE",
"334 396 CURVE SMOOTH",
"272 396 LINE"
);
}
);
};
layerId = "7B53E429-1BF0-49C5-9F57-63EEBF39C6CC";
paths = (
{
closed = 1;
nodes = (
"339 0 LINE SMOOTH",
"476 0 OFFCURVE",
"582 94 OFFCURVE",
"582 214 CURVE SMOOTH",
"582 298 OFFCURVE",
"530 351 OFFCURVE",
"435 367 CURVE",
"444 354 LINE",
"538 374 OFFCURVE",
"604 444 OFFCURVE",
"604 523 CURVE SMOOTH",
"604 599 OFFCURVE",
"543 641 OFFCURVE",
"434 641 CURVE SMOOTH",
"120 641 LINE",
"103 618 OFFCURVE",
"93 595 OFFCURVE",
"88 565 CURVE",
"169 541 LINE",
"152 566 LINE",
"74 70 LINE",
"97 96 LINE",
"24 69 LINE SMOOTH",
"14 65 OFFCURVE",
"6 43 OFFCURVE",
"-1 0 CURVE"
);
},
{
closed = 1;
nodes = (
"259 300 LINE",
"306 300 LINE SMOOTH",
"372 300 OFFCURVE",
"407 269 OFFCURVE",
"407 211 CURVE SMOOTH",
"407 143 OFFCURVE",
"367 95 OFFCURVE",
"309 95 CURVE SMOOTH",
"286 95 OFFCURVE",
"262 102 OFFCURVE",
"244 114 CURVE",
"252 100 LINE",
"322 545 LINE",
"311 533 LINE",
"329 541 OFFCURVE",
"353 546 OFFCURVE",
"376 546 CURVE SMOOTH",
"417 546 OFFCURVE",
"434 531 OFFCURVE",
"434 492 CURVE SMOOTH",
"434 432 OFFCURVE",
"397 396 OFFCURVE",
"334 396 CURVE SMOOTH",
"272 396 LINE"
);
}
);
width = 610;
},
{
anchors = (
{
name = bottom;
position = "{255, 0}";
},
{
name = top;
position = "{356, 641}";
}
);
layerId = "3EF2C2DE-A0EB-47A2-88E7-F2C629C295C3";
paths = (
{
closed = 1;
nodes = (
"284 0 LINE SMOOTH",
"413 0 OFFCURVE",
"517 93 OFFCURVE",
"517 212 CURVE SMOOTH",
"517 291 OFFCURVE",
"461 350 OFFCURVE",
"375 355 CURVE",
"371 349 LINE",
"462 355 OFFCURVE",
"541 438 OFFCURVE",
"541 525 CURVE SMOOTH",
"541 598 OFFCURVE",
"484 641 OFFCURVE",
"385 641 CURVE SMOOTH",
"143 641 LINE SMOOTH",
"130 633 OFFCURVE",
"124 624 OFFCURVE",
"121 603 CURVE",
"197 586 LINE",
"184 601 LINE",
"95 38 LINE",
"111 54 LINE",
"46 36 LINE SMOOTH",
"35 32 OFFCURVE",
"29 22 OFFCURVE",
"26 0 CURVE"
);
},
{
closed = 1;
nodes = (
"203 327 LINE",
"309 327 LINE SMOOTH",
"390 327 OFFCURVE",
"434 287 OFFCURVE",
"434 214 CURVE SMOOTH",
"434 112 OFFCURVE",
"376 43 OFFCURVE",
"272 43 CURVE SMOOTH",
"237 43 OFFCURVE",
"192 51 OFFCURVE",
"165 63 CURVE",
"173 51 LINE",
"259 592 LINE",
"248 582 LINE",
"282 592 OFFCURVE",
"319 598 OFFCURVE",
"350 598 CURVE SMOOTH",
"424 598 OFFCURVE",
"462 566 OFFCURVE",
"462 506 CURVE SMOOTH",
"462 423 OFFCURVE",
"403 369 OFFCURVE",
"313 369 CURVE SMOOTH",
"209 369 LINE"
);
}
);
width = 572.34615;
}
);
leftKerningGroup = H;
leftMetricsKey = H;
rightKerningGroup = B;
rightMetricsKey = "=O";
unicode = 0042;
},
{
color = 4;
glyphname = C;
layers = (
{
anchors = (
{
name = bottom;
position = "{297, 0}";
},
{
name = top;
position = "{399, 641}";
}
);
background = {
paths = (
{
closed = 1;
nodes = (
"360 -12 OFFCURVE",
"440 16 OFFCURVE",
"501 62 CURVE",
"515 173 LINE",
"516 184 OFFCURVE",
"508 189 OFFCURVE",
"491 189 CURVE",
"463 65 LINE",
"478 93 LINE",
"445 46 OFFCURVE",
"374 14 OFFCURVE",
"305 14 CURVE SMOOTH",
"166 14 OFFCURVE",
"90 142 OFFCURVE",
"119 325 CURVE SMOOTH",
"148 507 OFFCURVE",
"262 626 OFFCURVE",
"408 626 CURVE SMOOTH",
"468 626 OFFCURVE",
"527 609 OFFCURVE",
"551 584 CURVE",
"546 599 LINE",
"536 503 LINE SMOOTH",
"535 494 OFFCURVE",
"543 487 OFFCURVE",
"553 487 CURVE",
"589 607 LINE",
"544 639 OFFCURVE",
"491 655 OFFCURVE",
"434 655 CURVE SMOOTH",
"264 655 OFFCURVE",
"110 500 OFFCURVE",
"78 298 CURVE SMOOTH",
"50 118 OFFCURVE",
"137 -12 OFFCURVE",
"288 -12 CURVE SMOOTH"
);
}
);
};
layerId = "E1BF09ED-4302-4AD3-9939-8FDA35DE0FE8";
paths = (
{
closed = 1;
nodes = (
"360 -12 OFFCURVE",
"440 16 OFFCURVE",
"501 62 CURVE",
"515 173 LINE",
"516 184 OFFCURVE",
"508 189 OFFCURVE",
"491 189 CURVE",
"463 65 LINE",
"478 93 LINE",
"445 46 OFFCURVE",
"374 14 OFFCURVE",
"305 14 CURVE SMOOTH",
"186 14 OFFCURVE",
"113 106 OFFCURVE",
"113 256 CURVE SMOOTH",
"113 476 OFFCURVE",
"233 626 OFFCURVE",
"411 626 CURVE SMOOTH",
"469 626 OFFCURVE",
"528 608 OFFCURVE",
"551 584 CURVE",
"546 599 LINE",
"536 503 LINE SMOOTH",
"535 495 OFFCURVE",
"543 487 OFFCURVE",
"553 487 CURVE",
"589 607 LINE",
"545 639 OFFCURVE",
"492 655 OFFCURVE",
"434 655 CURVE SMOOTH",
"234 655 OFFCURVE",
"73 467 OFFCURVE",
"73 236 CURVE SMOOTH",
"73 85 OFFCURVE",
"157 -12 OFFCURVE",
"289 -12 CURVE SMOOTH"
);
}
);
width = 607;
},
{
anchors = (
{
name = bottom;
position = "{318, 0}";
},
{
name = top;
position = "{419, 641}";
}
);
background = {
paths = (
{
closed = 1;
nodes = (
"401 -12 OFFCURVE",
"500 22 OFFCURVE",
"551 74 CURVE",
"568 244 LINE",
"560 256 OFFCURVE",
"546 259 OFFCURVE",
"496 259 CURVE",
"453 94 LINE",
"493 157 LINE",
"456 113 OFFCURVE",
"399 87 OFFCURVE",
"342 87 CURVE SMOOTH",
"245 87 OFFCURVE",
"200 180 OFFCURVE",
"224 332 CURVE SMOOTH",
"247 476 OFFCURVE",
"316 556 OFFCURVE",
"415 556 CURVE SMOOTH",
"470 556 OFFCURVE",
"519 536 OFFCURVE",
"549 500 CURVE",
"526 545 LINE",
"523 444 LINE SMOOTH",
"523 431 OFFCURVE",
"547 423 OFFCURVE",
"588 423 CURVE",
"635 605 LINE",
"594 637 OFFCURVE",
"528 655 OFFCURVE",
"454 655 CURVE SMOOTH",
"246 655 OFFCURVE",
"69 502 OFFCURVE",
"36 293 CURVE SMOOTH",
"7 108 OFFCURVE",
"111 -12 OFFCURVE",
"302 -12 CURVE SMOOTH"
);
}
);
};
layerId = "7B53E429-1BF0-49C5-9F57-63EEBF39C6CC";
paths = (
{
closed = 1;
nodes = (
"401 -12 OFFCURVE",
"500 22 OFFCURVE",
"551 74 CURVE",
"568 244 LINE",
"560 256 OFFCURVE",
"546 259 OFFCURVE",
"496 259 CURVE",
"453 94 LINE",
"493 157 LINE",
"457 114 OFFCURVE",
"400 87 OFFCURVE",
"344 87 CURVE SMOOTH",
"261 87 OFFCURVE",
"218 147 OFFCURVE",
"218 264 CURVE SMOOTH",
"218 434 OFFCURVE",
"302 556 OFFCURVE",
"419 556 CURVE SMOOTH",
"471 556 OFFCURVE",
"520 535 OFFCURVE",
"549 500 CURVE",
"526 545 LINE",
"523 444 LINE SMOOTH",
"523 431 OFFCURVE",
"547 423 OFFCURVE",
"588 423 CURVE",
"635 605 LINE",
"595 637 OFFCURVE",
"529 655 OFFCURVE",
"457 655 CURVE SMOOTH",
"227 655 OFFCURVE",
"31 464 OFFCURVE",
"31 240 CURVE SMOOTH",
"31 82 OFFCURVE",
"131 -12 OFFCURVE",
"300 -12 CURVE SMOOTH"
);
}
);
width = 648;
},
{
anchors = (
{
name = bottom;
position = "{305, 0}";
},
{
name = top;
position = "{406, 641}";
}
);
layerId = "3EF2C2DE-A0EB-47A2-88E7-F2C629C295C3";
paths = (
{
closed = 1;
nodes = (
"374 -12 OFFCURVE",
"460 18 OFFCURVE",
"518 66 CURVE",
"533 196 LINE",
"531 207 OFFCURVE",
"521 212 OFFCURVE",
"493 212 CURVE",
"460 75 LINE",
"483 114 LINE",
"449 68 OFFCURVE",
"383 38 OFFCURVE",
"318 38 CURVE SMOOTH",
"211 38 OFFCURVE",
"148 119 OFFCURVE",
"148 259 CURVE SMOOTH",
"148 463 OFFCURVE",
"256 603 OFFCURVE",
"414 603 CURVE SMOOTH",
"470 603 OFFCURVE",
"526 584 OFFCURVE",
"551 557 CURVE",
"540 582 LINE",
"532 483 LINE SMOOTH",
"532 474 OFFCURVE",
"545 466 OFFCURVE",
"565 466 CURVE",
"604 606 LINE",
"562 638 OFFCURVE",
"504 655 OFFCURVE",
"442 655 CURVE SMOOTH",
"232 655 OFFCURVE",
"60 466 OFFCURVE",
"60 237 CURVE SMOOTH",
"60 84 OFFCURVE",
"149 -12 OFFCURVE",
"293 -12 CURVE SMOOTH"
);
}
);
width = 621.26923;
}
);
leftKerningGroup = O;
leftMetricsKey = O;
rightKerningGroup = C;
unicode = 0043;
},
{
color = 4;
glyphname = D;
layers = (
{
anchors = (
{
name = bottom;
position = "{276, 0}";
},
{
name = center;
position = "{182, 321}";
},
{
name = top;
position = "{396, 641}";
}
);
background = {
paths = (
{
closed = 1;
nodes = (
"269 0 LINE SMOOTH",
"452 0 OFFCURVE",
"587 183 OFFCURVE",
"613 345 CURVE SMOOTH",
"637 499 OFFCURVE",
"569 641 OFFCURVE",
"392 641 CURVE SMOOTH",
"155 641 LINE SMOOTH",
"143 641 OFFCURVE",
"139 637 OFFCURVE",
"137 623 CURVE",
"207 607 LINE",
"199 619 LINE",
"105 23 LINE",
"118 34 LINE",
"57 20 LINE SMOOTH",
"46 18 OFFCURVE",
"40 12 OFFCURVE",
"39 0 CURVE"
);
},
{
closed = 1;
nodes = (
"223 20 OFFCURVE",
"166 25 OFFCURVE",
"128 36 CURVE",
"135 22 LINE",
"230 619 LINE",
"218 607 LINE",
"254 615 OFFCURVE",
"303 623 OFFCURVE",
"367 623 CURVE SMOOTH",
"532 623 OFFCURVE",
"598 479 OFFCURVE",
"572 314 CURVE SMOOTH",
"549 167 OFFCURVE",
"436 20 OFFCURVE",
"277 20 CURVE SMOOTH"
);
}
);
};
guideLines = (
{
angle = 27.1213;
position = "{598, 393}";
}
);
layerId = "E1BF09ED-4302-4AD3-9939-8FDA35DE0FE8";
paths = (
{
closed = 1;
nodes = (
"269 0 LINE SMOOTH",
"448 0 OFFCURVE",
"618 196 OFFCURVE",
"618 403 CURVE SMOOTH",
"618 549 OFFCURVE",
"531 641 OFFCURVE",
"392 641 CURVE SMOOTH",
"155 641 LINE SMOOTH",
"143 641 OFFCURVE",
"139 637 OFFCURVE",
"137 623 CURVE",
"207 607 LINE",
"199 619 LINE",
"105 23 LINE",
"118 34 LINE",
"57 20 LINE SMOOTH",
"45 17 OFFCURVE",
"40 11 OFFCURVE",
"39 0 CURVE"
);
},
{
closed = 1;
nodes = (
"219 20 OFFCURVE",
"154 28 OFFCURVE",
"128 36 CURVE",
"135 22 LINE",
"230 619 LINE",
"218 607 LINE",
"257 616 OFFCURVE",
"317 623 OFFCURVE",
"355 623 CURVE SMOOTH",
"497 623 OFFCURVE",
"577 536 OFFCURVE",
"577 382 CURVE SMOOTH",
"577 176 OFFCURVE",
"441 20 OFFCURVE",
"262 20 CURVE SMOOTH"
);
}
);
width = 659;
},
{
anchors = (
{
name = bottom;
position = "{307, 0}";
},
{
name = center;
position = "{217, 321}";
},
{
name = top;
position = "{418, 641}";
}
);
guideLines = (
{
angle = 27.1213;
position = "{678, 425}";
}
);
layerId = "7B53E429-1BF0-49C5-9F57-63EEBF39C6CC";
paths = (
{
closed = 1;
nodes = (
"329 0 LINE SMOOTH",
"511 0 OFFCURVE",
"678 153 OFFCURVE",
"678 405 CURVE SMOOTH",
"678 552 OFFCURVE",
"590 641 OFFCURVE",
"444 641 CURVE SMOOTH",
"117 641 LINE",
"101 616 OFFCURVE",
"92 593 OFFCURVE",
"88 565 CURVE",
"169 541 LINE",
"152 566 LINE",
"74 70 LINE",
"97 96 LINE",
"24 69 LINE SMOOTH",
"14 65 OFFCURVE",
"5 40 OFFCURVE",
"-1 0 CURVE"
);
},
{
closed = 1;
nodes = (
"289 96 OFFCURVE",
"259 104 OFFCURVE",
"245 116 CURVE",
"252 102 LINE",
"322 544 LINE",
"298 522 LINE",
"320 535 OFFCURVE",
"360 545 OFFCURVE",
"390 545 CURVE SMOOTH",
"457 545 OFFCURVE",
"493 491 OFFCURVE",
"493 368 CURVE SMOOTH",
"493 199 OFFCURVE",
"415 96 OFFCURVE",
"317 96 CURVE SMOOTH"
);
}
);
width = 680;
},
{
anchors = (
{
name = bottom;
position = "{286, 0}";
},
{
name = center;
position = "{194, 321}";
},
{
name = top;
position = "{403, 641}";
}
);
layerId = "3EF2C2DE-A0EB-47A2-88E7-F2C629C295C3";
paths = (
{
closed = 1;
nodes = (
"289 0 LINE SMOOTH",
"468 0 OFFCURVE",
"638 182 OFFCURVE",
"638 404 CURVE SMOOTH",
"638 550 OFFCURVE",
"551 641 OFFCURVE",
"409 641 CURVE SMOOTH",
"143 641 LINE SMOOTH",
"130 633 OFFCURVE",
"124 623 OFFCURVE",
"121 603 CURVE",
"195 586 LINE",
"184 602 LINE",
"95 38 LINE",
"111 54 LINE",
"46 36 LINE SMOOTH",
"35 32 OFFCURVE",
"28 21 OFFCURVE",
"26 0 CURVE"
);
},
{
closed = 1;
nodes = (
"242 45 OFFCURVE",
"188 53 OFFCURVE",
"166 62 CURVE",
"173 48 LINE",
"260 595 LINE",
"244 579 LINE",
"277 590 OFFCURVE",
"331 598 OFFCURVE",
"367 598 CURVE SMOOTH",
"484 598 OFFCURVE",
"550 522 OFFCURVE",
"550 378 CURVE SMOOTH",
"550 184 OFFCURVE",
"432 45 OFFCURVE",
"280 45 CURVE SMOOTH"
);
}
);
width = 665.73077;
}
);
leftKerningGroup = H;
leftMetricsKey = H;
rightKerningGroup = O;
rightMetricsKey = O;
unicode = 0044;
},
{
color = 4;
glyphname = E;
layers = (
{
anchors = (
{
name = "#entry";
position = "{39, 0}";
},
{
name = bottom;
position = "{252, 0}";
},
{
name = ogonek;
position = "{444, 0}";
},
{
name = top;
position = "{354, 641}";
},
{
name = topleft;
position = "{156, 641}";
}
);
layerId = "E1BF09ED-4302-4AD3-9939-8FDA35DE0FE8";
paths = (
{
closed = 1;
nodes = (
"444 0 LINE",
"461 108 LINE SMOOTH",
"462 115 OFFCURVE",
"460 121 OFFCURVE",
"446 121 CURVE",
"405 7 LINE",
"419 16 LINE",
"128 34 LINE",
"135 23 LINE",
"183 323 LINE",
"172 314 LINE",
"405 314 LINE",
"395 323 LINE",
"394 253 LINE",
"402 253 OFFCURVE",
"409 254 OFFCURVE",
"414 264 CURVE",
"434 386 LINE",
"431 396 OFFCURVE",
"426 397 OFFCURVE",
"417 397 CURVE",
"397 330 LINE",
"408 336 LINE",
"175 336 LINE",
"184 329 LINE",
"231 625 LINE",
"218 612 LINE",
"486 625 LINE",
"475 634 LINE",
"485 558 LINE SMOOTH",
"487 546 OFFCURVE",
"493 542 OFFCURVE",
"501 542 CURVE",
"517 641 LINE",
"156 641 LINE",
"143 641 OFFCURVE",
"139 637 OFFCURVE",
"137 623 CURVE",
"207 607 LINE",
"199 619 LINE",
"105 23 LINE",
"118 34 LINE",
"57 20 LINE SMOOTH",
"46 18 OFFCURVE",
"40 12 OFFCURVE",
"39 0 CURVE"
);
}
);
width = 558;
},
{
anchors = (
{
name = "#entry";
position = "{-1, 0}";
},
{
name = bottom;
position = "{256, 0}";
},
{
name = ogonek;
position = "{503, 0}";
},
{
name = top;
position = "{358, 641}";
},
{
name = topleft;
position = "{121, 641}";
}
);
layerId = "7B53E429-1BF0-49C5-9F57-63EEBF39C6CC";
paths = (
{
closed = 1;
nodes = (
"503 0 LINE",
"532 183 LINE",
"509 200 OFFCURVE",
"489 205 OFFCURVE",
"464 205 CURVE",
"412 72 LINE",
"426 94 LINE",
"244 111 LINE",
"252 100 LINE",
"282 291 LINE",
"271 281 LINE",
"383 281 LINE",
"371 290 LINE",
"380 212 LINE",
"401 212 OFFCURVE",
"429 217 OFFCURVE",
"454 234 CURVE",
"483 414 LINE",
"463 431 OFFCURVE",
"437 436 OFFCURVE",
"415 436 CURVE",
"383 361 LINE",
"397 371 LINE",
"285 371 LINE",
"293 361 LINE",
"322 544 LINE",
"310 531 LINE",
"483 549 LINE",
"471 558 LINE",
"485 478 LINE SMOOTH",
"487 466 OFFCURVE",
"501 458 OFFCURVE",
"547 458 CURVE",
"576 641 LINE",
"121 641 LINE",
"100 614 OFFCURVE",
"92 591 OFFCURVE",
"88 565 CURVE",
"169 541 LINE",
"152 566 LINE",
"74 70 LINE",
"97 96 LINE",
"24 69 LINE SMOOTH",
"14 65 OFFCURVE",
"5 39 OFFCURVE",
"-1 0 CURVE"
);
}
);
width = 602;
},
{
anchors = (
{
name = "#entry";
position = "{26, 0}";
},
{
name = bottom;
position = "{253, 0}";
},
{
name = ogonek;
position = "{464, 0}";
},
{
name = top;
position = "{355, 641}";
},
{
name = topleft;
position = "{144, 641}";
}
);
layerId = "3EF2C2DE-A0EB-47A2-88E7-F2C629C295C3";
paths = (
{
closed = 1;
nodes = (
"464 0 LINE",
"484 132 LINE SMOOTH",
"477 143 OFFCURVE",
"470 148 OFFCURVE",
"452 148 CURVE",
"407 28 LINE",
"421 41 LINE",
"165 59 LINE",
"173 48 LINE",
"215 312 LINE",
"204 303 LINE",
"398 303 LINE",
"387 312 LINE",
"390 240 LINE",
"402 240 OFFCURVE",
"416 242 OFFCURVE",
"427 254 CURVE",
"450 395 LINE",
"442 408 OFFCURVE",
"430 409 OFFCURVE",
"416 409 CURVE",
"393 340 LINE",
"404 348 LINE",
"211 348 LINE",
"219 340 LINE",
"260 599 LINE",
"248 586 LINE",
"485 600 LINE",
"474 609 LINE",
"485 532 LINE SMOOTH",
"487 520 OFFCURVE",
"496 515 OFFCURVE",
"516 515 CURVE",
"537 641 LINE",
"144 641 LINE",
"129 632 OFFCURVE",
"124 622 OFFCURVE",
"121 603 CURVE",
"195 586 LINE",
"184 602 LINE",
"95 38 LINE",
"111 54 LINE",
"46 36 LINE SMOOTH",
"35 33 OFFCURVE",
"28 21 OFFCURVE",
"26 0 CURVE"
);
}
);
width = 572.38462;
}
);
leftKerningGroup = H;
leftMetricsKey = H;
rightKerningGroup = E;
unicode = 0045;
},
{
color = 4;
glyphname = F;
layers = (
{
anchors = (
{
name = bottom;
position = "{214, 0}";
},
{
name = top;
position = "{316, 641}";
}
);
layerId = "E1BF09ED-4302-4AD3-9939-8FDA35DE0FE8";
paths = (
{
closed = 1;
nodes = (
"190 0 LINE SMOOTH",
"203 0 OFFCURVE",
"207 4 OFFCURVE",
"209 18 CURVE",
"127 34 LINE",
"135 22 LINE",
"181 313 LINE",
"170 304 LINE",
"398 304 LINE",
"389 313 LINE",
"388 243 LINE",
"396 243 OFFCURVE",
"403 244 OFFCURVE",
"408 254 CURVE",
"427 376 LINE",
"425 386 OFFCURVE",
"420 387 OFFCURVE",
"410 387 CURVE",
"391 320 LINE",
"402 326 LINE",
"174 326 LINE",
"182 319 LINE",
"230 625 LINE",
"218 612 LINE",
"486 625 LINE",
"475 634 LINE",
"485 558 LINE SMOOTH",
"487 546 OFFCURVE",
"493 542 OFFCURVE",
"501 542 CURVE",
"517 641 LINE",
"156 641 LINE SMOOTH",
"143 641 OFFCURVE",
"139 637 OFFCURVE",
"137 623 CURVE",
"207 607 LINE",
"199 619 LINE",
"105 23 LINE",
"118 34 LINE",
"57 20 LINE SMOOTH",
"46 18 OFFCURVE",
"40 12 OFFCURVE",
"39 0 CURVE"
);
}
);
width = 502;
},
{
anchors = (
{
name = bottom;
position = "{231, 0}";
},
{
name = top;
position = "{333, 641}";
}
);
layerId = "7B53E429-1BF0-49C5-9F57-63EEBF39C6CC";
paths = (
{
closed = 1;
nodes = (
"294 0 LINE",
"314 29 OFFCURVE",
"321 50 OFFCURVE",
"325 76 CURVE",
"225 100 LINE",
"248 75 LINE",
"280 281 LINE",
"269 271 LINE",
"390 271 LINE",
"379 280 LINE",
"388 202 LINE",
"409 202 OFFCURVE",
"437 207 OFFCURVE",
"462 224 CURVE",
"490 404 LINE",
"471 421 OFFCURVE",
"445 426 OFFCURVE",
"423 426 CURVE",
"391 351 LINE",
"405 361 LINE",
"284 361 LINE",
"291 351 LINE",
"322 542 LINE",
"309 529 LINE",
"482 547 LINE",
"471 556 LINE",
"485 478 LINE SMOOTH",
"487 466 OFFCURVE",
"501 458 OFFCURVE",
"547 458 CURVE",
"576 641 LINE",
"121 641 LINE",
"100 614 OFFCURVE",
"92 591 OFFCURVE",
"88 565 CURVE",
"169 541 LINE",
"152 566 LINE",
"74 70 LINE",
"97 96 LINE",
"24 69 LINE SMOOTH",
"14 65 OFFCURVE",
"5 39 OFFCURVE",
"-1 0 CURVE"
);
}
);
width = 534;
},
{
anchors = (
{
name = bottom;
position = "{219, 0}";
},
{
name = top;
position = "{321, 641}";
}
);
layerId = "3EF2C2DE-A0EB-47A2-88E7-F2C629C295C3";
paths = (
{
closed = 1;
nodes = (
"224 0 LINE SMOOTH",
"239 10 OFFCURVE",
"244 19 OFFCURVE",
"246 38 CURVE",
"159 55 LINE",
"171 39 LINE",
"213 302 LINE",
"202 293 LINE",
"395 293 LINE",
"386 302 LINE",
"388 230 LINE",
"400 230 OFFCURVE",
"414 232 OFFCURVE",
"425 244 CURVE",
"447 385 LINE",
"440 398 OFFCURVE",
"428 399 OFFCURVE",
"414 399 CURVE",
"391 330 LINE",
"403 338 LINE",
"210 338 LINE",
"218 330 LINE",
"260 598 LINE",
"247 585 LINE",
"485 600 LINE",
"474 609 LINE",
"485 532 LINE SMOOTH",
"487 520 OFFCURVE",
"496 515 OFFCURVE",
"516 515 CURVE",
"537 641 LINE",
"144 641 LINE SMOOTH",
"129 632 OFFCURVE",
"124 622 OFFCURVE",
"121 603 CURVE",
"195 586 LINE",
"184 602 LINE",
"95 38 LINE",
"111 54 LINE",
"46 36 LINE SMOOTH",
"35 33 OFFCURVE",
"28 21 OFFCURVE",
"26 0 CURVE"
);
}
);
width = 514;
}
);
leftKerningGroup = H;
leftMetricsKey = H;
rightKerningGroup = F;
rightMetricsKey = "=H*.7";
unicode = 0046;
},
{
color = 4;
glyphname = G;
layers = (
{
anchors = (
{
name = bottom;
position = "{299, 0}";
},
{
name = top;
position = "{401, 641}";
}
);
layerId = "E1BF09ED-4302-4AD3-9939-8FDA35DE0FE8";
paths = (
{
closed = 1;
nodes = (
"114 475 OFFCURVE",
"238 626 OFFCURVE",
"410 626 CURVE SMOOTH",
"469 626 OFFCURVE",
"529 608 OFFCURVE",
"552 584 CURVE",
"547 599 LINE",
"537 503 LINE SMOOTH",
"536 495 OFFCURVE",
"545 487 OFFCURVE",
"554 487 CURVE",
"590 607 LINE",
"546 639 OFFCURVE",
"494 655 OFFCURVE",
"435 655 CURVE SMOOTH",
"238 655 OFFCURVE",
"74 467 OFFCURVE",
"74 242 CURVE SMOOTH",
"74 83 OFFCURVE",
"157 -12 OFFCURVE",
"294 -12 CURVE SMOOTH",
"362 -12 OFFCURVE",
"433 12 OFFCURVE",
"500 58 CURVE",
"531 256 LINE",
"518 245 LINE",
"560 259 LINE SMOOTH",
"572 263 OFFCURVE",
"576 267 OFFCURVE",
"578 279 CURVE",
"445 279 LINE SMOOTH",
"432 279 OFFCURVE",
"428 275 OFFCURVE",
"426 261 CURVE",
"509 245 LINE",
"501 257 LINE",
"470 64 LINE",
"474 78 LINE",
"427 35 OFFCURVE",
"374 14 OFFCURVE",
"313 14 CURVE SMOOTH",
"187 14 OFFCURVE",
"114 106 OFFCURVE",
"114 265 CURVE SMOOTH"
);
}
);
width = 627;
},
{
anchors = (
{
name = bottom;
position = "{310, 0}";
},
{
name = top;
position = "{412, 641}";
}
);
background = {
paths = (
{
closed = 1;
nodes = (
"383 -12 OFFCURVE",
"476 14 OFFCURVE",
"548 57 CURVE",
"582 271 LINE",
"544 223 LINE",
"612 250 LINE SMOOTH",
"622 254 OFFCURVE",
"632 279 OFFCURVE",
"638 319 CURVE",
"364 319 LINE",
"345 291 OFFCURVE",
"338 272 OFFCURVE",
"333 243 CURVE",
"429 219 LINE",
"416 265 LINE",
"382 53 LINE",
"431 125 LINE",
"409 100 OFFCURVE",
"377 87 OFFCURVE",
"338 87 CURVE SMOOTH",
"255 87 OFFCURVE",
"212 139 OFFCURVE",
"212 242 CURVE SMOOTH",
"212 389 OFFCURVE",
"270 556 OFFCURVE",
"401 556 CURVE SMOOTH",
"455 556 OFFCURVE",
"510 536 OFFCURVE",
"525 511 CURVE",
"517 531 LINE",
"513 448 LINE SMOOTH",
"513 433 OFFCURVE",
"539 423 OFFCURVE",
"579 423 CURVE",
"627 605 LINE",
"584 635 OFFCURVE",
"506 655 OFFCURVE",
"430 655 CURVE SMOOTH",
"208 655 OFFCURVE",
"31 456 OFFCURVE",
"31 234 CURVE SMOOTH",
"31 82 OFFCURVE",
"130 -12 OFFCURVE",
"297 -12 CURVE SMOOTH"
);
},
{
closed = 0;
nodes = (
"918 264 LINE SMOOTH",
"918 434 OFFCURVE",
"1002 556 OFFCURVE",
"1119 556 CURVE SMOOTH",
"1171 556 OFFCURVE",
"1220 535 OFFCURVE",
"1249 500 CURVE",
"1226 545 LINE",
"1223 444 LINE SMOOTH",
"1223 431 OFFCURVE",
"1247 423 OFFCURVE",
"1288 423 CURVE",
"1335 605 LINE",
"1295 637 OFFCURVE",
"1229 655 OFFCURVE",
"1157 655 CURVE SMOOTH",
"927 655 OFFCURVE",
"731 464 OFFCURVE",
"731 240 CURVE SMOOTH"
);
}
);
};
layerId = "7B53E429-1BF0-49C5-9F57-63EEBF39C6CC";
paths = (
{
closed = 1;
nodes = (
"218 435 OFFCURVE",
"302 556 OFFCURVE",
"421 556 CURVE SMOOTH",
"472 556 OFFCURVE",
"520 535 OFFCURVE",
"549 500 CURVE",
"526 545 LINE",
"523 444 LINE SMOOTH",
"523 431 OFFCURVE",
"547 423 OFFCURVE",
"588 423 CURVE",
"635 605 LINE",
"596 637 OFFCURVE",
"530 655 OFFCURVE",
"458 655 CURVE SMOOTH",
"228 655 OFFCURVE",
"31 464 OFFCURVE",
"31 241 CURVE SMOOTH",
"31 83 OFFCURVE",
"131 -12 OFFCURVE",
"297 -12 CURVE SMOOTH",
"382 -12 OFFCURVE",
"475 14 OFFCURVE",
"548 57 CURVE",
"582 271 LINE",
"544 223 LINE",
"612 250 LINE SMOOTH",
"623 254 OFFCURVE",
"631 277 OFFCURVE",
"638 319 CURVE",
"364 319 LINE",
"346 292 OFFCURVE",
"338 274 OFFCURVE",
"333 243 CURVE",
"429 219 LINE",
"416 265 LINE",
"382 53 LINE",
"431 125 LINE",
"409 100 OFFCURVE",
"377 87 OFFCURVE",
"338 87 CURVE SMOOTH",
"259 87 OFFCURVE",
"218 147 OFFCURVE",
"218 264 CURVE SMOOTH"
);
}
);
width = 650;
},
{
anchors = (
{
name = bottom;
position = "{303, 0}";
},
{
name = top;
position = "{405, 641}";
}
);
layerId = "3EF2C2DE-A0EB-47A2-88E7-F2C629C295C3";
paths = (
{
closed = 1;
nodes = (
"149 462 OFFCURVE",
"260 603 OFFCURVE",
"414 603 CURVE SMOOTH",
"471 603 OFFCURVE",
"527 584 OFFCURVE",
"552 557 CURVE",
"541 582 LINE",
"533 483 LINE SMOOTH",
"533 474 OFFCURVE",
"547 466 OFFCURVE",
"566 466 CURVE",
"605 606 LINE",
"563 638 OFFCURVE",
"506 655 OFFCURVE",
"444 655 CURVE SMOOTH",
"236 655 OFFCURVE",
"61 466 OFFCURVE",
"61 242 CURVE SMOOTH",
"61 83 OFFCURVE",
"149 -12 OFFCURVE",
"296 -12 CURVE SMOOTH",
"370 -12 OFFCURVE",
"447 13 OFFCURVE",
"516 58 CURVE",
"548 260 LINE",
"528 238 LINE",
"578 256 LINE SMOOTH",
"589 260 OFFCURVE",
"595 270 OFFCURVE",
"598 292 CURVE",
"420 292 LINE SMOOTH",
"405 283 OFFCURVE",
"400 275 OFFCURVE",
"397 256 CURVE",
"484 236 LINE",
"474 260 LINE",
"442 60 LINE",
"461 93 LINE",
"422 56 OFFCURVE",
"376 38 OFFCURVE",
"322 38 CURVE SMOOTH",
"211 38 OFFCURVE",
"149 119 OFFCURVE",
"149 265 CURVE SMOOTH"
);
}
);
width = 635.5;
}
);
leftKerningGroup = O;
leftMetricsKey = O;
rightKerningGroup = G;
rightMetricsKey = "=H*.8";
unicode = 0047;
},
{
color = 4;
glyphname = H;
layers = (
{
anchors = (
{
name = bottom;
position = "{312, 0}";
},
{
name = center;
position = "{387, 475}";
},
{
name = top;
position = "{413, 641}";
},
{
name = topleft;
position = "{155, 641}";
}
);
layerId = "E1BF09ED-4302-4AD3-9939-8FDA35DE0FE8";
paths = (
{
closed = 1;
nodes = (
"181 0 LINE SMOOTH",
"194 0 OFFCURVE",
"197 4 OFFCURVE",
"200 18 CURVE",
"127 34 LINE",
"135 22 LINE",
"182 316 LINE",
"176 314 LINE",
"549 314 LINE",
"543 316 LINE",
"497 23 LINE",
"511 34 LINE",
"449 20 LINE SMOOTH",
"438 18 OFFCURVE",
"433 12 OFFCURVE",
"431 0 CURVE",
"573 0 LINE SMOOTH",
"586 0 OFFCURVE",
"590 4 OFFCURVE",
"592 18 CURVE",
"519 34 LINE",
"527 22 LINE",
"622 619 LINE",
"611 607 LINE",
"673 621 LINE SMOOTH",
"683 623 OFFCURVE",
"689 629 OFFCURVE",
"691 641 CURVE",
"548 641 LINE SMOOTH",
"535 641 OFFCURVE",
"532 637 OFFCURVE",
"530 623 CURVE",
"602 607 LINE",
"591 618 LINE",
"546 334 LINE",
"552 336 LINE",
"179 336 LINE",
"184 334 LINE",
"230 619 LINE",
"218 607 LINE",
"280 621 LINE SMOOTH",
"291 623 OFFCURVE",
"296 629 OFFCURVE",
"298 641 CURVE",
"156 641 LINE SMOOTH",
"143 641 OFFCURVE",
"139 637 OFFCURVE",
"137 623 CURVE",
"210 607 LINE",
"199 618 LINE",
"105 23 LINE",
"118 34 LINE",
"57 20 LINE SMOOTH",
"46 17 OFFCURVE",
"40 12 OFFCURVE",
"39 0 CURVE"
);
}
);
width = 698;
},
{
anchors = (
{
name = bottom;
position = "{323, 0}";
},
{
name = center;
position = "{398, 472}";
},
{
name = top;
position = "{425, 641}";
},
{
name = topleft;
position = "{121, 641}";
}
);
layerId = "7B53E429-1BF0-49C5-9F57-63EEBF39C6CC";
paths = (
{
closed = 1;
nodes = (
"282 0 LINE",
"302 29 OFFCURVE",
"309 50 OFFCURVE",
"313 76 CURVE",
"222 100 LINE",
"248 75 LINE",
"284 304 LINE",
"269 281 LINE",
"465 281 LINE",
"458 304 LINE",
"421 70 LINE",
"444 96 LINE",
"371 69 LINE SMOOTH",
"361 65 OFFCURVE",
"352 39 OFFCURVE",
"346 0 CURVE",
"636 0 LINE",
"657 29 OFFCURVE",
"665 50 OFFCURVE",
"669 76 CURVE",
"578 100 LINE",
"595 75 LINE",
"673 571 LINE",
"649 545 LINE",
"733 572 LINE SMOOTH",
"743 575 OFFCURVE",
"752 602 OFFCURVE",
"759 641 CURVE",
"466 641 LINE",
"447 614 OFFCURVE",
"439 591 OFFCURVE",
"435 565 CURVE",
"516 541 LINE",
"499 566 LINE",
"465 347 LINE",
"480 371 LINE",
"283 371 LINE",
"291 347 LINE",
"326 571 LINE",
"293 545 LINE",
"377 572 LINE SMOOTH",
"386 575 OFFCURVE",
"396 602 OFFCURVE",
"402 641 CURVE",
"121 641 LINE",
"100 614 OFFCURVE",
"92 591 OFFCURVE",
"88 565 CURVE",
"169 541 LINE",
"152 566 LINE",
"74 70 LINE",
"97 96 LINE",
"24 69 LINE SMOOTH",
"14 65 OFFCURVE",
"5 39 OFFCURVE",
"-1 0 CURVE"
);
}
);
width = 727;
},
{
anchors = (
{
name = bottom;
position = "{316, 0}";
},
{
name = center;
position = "{391, 474}";
},
{
name = top;
position = "{417, 641}";
},
{
name = topleft;
position = "{144, 641}";
}
);
layerId = "3EF2C2DE-A0EB-47A2-88E7-F2C629C295C3";
paths = (
{
closed = 1;
nodes = (
"214 0 LINE SMOOTH",
"229 10 OFFCURVE",
"233 19 OFFCURVE",
"236 38 CURVE",
"158 55 LINE",
"171 39 LINE",
"215 312 LINE",
"206 303 LINE",
"522 303 LINE",
"515 312 LINE",
"472 38 LINE",
"489 54 LINE",
"424 36 LINE SMOOTH",
"413 33 OFFCURVE",
"407 21 OFFCURVE",
"403 0 CURVE",
"593 0 LINE SMOOTH",
"609 10 OFFCURVE",
"614 19 OFFCURVE",
"617 38 CURVE",
"539 55 LINE",
"549 39 LINE",
"638 604 LINE",
"623 587 LINE",
"693 605 LINE SMOOTH",
"703 608 OFFCURVE",
"709 620 OFFCURVE",
"713 641 CURVE",
"521 641 LINE SMOOTH",
"507 632 OFFCURVE",
"502 622 OFFCURVE",
"499 603 CURVE",
"574 586 LINE",
"562 601 LINE",
"520 338 LINE",
"529 348 LINE",
"213 348 LINE",
"219 338 LINE",
"261 604 LINE",
"242 587 LINE",
"312 605 LINE SMOOTH",
"322 608 OFFCURVE",
"329 620 OFFCURVE",
"332 641 CURVE",
"144 641 LINE SMOOTH",
"129 632 OFFCURVE",
"124 622 OFFCURVE",
"121 603 CURVE",
"197 586 LINE",
"184 601 LINE",
"95 38 LINE",
"111 54 LINE",
"46 36 LINE SMOOTH",
"35 32 OFFCURVE",
"28 21 OFFCURVE",
"26 0 CURVE"
);
}
);
width = 707.57692;
}
);
leftKerningGroup = H;
rightKerningGroup = H;
unicode = 0048;
},
{
color = 4;
glyphname = I;
layers = (
{
anchors = (
{
name = bottom;
position = "{116, 0}";
},
{
name = ogonek;
position = "{181, 0}";
},
{
name = top;
position = "{217, 641}";
},
{
name = topleft;
position = "{156, 641}";
}
);
layerId = "E1BF09ED-4302-4AD3-9939-8FDA35DE0FE8";
paths = (
{
closed = 1;
nodes = (
"181 0 LINE",
"194 0 OFFCURVE",
"197 4 OFFCURVE",
"200 18 CURVE",
"127 34 LINE",
"135 22 LINE",
"230 619 LINE",
"218 607 LINE",
"280 621 LINE SMOOTH",
"291 623 OFFCURVE",
"296 629 OFFCURVE",
"298 641 CURVE",
"156 641 LINE",
"143 641 OFFCURVE",
"139 637 OFFCURVE",
"137 623 CURVE",
"210 607 LINE",
"199 618 LINE",
"105 23 LINE",
"118 34 LINE",
"57 20 LINE SMOOTH",
"46 18 OFFCURVE",
"40 12 OFFCURVE",
"39 0 CURVE"
);
}
);
width = 305;
},
{
anchors = (
{
name = bottom;
position = "{146, 0}";
},
{
name = ogonek;
position = "{282, 0}";
},
{
name = top;
position = "{247, 641}";
},
{
name = topleft;
position = "{121, 641}";
}
);
layerId = "7B53E429-1BF0-49C5-9F57-63EEBF39C6CC";
paths = (
{
closed = 1;
nodes = (
"282 0 LINE",
"302 29 OFFCURVE",
"309 50 OFFCURVE",
"313 76 CURVE",
"222 100 LINE",
"248 75 LINE",
"326 571 LINE",
"293 545 LINE",
"377 572 LINE SMOOTH",
"386 575 OFFCURVE",
"396 602 OFFCURVE",
"402 641 CURVE",
"121 641 LINE",
"100 614 OFFCURVE",
"92 591 OFFCURVE",
"88 565 CURVE",
"169 541 LINE",
"152 566 LINE",
"74 70 LINE",
"97 96 LINE",
"24 69 LINE SMOOTH",
"14 65 OFFCURVE",
"5 39 OFFCURVE",
"-1 0 CURVE"
);
}
);
width = 370;
},
{
anchors = (
{
name = bottom;
position = "{126, 0}";
},
{
name = ogonek;
position = "{214, 0}";
},
{
name = top;
position = "{227, 641}";
},
{
name = topleft;
position = "{144, 641}";
}
);
layerId = "3EF2C2DE-A0EB-47A2-88E7-F2C629C295C3";
paths = (
{
closed = 1;
nodes = (
"214 0 LINE",
"229 10 OFFCURVE",
"233 19 OFFCURVE",
"236 38 CURVE",
"158 55 LINE",
"171 39 LINE",
"261 604 LINE",
"242 587 LINE",
"312 605 LINE SMOOTH",
"322 608 OFFCURVE",
"329 620 OFFCURVE",
"332 641 CURVE",
"144 641 LINE",
"129 632 OFFCURVE",
"124 622 OFFCURVE",
"121 603 CURVE",
"197 586 LINE",
"184 601 LINE",
"95 38 LINE",
"111 54 LINE",
"46 36 LINE SMOOTH",
"35 33 OFFCURVE",
"28 21 OFFCURVE",
"26 0 CURVE"
);
}
);
width = 326.11538;
}
);
leftKerningGroup = H;
leftMetricsKey = H;
rightKerningGroup = H;
rightMetricsKey = H;
unicode = 0049;
},
{
color = 4;
glyphname = J;
layers = (
{
anchors = (
{
name = bottom;
position = "{73, 0}";
},
{
name = top;
position = "{174, 641}";
}
);
background = {
paths = (
{
closed = 1;
nodes = (
"92 -184 OFFCURVE",
"149 -33 OFFCURVE",
"149 169 CURVE SMOOTH",
"149 618 LINE",
"139 607 LINE",
"203 621 LINE SMOOTH",
"214 623 OFFCURVE",
"219 629 OFFCURVE",
"219 641 CURVE",
"66 641 LINE SMOOTH",
"52 641 OFFCURVE",
"49 637 OFFCURVE",
"49 623 CURVE",
"130 607 LINE",
"116 618 LINE",
"116 67 LINE SMOOTH",
"116 -64 OFFCURVE",
"79 -149 OFFCURVE",
"-37 -149 CURVE SMOOTH",
"-53 -149 LINE",
"-55 -152 OFFCURVE",
"-56 -155 OFFCURVE",
"-56 -159 CURVE SMOOTH",
"-56 -174 OFFCURVE",
"-36 -184 OFFCURVE",
"-13 -184 CURVE SMOOTH"
);
}
);
};
layerId = "E1BF09ED-4302-4AD3-9939-8FDA35DE0FE8";
paths = (
{
closed = 1;
nodes = (
"25 -184 OFFCURVE",
"98 -50 OFFCURVE",
"132 169 CURVE SMOOTH",
"202 618 LINE",
"192 607 LINE",
"253 621 LINE SMOOTH",
"265 624 OFFCURVE",
"270 629 OFFCURVE",
"271 641 CURVE",
"129 641 LINE SMOOTH",
"116 641 OFFCURVE",
"113 637 OFFCURVE",
"110 623 CURVE",
"183 607 LINE",
"172 618 LINE",
"85 67 LINE SMOOTH",
"60 -90 OFFCURVE",
"5 -149 OFFCURVE",
"-108 -149 CURVE",
"-110 -153 OFFCURVE",
"-111 -158 OFFCURVE",
"-111 -162 CURVE SMOOTH",
"-111 -177 OFFCURVE",
"-102 -184 OFFCURVE",
"-81 -184 CURVE SMOOTH"
);
}
);
width = 249;
},
{
anchors = (
{
name = bottom;
position = "{144, 0}";
},
{
name = top;
position = "{246, 641}";
}
);
layerId = "7B53E429-1BF0-49C5-9F57-63EEBF39C6CC";
paths = (
{
closed = 1;
nodes = (
"73 -193 OFFCURVE",
"225 21 OFFCURVE",
"264 265 CURVE SMOOTH",
"313 574 LINE",
"279 545 LINE",
"363 572 LINE SMOOTH",
"372 575 OFFCURVE",
"382 602 OFFCURVE",
"388 641 CURVE",
"107 641 LINE",
"89 616 OFFCURVE",
"79 594 OFFCURVE",
"74 565 CURVE",
"155 541 LINE",
"140 574 LINE",
"64 94 LINE SMOOTH",
"47 -11 OFFCURVE",
"12 -40 OFFCURVE",
"-102 -40 CURVE",
"-115 -62 OFFCURVE",
"-128 -99 OFFCURVE",
"-128 -121 CURVE SMOOTH",
"-128 -167 OFFCURVE",
"-107 -193 OFFCURVE",
"-61 -193 CURVE SMOOTH"
);
}
);
width = 342;
},
{
anchors = (
{
name = bottom;
position = "{96, 0}";
},
{
name = top;
position = "{197, 641}";
}
);
layerId = "3EF2C2DE-A0EB-47A2-88E7-F2C629C295C3";
paths = (
{
closed = 1;
nodes = (
"40 -187 OFFCURVE",
"139 -27 OFFCURVE",
"176 200 CURVE SMOOTH",
"238 604 LINE",
"220 587 LINE",
"289 605 LINE SMOOTH",
"300 608 OFFCURVE",
"306 620 OFFCURVE",
"309 641 CURVE",
"122 641 LINE SMOOTH",
"105 640 OFFCURVE",
"102 623 OFFCURVE",
"98 603 CURVE",
"174 586 LINE",
"161 604 LINE",
"78 76 LINE SMOOTH",
"56 -64 OFFCURVE",
"7 -113 OFFCURVE",
"-106 -113 CURVE",
"-112 -124 OFFCURVE",
"-116 -138 OFFCURVE",
"-116 -149 CURVE SMOOTH",
"-116 -174 OFFCURVE",
"-104 -187 OFFCURVE",
"-74 -187 CURVE SMOOTH"
);
}
);
width = 279.5;
}
);
leftKerningGroup = J;
rightKerningGroup = J;
rightMetricsKey = U;
unicode = 004A;
},
{
color = 4;
glyphname = K;
layers = (
{
anchors = (
{
name = bottom;
position = "{262, 0}";
},
{
name = top;
position = "{363, 641}";
}
);
guideLines = (
{
angle = -89.0715;
position = "{435, 10}";
}
);
layerId = "E1BF09ED-4302-4AD3-9939-8FDA35DE0FE8";
paths = (
{
closed = 1;
nodes = (
"481 -10 OFFCURVE",
"491 0 OFFCURVE",
"492 10 CURVE",
"394 47 OFFCURVE",
"284 213 OFFCURVE",
"218 332 CURVE",
"215 317 LINE",
"522 625 LINE",
"496 607 LINE",
"564 621 LINE SMOOTH",
"574 623 OFFCURVE",
"580 629 OFFCURVE",
"582 641 CURVE",
"430 641 LINE SMOOTH",
"417 641 OFFCURVE",
"414 637 OFFCURVE",
"412 623 CURVE",
"491 607 LINE",
"492 620 LINE",
"195 322 LINE",
"294 156 OFFCURVE",
"396 -10 OFFCURVE",
"466 -10 CURVE SMOOTH"
);
},
{
closed = 1;
nodes = (
"181 0 LINE SMOOTH",
"194 0 OFFCURVE",
"197 4 OFFCURVE",
"200 18 CURVE",
"127 34 LINE",
"135 22 LINE",
"230 619 LINE",
"218 607 LINE",
"280 621 LINE SMOOTH",
"291 623 OFFCURVE",
"296 629 OFFCURVE",
"298 641 CURVE",
"156 641 LINE SMOOTH",
"143 641 OFFCURVE",
"139 637 OFFCURVE",
"137 623 CURVE",
"210 607 LINE",
"199 618 LINE",
"105 23 LINE",
"118 34 LINE",
"57 20 LINE SMOOTH",
"46 18 OFFCURVE",
"40 12 OFFCURVE",
"39 0 CURVE"
);
}
);
width = 533;
},
{
anchors = (
{
name = bottom;
position = "{278, 0}";
},
{
name = top;
position = "{379, 641}";
}
);
guideLines = (
{
angle = 230.005;
position = "{659, 589}";
},
{
angle = -89.0715;
position = "{535, 33}";
}
);
layerId = "7B53E429-1BF0-49C5-9F57-63EEBF39C6CC";
paths = (
{
closed = 1;
nodes = (
"537 -12 OFFCURVE",
"579 3 OFFCURVE",
"623 33 CURVE",
"563 100 OFFCURVE",
"489 235 OFFCURVE",
"436 373 CURVE",
"394 305 LINE",
"647 589 LINE",
"571 540 LINE",
"671 568 LINE SMOOTH",
"691 574 OFFCURVE",
"703 596 OFFCURVE",
"710 641 CURVE",
"474 641 LINE",
"457 617 OFFCURVE",
"448 595 OFFCURVE",
"443 565 CURVE",
"534 541 LINE",
"525 584 LINE",
"287 317 LINE",
"393 10 OFFCURVE",
"407 -12 OFFCURVE",
"497 -12 CURVE SMOOTH"
);
},
{
closed = 1;
nodes = (
"282 0 LINE",
"302 29 OFFCURVE",
"309 50 OFFCURVE",
"313 76 CURVE",
"222 100 LINE",
"248 75 LINE",
"326 571 LINE",
"293 545 LINE",
"377 572 LINE SMOOTH",
"386 575 OFFCURVE",
"396 603 OFFCURVE",
"402 641 CURVE",
"121 641 LINE",
"100 614 OFFCURVE",
"92 591 OFFCURVE",
"88 565 CURVE",
"169 541 LINE",
"152 566 LINE",
"74 70 LINE",
"97 96 LINE",
"24 69 LINE SMOOTH",
"14 65 OFFCURVE",
"5 39 OFFCURVE",
"-1 0 CURVE"
);
}
);
width = 656;
},
{
anchors = (
{
name = bottom;
position = "{266, 0}";
},
{
name = top;
position = "{367, 641}";
}
);
layerId = "3EF2C2DE-A0EB-47A2-88E7-F2C629C295C3";
paths = (
{
closed = 1;
nodes = (
"500 -11 OFFCURVE",
"519 1 OFFCURVE",
"535 18 CURVE",
"449 64 OFFCURVE",
"351 220 OFFCURVE",
"289 345 CURVE",
"273 313 LINE",
"562 613 LINE",
"520 585 LINE",
"599 604 LINE SMOOTH",
"612 607 OFFCURVE",
"620 618 OFFCURVE",
"623 641 CURVE",
"444 641 LINE SMOOTH",
"430 633 OFFCURVE",
"425 624 OFFCURVE",
"422 603 CURVE",
"505 586 LINE",
"503 608 LINE",
"225 320 LINE",
"326 109 OFFCURVE",
"400 -11 OFFCURVE",
"476 -11 CURVE SMOOTH"
);
},
{
closed = 1;
nodes = (
"214 0 LINE SMOOTH",
"229 10 OFFCURVE",
"233 19 OFFCURVE",
"236 38 CURVE",
"158 55 LINE",
"171 39 LINE",
"261 604 LINE",
"242 587 LINE",
"312 605 LINE SMOOTH",
"322 608 OFFCURVE",
"329 620 OFFCURVE",
"332 641 CURVE",
"144 641 LINE SMOOTH",
"129 632 OFFCURVE",
"124 622 OFFCURVE",
"121 603 CURVE",
"197 586 LINE",
"184 601 LINE",
"95 38 LINE",
"111 54 LINE",
"46 36 LINE SMOOTH",
"35 33 OFFCURVE",
"28 21 OFFCURVE",
"26 0 CURVE"
);
}
);
width = 573;
}
);
leftKerningGroup = H;
leftMetricsKey = H;
rightKerningGroup = K;
rightMetricsKey = "=H*.1";
unicode = 004B;
},
{
color = 4;
glyphname = L;
layers = (
{
anchors = (
{
name = bottom;
position = "{254, 0}";
},
{
name = center;
position = "{168, 321}";
},
{
name = top;
position = "{219, 641}";
},
{
name = topright;
position = "{338, 443}";
}
);
layerId = "E1BF09ED-4302-4AD3-9939-8FDA35DE0FE8";
paths = (
{
closed = 1;
nodes = (
"435 0 LINE",
"452 108 LINE SMOOTH",
"453 115 OFFCURVE",
"446 121 OFFCURVE",
"433 121 CURVE",
"401 7 LINE",
"414 16 LINE",
"128 34 LINE",
"135 23 LINE",
"230 619 LINE",
"218 607 LINE",
"280 621 LINE SMOOTH",
"291 623 OFFCURVE",
"296 629 OFFCURVE",
"298 641 CURVE",
"156 641 LINE SMOOTH",
"143 641 OFFCURVE",
"139 637 OFFCURVE",
"137 623 CURVE",
"210 607 LINE",
"199 618 LINE",
"105 23 LINE",
"118 34 LINE",
"57 20 LINE SMOOTH",
"46 18 OFFCURVE",
"40 12 OFFCURVE",
"39 0 CURVE"
);
}
);
width = 521;
},
{
anchors = (
{
name = bottom;
position = "{262, 0}";
},
{
name = center;
position = "{199, 321}";
},
{
name = top;
position = "{250, 641}";
},
{
name = topright;
position = "{408, 443}";
}
);
layerId = "7B53E429-1BF0-49C5-9F57-63EEBF39C6CC";
paths = (
{
closed = 1;
nodes = (
"493 0 LINE",
"522 183 LINE",
"500 200 OFFCURVE",
"479 205 OFFCURVE",
"455 205 CURVE",
"402 72 LINE",
"417 94 LINE",
"244 112 LINE",
"252 101 LINE",
"326 571 LINE",
"303 545 LINE",
"387 572 LINE SMOOTH",
"397 575 OFFCURVE",
"406 602 OFFCURVE",
"413 641 CURVE",
"121 641 LINE",
"100 614 OFFCURVE",
"92 591 OFFCURVE",
"88 565 CURVE",
"169 541 LINE",
"152 566 LINE",
"74 70 LINE",
"97 96 LINE",
"24 69 LINE SMOOTH",
"14 65 OFFCURVE",
"5 39 OFFCURVE",
"-1 0 CURVE"
);
}
);
width = 582;
},
{
anchors = (
{
name = bottom;
position = "{257, 0}";
},
{
name = center;
position = "{178, 321}";
},
{
name = top;
position = "{229, 641}";
},
{
name = topright;
position = "{361, 443}";
}
);
layerId = "3EF2C2DE-A0EB-47A2-88E7-F2C629C295C3";
paths = (
{
closed = 1;
nodes = (
"455 0 LINE",
"475 132 LINE SMOOTH",
"468 143 OFFCURVE",
"457 148 OFFCURVE",
"440 148 CURVE",
"401 28 LINE",
"415 41 LINE",
"165 59 LINE",
"173 48 LINE",
"261 604 LINE",
"246 587 LINE",
"315 605 LINE SMOOTH",
"326 608 OFFCURVE",
"332 620 OFFCURVE",
"335 641 CURVE",
"144 641 LINE SMOOTH",
"129 632 OFFCURVE",
"124 622 OFFCURVE",
"121 603 CURVE",
"197 586 LINE",
"184 601 LINE",
"95 38 LINE",
"111 54 LINE",
"46 36 LINE SMOOTH",
"35 33 OFFCURVE",
"28 21 OFFCURVE",
"26 0 CURVE"
);
}
);
width = 541.11538;
}
);
leftKerningGroup = H;
leftMetricsKey = H;
rightKerningGroup = L;
unicode = 004C;
},
{
color = 4;
glyphname = M;
layers = (
{
anchors = (
{
name = bottom;
position = "{383, 0}";
},
{
name = top;
position = "{485, 641}";
}
);
layerId = "E1BF09ED-4302-4AD3-9939-8FDA35DE0FE8";
paths = (
{
closed = 1;
nodes = (
"382 -3 OFFCURVE",
"386 0 OFFCURVE",
"393 14 CURVE SMOOTH",
"713 636 LINE",
"700 636 LINE",
"648 11 LINE",
"656 34 LINE",
"588 20 LINE SMOOTH",
"578 18 OFFCURVE",
"572 12 OFFCURVE",
"570 0 CURVE",
"729 0 LINE SMOOTH",
"742 0 OFFCURVE",
"746 4 OFFCURVE",
"748 18 CURVE",
"674 32 LINE",
"679 15 LINE",
"731 634 LINE",
"715 608 LINE",
"780 621 LINE SMOOTH",
"791 623 OFFCURVE",
"796 629 OFFCURVE",
"798 641 CURVE",
"695 641 LINE",
"387 41 LINE",
"399 41 LINE",
"284 641 LINE",
"197 641 LINE SMOOTH",
"184 641 OFFCURVE",
"181 637 OFFCURVE",
"179 623 CURVE",
"245 609 LINE",
"245 634 LINE",
"93 14 LINE",
"101 30 LINE",
"45 20 LINE SMOOTH",
"34 18 OFFCURVE",
"29 12 OFFCURVE",
"27 0 CURVE",
"159 0 LINE SMOOTH",
"172 0 OFFCURVE",
"175 4 OFFCURVE",
"178 18 CURVE",
"110 31 LINE",
"113 18 LINE",
"263 634 LINE",
"254 634 LINE",
"376 -1 LINE",
"377 -3 OFFCURVE",
"378 -3 OFFCURVE",
"379 -3 CURVE SMOOTH"
);
}
);
width = 842;
},
{
anchors = (
{
name = bottom;
position = "{385, 0}";
},
{
name = top;
position = "{487, 641}";
}
);
layerId = "7B53E429-1BF0-49C5-9F57-63EEBF39C6CC";
paths = (
{
closed = 1;
nodes = (
"394 -3 OFFCURVE",
"423 6 OFFCURVE",
"430 23 CURVE SMOOTH",
"675 564 LINE",
"635 564 LINE",
"593 53 LINE",
"626 97 LINE",
"547 70 LINE SMOOTH",
"538 67 OFFCURVE",
"528 40 OFFCURVE",
"522 1 CURVE",
"798 1 LINE",
"818 28 OFFCURVE",
"826 51 OFFCURVE",
"831 77 CURVE",
"754 101 LINE",
"765 57 LINE",
"809 589 LINE",
"768 545 LINE",
"856 572 LINE SMOOTH",
"866 575 OFFCURVE",
"876 602 OFFCURVE",
"882 641 CURVE",
"612 641 LINE",
"415 204 LINE",
"485 204 LINE",
"414 641 LINE",
"159 641 LINE",
"139 614 OFFCURVE",
"131 591 OFFCURVE",
"126 565 CURVE",
"207 541 LINE",
"206 584 LINE",
"76 53 LINE",
"103 97 LINE",
"20 70 LINE SMOOTH",
"10 67 OFFCURVE",
"0 40 OFFCURVE",
"-6 1 CURVE",
"232 1 LINE",
"252 28 OFFCURVE",
"259 51 OFFCURVE",
"263 77 CURVE",
"168 101 LINE",
"169 57 LINE",
"290 554 LINE",
"255 554 LINE",
"345 4 LINE",
"349 0 OFFCURVE",
"368 -3 OFFCURVE",
"377 -3 CURVE SMOOTH"
);
}
);
width = 883;
},
{
anchors = (
{
name = bottom;
position = "{385, 0}";
},
{
name = top;
position = "{487, 641}";
}
);
layerId = "3EF2C2DE-A0EB-47A2-88E7-F2C629C295C3";
paths = (
{
closed = 1;
nodes = (
"387 -3 OFFCURVE",
"399 2 OFFCURVE",
"406 17 CURVE SMOOTH",
"702 613 LINE",
"680 613 LINE",
"631 24 LINE",
"647 54 LINE",
"576 36 LINE SMOOTH",
"566 34 OFFCURVE",
"559 21 OFFCURVE",
"556 0 CURVE",
"752 0 LINE SMOOTH",
"768 9 OFFCURVE",
"773 19 OFFCURVE",
"776 38 CURVE",
"701 54 LINE",
"708 28 LINE",
"757 620 LINE",
"733 588 LINE",
"806 605 LINE SMOOTH",
"816 608 OFFCURVE",
"823 620 OFFCURVE",
"826 641 CURVE",
"669 641 LINE",
"397 93 LINE",
"428 93 LINE",
"328 641 LINE",
"186 641 LINE SMOOTH",
"171 632 OFFCURVE",
"166 622 OFFCURVE",
"163 603 CURVE",
"234 587 LINE",
"234 618 LINE",
"89 26 LINE",
"103 52 LINE",
"38 36 LINE SMOOTH",
"27 34 OFFCURVE",
"20 21 OFFCURVE",
"17 0 CURVE",
"184 0 LINE SMOOTH",
"199 9 OFFCURVE",
"203 19 OFFCURVE",
"207 38 CURVE",
"131 54 LINE",
"133 30 LINE",
"273 608 LINE",
"255 608 LINE",
"367 1 LINE",
"369 -2 OFFCURVE",
"376 -3 OFFCURVE",
"379 -3 CURVE SMOOTH"
);
}
);
width = 857;
}
);
leftKerningGroup = M;
leftMetricsKey = "=H*.85";
rightKerningGroup = M;
rightMetricsKey = "=H*.85";
unicode = 004D;
},
{
color = 4;
glyphname = N;
layers = (
{
anchors = (
{
name = bottom;
position = "{319, 0}";
},
{
name = top;
position = "{421, 641}";
}
);
layerId = "E1BF09ED-4302-4AD3-9939-8FDA35DE0FE8";
paths = (
{
closed = 1;
nodes = (
"534 -1 OFFCURVE",
"538 7 OFFCURVE",
"539 12 CURVE SMOOTH",
"636 623 LINE",
"628 611 LINE",
"685 621 LINE SMOOTH",
"695 623 OFFCURVE",
"701 629 OFFCURVE",
"703 641 CURVE",
"571 641 LINE SMOOTH",
"558 641 OFFCURVE",
"554 637 OFFCURVE",
"552 623 CURVE",
"620 610 LINE",
"617 623 LINE",
"524 38 LINE",
"535 38 LINE",
"239 641 LINE",
"156 641 LINE SMOOTH",
"143 641 OFFCURVE",
"139 637 OFFCURVE",
"137 623 CURVE",
"204 609 LINE",
"201 617 LINE",
"105 12 LINE",
"113 30 LINE",
"57 20 LINE SMOOTH",
"46 18 OFFCURVE",
"40 12 OFFCURVE",
"39 0 CURVE",
"171 0 LINE SMOOTH",
"184 0 OFFCURVE",
"187 4 OFFCURVE",
"189 18 CURVE",
"122 31 LINE",
"125 17 LINE",
"220 618 LINE",
"213 617 LINE",
"516 1 LINE",
"518 0 OFFCURVE",
"520 -1 OFFCURVE",
"525 -1 CURVE SMOOTH"
);
}
);
width = 688;
},
{
anchors = (
{
name = bottom;
position = "{335, 0}";
},
{
name = top;
position = "{437, 641}";
}
);
layerId = "7B53E429-1BF0-49C5-9F57-63EEBF39C6CC";
paths = (
{
closed = 1;
nodes = (
"531 -3 OFFCURVE",
"588 6 OFFCURVE",
"593 37 CURVE SMOOTH",
"681 589 LINE",
"652 545 LINE",
"740 572 LINE SMOOTH",
"750 575 OFFCURVE",
"760 602 OFFCURVE",
"766 641 CURVE",
"519 641 LINE",
"499 614 OFFCURVE",
"492 591 OFFCURVE",
"488 565 CURVE",
"587 541 LINE",
"587 584 LINE",
"516 137 LINE",
"574 158 LINE",
"308 641 LINE",
"119 641 LINE",
"100 614 OFFCURVE",
"92 591 OFFCURVE",
"88 565 CURVE",
"187 541 LINE",
"169 584 LINE",
"85 52 LINE",
"112 96 LINE",
"24 69 LINE SMOOTH",
"15 66 OFFCURVE",
"5 39 OFFCURVE",
"-1 0 CURVE",
"246 0 LINE",
"265 27 OFFCURVE",
"272 50 OFFCURVE",
"277 76 CURVE",
"177 100 LINE",
"179 57 LINE",
"239 439 LINE",
"218 422 LINE",
"450 3 LINE",
"465 -1 OFFCURVE",
"490 -3 OFFCURVE",
"517 -3 CURVE SMOOTH"
);
}
);
width = 724;
},
{
anchors = (
{
name = bottom;
position = "{323, 0}";
},
{
name = top;
position = "{425, 641}";
}
);
layerId = "3EF2C2DE-A0EB-47A2-88E7-F2C629C295C3";
paths = (
{
closed = 1;
nodes = (
"533 -2 OFFCURVE",
"554 7 OFFCURVE",
"556 20 CURVE SMOOTH",
"650 612 LINE",
"636 590 LINE",
"703 605 LINE SMOOTH",
"713 608 OFFCURVE",
"721 620 OFFCURVE",
"723 641 CURVE",
"554 641 LINE SMOOTH",
"538 632 OFFCURVE",
"534 622 OFFCURVE",
"531 603 CURVE",
"609 588 LINE",
"607 611 LINE",
"521 70 LINE",
"547 77 LINE",
"261 641 LINE",
"144 641 LINE SMOOTH",
"129 632 OFFCURVE",
"124 622 OFFCURVE",
"121 603 CURVE",
"199 587 LINE",
"190 606 LINE",
"98 25 LINE",
"113 51 LINE",
"46 36 LINE SMOOTH",
"36 33 OFFCURVE",
"28 21 OFFCURVE",
"26 0 CURVE",
"195 0 LINE SMOOTH",
"210 9 OFFCURVE",
"215 19 OFFCURVE",
"217 38 CURVE",
"140 53 LINE",
"142 30 LINE",
"226 560 LINE",
"215 554 LINE",
"495 2 LINE",
"501 0 OFFCURVE",
"510 -2 OFFCURVE",
"522 -2 CURVE SMOOTH"
);
}
);
width = 700;
}
);
leftKerningGroup = H;
leftMetricsKey = H;
rightKerningGroup = N;
rightMetricsKey = "=H*.7";
unicode = 004E;
},
{
color = 4;
glyphname = Eng;
layers = (
{
guideLines = (
{
angle = 80.9792;
position = "{588, 318}";
},
{
angle = 260.967;
position = "{571, 331}";
}
);
layerId = "E1BF09ED-4302-4AD3-9939-8FDA35DE0FE8";
paths = (
{
closed = 1;
nodes = (
"535 32 LINE",
"235 641 LINE",
"156 641 LINE SMOOTH",
"143 641 OFFCURVE",
"139 637 OFFCURVE",
"137 623 CURVE",
"204 609 LINE",
"201 617 LINE",
"105 12 LINE",
"113 30 LINE",
"57 20 LINE SMOOTH",
"46 18 OFFCURVE",
"40 12 OFFCURVE",
"39 0 CURVE",
"171 0 LINE SMOOTH",
"184 0 OFFCURVE",
"187 4 OFFCURVE",
"189 18 CURVE",
"122 31 LINE",
"125 17 LINE",
"220 618 LINE",
"213 617 LINE",
"522 -10 LINE"
);
},
{
closed = 1;
nodes = (
"430 -184 OFFCURVE",
"519 -116 OFFCURVE",
"544 38 CURVE SMOOTH",
"636 623 LINE",
"628 611 LINE",
"685 621 LINE SMOOTH",
"695 623 OFFCURVE",
"701 629 OFFCURVE",
"703 641 CURVE",
"571 641 LINE SMOOTH",
"558 641 OFFCURVE",
"554 637 OFFCURVE",
"552 623 CURVE",
"620 610 LINE",
"617 623 LINE",
"524 38 LINE SMOOTH",
"502 -104 OFFCURVE",
"450 -149 OFFCURVE",
"324 -149 CURVE",
"322 -153 OFFCURVE",
"321 -158 OFFCURVE",
"321 -162 CURVE SMOOTH",
"321 -177 OFFCURVE",
"330 -184 OFFCURVE",
"351 -184 CURVE SMOOTH"
);
}
);
width = 681;
},
{
guideLines = (
{
angle = 80.9421;
position = "{637, 313}";
},
{
angle = 260.9747;
position = "{552, 361}";
}
);
layerId = "7B53E429-1BF0-49C5-9F57-63EEBF39C6CC";
paths = (
{
closed = 1;
nodes = (
"604 158 LINE",
"308 641 LINE",
"119 641 LINE",
"100 614 OFFCURVE",
"92 591 OFFCURVE",
"88 565 CURVE",
"187 541 LINE",
"169 584 LINE",
"85 52 LINE",
"112 96 LINE",
"24 69 LINE SMOOTH",
"15 66 OFFCURVE",
"5 39 OFFCURVE",
"-1 0 CURVE",
"246 0 LINE",
"265 27 OFFCURVE",
"272 50 OFFCURVE",
"277 76 CURVE",
"177 100 LINE",
"179 57 LINE",
"239 439 LINE",
"218 422 LINE",
"480 3 LINE"
);
},
{
closed = 1;
nodes = (
"429 -193 OFFCURVE",
"577 -62 OFFCURVE",
"609 137 CURVE SMOOTH",
"681 589 LINE",
"652 545 LINE",
"740 572 LINE SMOOTH",
"750 575 OFFCURVE",
"760 602 OFFCURVE",
"766 641 CURVE",
"519 641 LINE",
"499 614 OFFCURVE",
"492 591 OFFCURVE",
"488 565 CURVE",
"587 541 LINE",
"587 584 LINE",
"516 137 LINE SMOOTH",
"494 -8 OFFCURVE",
"437 -40 OFFCURVE",
"263 -40 CURVE",
"250 -62 OFFCURVE",
"237 -99 OFFCURVE",
"237 -121 CURVE SMOOTH",
"237 -167 OFFCURVE",
"258 -193 OFFCURVE",
"304 -193 CURVE SMOOTH"
);
}
);
width = 720;
},
{
layerId = "3EF2C2DE-A0EB-47A2-88E7-F2C629C295C3";
paths = (
{
closed = 1;
nodes = (
"557 73 LINE",
"259 641 LINE",
"144 641 LINE SMOOTH",
"129 632 OFFCURVE",
"124 622 OFFCURVE",
"121 603 CURVE",
"199 587 LINE",
"190 606 LINE",
"98 25 LINE",
"113 51 LINE",
"46 36 LINE SMOOTH",
"36 33 OFFCURVE",
"28 21 OFFCURVE",
"26 0 CURVE",
"195 0 LINE SMOOTH",
"210 9 OFFCURVE",
"215 19 OFFCURVE",
"217 38 CURVE",
"140 53 LINE",
"142 30 LINE",
"226 560 LINE",
"215 554 LINE",
"509 -6 LINE"
);
},
{
closed = 1;
nodes = (
"430 -187 OFFCURVE",
"539 -99 OFFCURVE",
"565 70 CURVE SMOOTH",
"650 612 LINE",
"636 590 LINE",
"703 605 LINE SMOOTH",
"713 608 OFFCURVE",
"721 620 OFFCURVE",
"723 641 CURVE",
"554 641 LINE SMOOTH",
"538 632 OFFCURVE",
"534 622 OFFCURVE",
"531 603 CURVE",
"609 588 LINE",
"607 611 LINE",
"521 70 LINE SMOOTH",
"499 -73 OFFCURVE",
"446 -113 OFFCURVE",
"304 -113 CURVE",
"299 -124 OFFCURVE",
"294 -138 OFFCURVE",
"294 -149 CURVE SMOOTH",
"294 -174 OFFCURVE",
"307 -187 OFFCURVE",
"336 -187 CURVE SMOOTH"
);
}
);
width = 694;
}
);
leftKerningGroup = H;
leftMetricsKey = N;
rightKerningGroup = J;
rightMetricsKey = J;
unicode = 014A;
},
{
color = 4;
glyphname = O;
layers = (
{
anchors = (
{
name = bottom;
position = "{289, 0}";
},
{
name = center;
position = "{340, 321}";
},
{
name = ogonek;
position = "{345, 0}";
},
{
name = top;
position = "{391, 641}";
},
{
name = topleft;
position = "{331, 641}";
},
{
name = topright;
position = "{483, 641}";
}
);
background = {
paths = (
{
closed = 1;
nodes = (
"444 -12 OFFCURVE",
"595 152 OFFCURVE",
"626 348 CURVE SMOOTH",
"629 369 OFFCURVE",
"631 390 OFFCURVE",
"631 410 CURVE SMOOTH",
"631 552 OFFCURVE",
"550 655 OFFCURVE",
"415 655 CURVE SMOOTH",
"255 655 OFFCURVE",
"95 501 OFFCURVE",
"62 297 CURVE SMOOTH",
"59 275 OFFCURVE",
"57 254 OFFCURVE",
"57 234 CURVE SMOOTH",
"57 91 OFFCURVE",
"137 -12 OFFCURVE",
"273 -12 CURVE SMOOTH"
);
},
{
closed = 1;
nodes = (
"171 16 OFFCURVE",
"98 101 OFFCURVE",
"98 249 CURVE SMOOTH",
"98 276 OFFCURVE",
"100 304 OFFCURVE",
"105 335 CURVE SMOOTH",
"132 510 OFFCURVE",
"259 626 OFFCURVE",
"380 626 CURVE SMOOTH",
"514 626 OFFCURVE",
"589 540 OFFCURVE",
"589 392 CURVE SMOOTH",
"589 366 OFFCURVE",
"587 338 OFFCURVE",
"582 308 CURVE SMOOTH",
"556 142 OFFCURVE",
"438 16 OFFCURVE",
"305 16 CURVE SMOOTH"
);
}
);
};
guideLines = (
{
angle = 45;
position = "{563, 328}";
}
);
layerId = "E1BF09ED-4302-4AD3-9939-8FDA35DE0FE8";
paths = (
{
closed = 1;
nodes = (
"452 -12 OFFCURVE",
"607 206 OFFCURVE",
"607 415 CURVE SMOOTH",
"607 554 OFFCURVE",
"533 655 OFFCURVE",
"410 655 CURVE SMOOTH",
"231 655 OFFCURVE",
"72 440 OFFCURVE",
"72 229 CURVE SMOOTH",
"72 89 OFFCURVE",
"145 -12 OFFCURVE",
"270 -12 CURVE SMOOTH"
);
},
{
closed = 1;
nodes = (
"179 16 OFFCURVE",
"113 99 OFFCURVE",
"113 243 CURVE SMOOTH",
"113 433 OFFCURVE",
"219 626 OFFCURVE",
"377 626 CURVE SMOOTH",
"497 626 OFFCURVE",
"566 542 OFFCURVE",
"566 397 CURVE SMOOTH",
"566 206 OFFCURVE",
"457 16 OFFCURVE",
"300 16 CURVE SMOOTH"
);
}
);
width = 647;
},
{
anchors = (
{
name = bottom;
position = "{278, 0}";
},
{
name = center;
position = "{329, 321}";
},
{
name = ogonek;
position = "{341, 0}";
},
{
name = top;
position = "{380, 641}";
},
{
name = topleft;
position = "{310, 641}";
},
{
name = topright;
position = "{487, 641}";
}
);
background = {
paths = (
{
closed = 1;
nodes = (
"448 -12 OFFCURVE",
"613 141 OFFCURVE",
"646 345 CURVE SMOOTH",
"675 529 OFFCURVE",
"578 655 OFFCURVE",
"406 655 CURVE SMOOTH",
"218 655 OFFCURVE",
"52 501 OFFCURVE",
"20 298 CURVE SMOOTH",
"-9 114 OFFCURVE",
"87 -12 OFFCURVE",
"260 -12 CURVE SMOOTH"
);
},
{
closed = 1;
nodes = (
"221 87 OFFCURVE",
"184 184 OFFCURVE",
"208 333 CURVE SMOOTH",
"230 472 OFFCURVE",
"288 556 OFFCURVE",
"366 556 CURVE SMOOTH",
"445 556 OFFCURVE",
"481 459 OFFCURVE",
"458 310 CURVE SMOOTH",
"436 171 OFFCURVE",
"377 87 OFFCURVE",
"300 87 CURVE SMOOTH"
);
}
);
};
layerId = "7B53E429-1BF0-49C5-9F57-63EEBF39C6CC";
paths = (
{
closed = 1;
nodes = (
"459 -12 OFFCURVE",
"628 191 OFFCURVE",
"628 413 CURVE SMOOTH",
"628 559 OFFCURVE",
"542 655 OFFCURVE",
"401 655 CURVE SMOOTH",
"200 655 OFFCURVE",
"30 453 OFFCURVE",
"30 230 CURVE SMOOTH",
"30 85 OFFCURVE",
"116 -12 OFFCURVE",
"257 -12 CURVE SMOOTH"
);
},
{
closed = 1;
nodes = (
"245 87 OFFCURVE",
"215 146 OFFCURVE",
"215 243 CURVE SMOOTH",
"215 377 OFFCURVE",
"262 556 OFFCURVE",
"362 556 CURVE SMOOTH",
"414 556 OFFCURVE",
"443 495 OFFCURVE",
"443 399 CURVE SMOOTH",
"443 261 OFFCURVE",
"393 87 OFFCURVE",
"296 87 CURVE SMOOTH"
);
}
);
width = 627;
},
{
anchors = (
{
name = bottom;
position = "{285, 0}";
},
{
name = center;
position = "{336, 321}";
},
{
name = ogonek;
position = "{344, 0}";
},
{
name = top;
position = "{387, 641}";
},
{
name = topleft;
position = "{324, 641}";
},
{
name = topright;
position = "{484, 641}";
}
);
layerId = "3EF2C2DE-A0EB-47A2-88E7-F2C629C295C3";
paths = (
{
closed = 1;
nodes = (
"454 -12 OFFCURVE",
"614 202 OFFCURVE",
"614 414 CURVE SMOOTH",
"614 556 OFFCURVE",
"536 655 OFFCURVE",
"407 655 CURVE SMOOTH",
"221 655 OFFCURVE",
"59 444 OFFCURVE",
"59 229 CURVE SMOOTH",
"59 88 OFFCURVE",
"135 -12 OFFCURVE",
"266 -12 CURVE SMOOTH"
);
},
{
closed = 1;
nodes = (
"200 39 OFFCURVE",
"146 114 OFFCURVE",
"146 243 CURVE SMOOTH",
"146 415 OFFCURVE",
"233 603 OFFCURVE",
"373 603 CURVE SMOOTH",
"470 603 OFFCURVE",
"526 527 OFFCURVE",
"526 398 CURVE SMOOTH",
"526 224 OFFCURVE",
"436 39 OFFCURVE",
"299 39 CURVE SMOOTH"
);
}
);
width = 640.30769;
}
);
leftKerningGroup = O;
rightKerningGroup = O;
unicode = 004F;
},
{
color = 4;
glyphname = P;
layers = (
{
anchors = (
{
name = bottom;
position = "{220, 0}";
},
{
name = top;
position = "{321, 641}";
}
);
background = {
paths = (
{
closed = 1;
nodes = (
"168 285 LINE",
"190 277 OFFCURVE",
"229 273 OFFCURVE",
"259 273 CURVE SMOOTH",
"405 273 OFFCURVE",
"502 376 OFFCURVE",
"517 475 CURVE SMOOTH",
"531 561 OFFCURVE",
"485 641 OFFCURVE",
"358 641 CURVE SMOOTH",
"156 641 LINE SMOOTH",
"144 641 OFFCURVE",
"140 637 OFFCURVE",
"138 623 CURVE",
"208 607 LINE",
"200 619 LINE",
"105 23 LINE",
"119 34 LINE",
"56 20 LINE SMOOTH",
"45 18 OFFCURVE",
"39 12 OFFCURVE",
"38 0 CURVE",
"189 0 LINE SMOOTH",
"202 0 OFFCURVE",
"206 4 OFFCURVE",
"208 18 CURVE",
"128 34 LINE",
"136 22 LINE",
"231 621 LINE",
"220 609 LINE",
"244 615 OFFCURVE",
"291 623 OFFCURVE",
"339 623 CURVE SMOOTH",
"438 623 OFFCURVE",
"493 561 OFFCURVE",
"476 457 CURVE SMOOTH",
"463 374 OFFCURVE",
"396 293 OFFCURVE",
"281 293 CURVE SMOOTH",
"236 293 OFFCURVE",
"190 298 OFFCURVE",
"172 307 CURVE"
);
}
);
};
layerId = "E1BF09ED-4302-4AD3-9939-8FDA35DE0FE8";
paths = (
{
closed = 1;
nodes = (
"168 285 LINE",
"188 278 OFFCURVE",
"231 273 OFFCURVE",
"265 273 CURVE SMOOTH",
"406 273 OFFCURVE",
"519 375 OFFCURVE",
"519 502 CURVE SMOOTH",
"519 588 OFFCURVE",
"458 641 OFFCURVE",
"358 641 CURVE SMOOTH",
"156 641 LINE SMOOTH",
"144 641 OFFCURVE",
"140 637 OFFCURVE",
"138 623 CURVE",
"208 607 LINE",
"200 619 LINE",
"105 23 LINE",
"119 34 LINE",
"56 20 LINE SMOOTH",
"44 17 OFFCURVE",
"39 11 OFFCURVE",
"38 0 CURVE",
"189 0 LINE SMOOTH",
"202 0 OFFCURVE",
"206 4 OFFCURVE",
"208 18 CURVE",
"128 34 LINE",
"136 22 LINE",
"231 621 LINE",
"220 609 LINE",
"252 617 OFFCURVE",
"301 623 OFFCURVE",
"333 623 CURVE SMOOTH",
"428 623 OFFCURVE",
"479 577 OFFCURVE",
"479 490 CURVE SMOOTH",
"479 373 OFFCURVE",
"393 290 OFFCURVE",
"272 290 CURVE SMOOTH",
"230 290 OFFCURVE",
"185 297 OFFCURVE",
"172 302 CURVE"
);
}
);
width = 527;
},
{
anchors = (
{
name = bottom;
position = "{271, 0}";
},
{
name = top;
position = "{363, 641}";
}
);
background = {
paths = (
{
closed = 1;
nodes = (
"247 242 LINE",
"281 229 OFFCURVE",
"315 223 OFFCURVE",
"346 223 CURVE SMOOTH",
"471 223 OFFCURVE",
"579 320 OFFCURVE",
"600 449 CURVE SMOOTH",
"618 566 OFFCURVE",
"553 641 OFFCURVE",
"435 641 CURVE SMOOTH",
"120 641 LINE",
"102 617 OFFCURVE",
"93 594 OFFCURVE",
"88 565 CURVE",
"169 541 LINE",
"152 566 LINE",
"74 70 LINE",
"97 96 LINE",
"24 69 LINE SMOOTH",
"14 65 OFFCURVE",
"5 39 OFFCURVE",
"-1 0 CURVE",
"292 0 LINE",
"309 25 OFFCURVE",
"317 46 OFFCURVE",
"322 76 CURVE",
"222 100 LINE",
"245 57 LINE",
"323 549 LINE",
"298 531 LINE",
"327 538 OFFCURVE",
"342 541 OFFCURVE",
"356 541 CURVE SMOOTH",
"410 541 OFFCURVE",
"430 510 OFFCURVE",
"419 442 CURVE SMOOTH",
"407 368 OFFCURVE",
"373 327 OFFCURVE",
"323 327 CURVE SMOOTH",
"304 327 OFFCURVE",
"280 333 OFFCURVE",
"266 340 CURVE"
);
}
);
};
layerId = "7B53E429-1BF0-49C5-9F57-63EEBF39C6CC";
paths = (
{
closed = 1;
nodes = (
"247 242 LINE",
"280 230 OFFCURVE",
"314 223 OFFCURVE",
"346 223 CURVE SMOOTH",
"494 223 OFFCURVE",
"603 334 OFFCURVE",
"603 483 CURVE SMOOTH",
"603 582 OFFCURVE",
"541 641 OFFCURVE",
"435 641 CURVE SMOOTH",
"120 641 LINE",
"103 618 OFFCURVE",
"93 595 OFFCURVE",
"88 565 CURVE",
"169 541 LINE",
"152 566 LINE",
"74 70 LINE",
"97 96 LINE",
"24 69 LINE SMOOTH",
"15 65 OFFCURVE",
"4 37 OFFCURVE",
"-1 0 CURVE",
"292 0 LINE",
"309 24 OFFCURVE",
"317 45 OFFCURVE",
"322 76 CURVE",
"222 100 LINE",
"245 57 LINE",
"323 549 LINE",
"298 531 LINE",
"330 539 OFFCURVE",
"343 541 OFFCURVE",
"356 541 CURVE SMOOTH",
"402 541 OFFCURVE",
"422 519 OFFCURVE",
"422 470 CURVE SMOOTH",
"422 386 OFFCURVE",
"381 327 OFFCURVE",
"323 327 CURVE SMOOTH",
"305 327 OFFCURVE",
"281 333 OFFCURVE",
"266 340 CURVE"
);
}
);
width = 618;
},
{
anchors = (
{
name = bottom;
position = "{236, 0}";
},
{
name = top;
position = "{334, 641}";
}
);
layerId = "3EF2C2DE-A0EB-47A2-88E7-F2C629C295C3";
paths = (
{
closed = 1;
nodes = (
"194 271 LINE",
"218 263 OFFCURVE",
"258 257 OFFCURVE",
"291 257 CURVE SMOOTH",
"434 257 OFFCURVE",
"546 362 OFFCURVE",
"546 496 CURVE SMOOTH",
"546 586 OFFCURVE",
"485 641 OFFCURVE",
"383 641 CURVE SMOOTH",
"144 641 LINE SMOOTH",
"131 633 OFFCURVE",
"125 624 OFFCURVE",
"122 603 CURVE",
"196 586 LINE",
"185 602 LINE",
"95 38 LINE",
"112 54 LINE",
"45 36 LINE SMOOTH",
"34 32 OFFCURVE",
"27 20 OFFCURVE",
"26 0 CURVE",
"223 0 LINE SMOOTH",
"237 8 OFFCURVE",
"242 17 OFFCURVE",
"245 38 CURVE",
"159 55 LINE",
"172 34 LINE",
"261 598 LINE",
"245 584 LINE",
"277 592 OFFCURVE",
"314 596 OFFCURVE",
"341 596 CURVE SMOOTH",
"419 596 OFFCURVE",
"461 557 OFFCURVE",
"461 483 CURVE SMOOTH",
"461 377 OFFCURVE",
"389 302 OFFCURVE",
"288 302 CURVE SMOOTH",
"254 302 OFFCURVE",
"216 309 OFFCURVE",
"203 314 CURVE"
);
}
);
width = 557;
}
);
leftKerningGroup = H;
leftMetricsKey = H;
rightKerningGroup = P;
unicode = 0050;
},
{
color = 4;
glyphname = Thorn;
layers = (
{
components = (
{
name = I;
}
);
layerId = "E1BF09ED-4302-4AD3-9939-8FDA35DE0FE8";
paths = (
{
closed = 1;
nodes = (
"198 479 LINE",
"230 487 OFFCURVE",
"279 493 OFFCURVE",
"311 493 CURVE SMOOTH",
"406 493 OFFCURVE",
"457 447 OFFCURVE",
"457 360 CURVE SMOOTH",
"457 243 OFFCURVE",
"371 160 OFFCURVE",
"250 160 CURVE SMOOTH",
"208 160 OFFCURVE",
"163 167 OFFCURVE",
"150 172 CURVE",
"146 155 LINE",
"166 148 OFFCURVE",
"209 143 OFFCURVE",
"243 143 CURVE SMOOTH",
"384 143 OFFCURVE",
"497 245 OFFCURVE",
"497 372 CURVE SMOOTH",
"497 458 OFFCURVE",
"436 511 OFFCURVE",
"336 511 CURVE SMOOTH",
"202 511 LINE"
);
}
);
width = 526;
},
{
components = (
{
name = I;
}
);
layerId = "7B53E429-1BF0-49C5-9F57-63EEBF39C6CC";
paths = (
{
closed = 1;
nodes = (
"273 424 LINE",
"305 432 OFFCURVE",
"318 434 OFFCURVE",
"331 434 CURVE SMOOTH",
"377 434 OFFCURVE",
"397 412 OFFCURVE",
"397 363 CURVE SMOOTH",
"397 279 OFFCURVE",
"356 220 OFFCURVE",
"298 220 CURVE SMOOTH",
"280 220 OFFCURVE",
"256 226 OFFCURVE",
"241 233 CURVE",
"222 135 LINE",
"255 123 OFFCURVE",
"289 116 OFFCURVE",
"321 116 CURVE SMOOTH",
"469 116 OFFCURVE",
"578 227 OFFCURVE",
"578 376 CURVE SMOOTH",
"578 475 OFFCURVE",
"516 534 OFFCURVE",
"410 534 CURVE SMOOTH",
"290 534 LINE"
);
}
);
width = 610;
},
{
components = (
{
alignment = -1;
name = I;
}
);
layerId = "3EF2C2DE-A0EB-47A2-88E7-F2C629C295C3";
paths = (
{
closed = 1;
nodes = (
"215 463 LINE",
"247 471 OFFCURVE",
"284 475 OFFCURVE",
"311 475 CURVE SMOOTH",
"390 475 OFFCURVE",
"431 437 OFFCURVE",
"431 363 CURVE SMOOTH",
"431 256 OFFCURVE",
"360 182 OFFCURVE",
"259 182 CURVE SMOOTH",
"224 182 OFFCURVE",
"186 188 OFFCURVE",
"173 194 CURVE",
"164 150 LINE",
"188 142 OFFCURVE",
"228 136 OFFCURVE",
"261 136 CURVE SMOOTH",
"405 136 OFFCURVE",
"516 240 OFFCURVE",
"516 376 CURVE SMOOTH",
"516 465 OFFCURVE",
"455 521 OFFCURVE",
"353 521 CURVE SMOOTH",
"224 521 LINE"
);
}
);
width = 546.15385;
}
);
leftKerningGroup = H;
leftMetricsKey = H;
rightKerningGroup = P;
rightMetricsKey = P;
unicode = 00DE;
},
{
color = 4;
glyphname = Q;
layers = (
{
components = (
{
name = O;
}
);
layerId = "E1BF09ED-4302-4AD3-9939-8FDA35DE0FE8";
paths = (
{
closed = 1;
nodes = (
"514 -166 OFFCURVE",
"536 -151 OFFCURVE",
"551 -121 CURVE",
"465 -121 OFFCURVE",
"342 -61 OFFCURVE",
"282 10 CURVE",
"272 -7 LINE",
"335 -98 OFFCURVE",
"427 -166 OFFCURVE",
"488 -166 CURVE SMOOTH"
);
}
);
width = 647;
},
{
components = (
{
name = O;
}
);
layerId = "7B53E429-1BF0-49C5-9F57-63EEBF39C6CC";
paths = (
{
closed = 1;
nodes = (
"481 -207 OFFCURVE",
"543 -157 OFFCURVE",
"579 -73 CURVE",
"489 -73 OFFCURVE",
"376 -12 OFFCURVE",
"267 64 CURVE",
"217 14 LINE",
"314 -163 OFFCURVE",
"377 -207 OFFCURVE",
"427 -207 CURVE SMOOTH"
);
}
);
width = 627;
},
{
components = (
{
alignment = -1;
name = O;
}
);
layerId = "3EF2C2DE-A0EB-47A2-88E7-F2C629C295C3";
paths = (
{
closed = 1;
nodes = (
"511 -181 OFFCURVE",
"551 -153 OFFCURVE",
"572 -106 CURVE",
"486 -106 OFFCURVE",
"377 -49 OFFCURVE",
"280 27 CURVE",
"255 2 LINE",
"356 -126 OFFCURVE",
"422 -181 OFFCURVE",
"475 -181 CURVE SMOOTH"
);
}
);
width = 647.92308;
}
);
leftKerningGroup = O;
leftMetricsKey = O;
rightKerningGroup = Q;
unicode = 0051;
},
{
color = 4;
glyphname = R;
layers = (
{
anchors = (
{
name = bottom;
position = "{276, 0}";
},
{
name = top;
position = "{332, 641}";
}
);
background = {
paths = (
{
closed = 1;
nodes = (
"189 0 LINE SMOOTH",
"202 0 OFFCURVE",
"206 4 OFFCURVE",
"208 18 CURVE",
"128 34 LINE",
"136 22 LINE",
"181 307 LINE",
"172 307 LINE",
"194 299 OFFCURVE",
"232 295 OFFCURVE",
"263 295 CURVE SMOOTH",
"403 295 OFFCURVE",
"495 391 OFFCURVE",
"510 485 CURVE SMOOTH",
"522 565 OFFCURVE",
"479 641 OFFCURVE",
"358 641 CURVE SMOOTH",
"156 641 LINE SMOOTH",
"144 641 OFFCURVE",
"140 637 OFFCURVE",
"138 623 CURVE",
"208 607 LINE",
"200 619 LINE",
"105 23 LINE",
"119 34 LINE",
"56 20 LINE SMOOTH",
"45 18 OFFCURVE",
"39 12 OFFCURVE",
"38 0 CURVE"
);
},
{
closed = 1;
nodes = (
"231 621 LINE",
"220 609 LINE",
"244 615 OFFCURVE",
"291 623 OFFCURVE",
"339 623 CURVE SMOOTH",
"433 623 OFFCURVE",
"484 565 OFFCURVE",
"469 468 CURVE SMOOTH",
"457 391 OFFCURVE",
"393 315 OFFCURVE",
"285 315 CURVE SMOOTH",
"240 315 OFFCURVE",
"193 320 OFFCURVE",
"175 329 CURVE",
"182 315 LINE"
);
},
{
closed = 1;
nodes = (
"513 -10 OFFCURVE",
"523 2 OFFCURVE",
"525 11 CURVE",
"475 32 OFFCURVE",
"391 157 OFFCURVE",
"322 313 CURVE",
"301 303 LINE",
"362 140 OFFCURVE",
"460 -10 OFFCURVE",
"498 -10 CURVE SMOOTH"
);
}
);
};
guideLines = (
{
angle = 101.5442;
position = "{440, 11}";
}
);
layerId = "E1BF09ED-4302-4AD3-9939-8FDA35DE0FE8";
paths = (
{
closed = 1;
nodes = (
"517 -10 OFFCURVE",
"530 2 OFFCURVE",
"535 11 CURVE",
"448 47 OFFCURVE",
"352 198 OFFCURVE",
"326 313 CURVE",
"301 303 LINE",
"347 140 OFFCURVE",
"445 -10 OFFCURVE",
"498 -10 CURVE SMOOTH"
);
},
{
closed = 1;
nodes = (
"168 309 LINE",
"188 302 OFFCURVE",
"231 297 OFFCURVE",
"265 297 CURVE SMOOTH",
"400 297 OFFCURVE",
"509 388 OFFCURVE",
"509 502 CURVE SMOOTH",
"509 588 OFFCURVE",
"452 641 OFFCURVE",
"358 641 CURVE SMOOTH",
"156 641 LINE SMOOTH",
"144 641 OFFCURVE",
"140 637 OFFCURVE",
"138 623 CURVE",
"208 607 LINE",
"200 619 LINE",
"105 23 LINE",
"119 34 LINE",
"56 20 LINE SMOOTH",
"44 17 OFFCURVE",
"39 11 OFFCURVE",
"38 0 CURVE",
"189 0 LINE SMOOTH",
"202 0 OFFCURVE",
"206 4 OFFCURVE",
"208 18 CURVE",
"128 34 LINE",
"136 22 LINE",
"231 621 LINE",
"220 609 LINE",
"252 617 OFFCURVE",
"301 623 OFFCURVE",
"333 623 CURVE SMOOTH",
"421 623 OFFCURVE",
"469 577 OFFCURVE",
"469 490 CURVE SMOOTH",
"469 387 OFFCURVE",
"387 314 OFFCURVE",
"272 314 CURVE SMOOTH",
"230 314 OFFCURVE",
"185 321 OFFCURVE",
"172 326 CURVE"
);
}
);
width = 590;
},
{
anchors = (
{
name = bottom;
position = "{283, 0}";
},
{
name = top;
position = "{350, 641}";
}
);
background = {
paths = (
{
closed = 1;
nodes = (
"282 0 LINE",
"300 25 OFFCURVE",
"308 46 OFFCURVE",
"313 76 CURVE",
"213 100 LINE",
"245 57 LINE",
"277 262 LINE",
"250 262 LINE",
"284 249 OFFCURVE",
"318 243 OFFCURVE",
"350 243 CURVE SMOOTH",
"474 243 OFFCURVE",
"582 336 OFFCURVE",
"601 459 CURVE SMOOTH",
"619 570 OFFCURVE",
"553 641 OFFCURVE",
"435 641 CURVE SMOOTH",
"120 641 LINE",
"102 617 OFFCURVE",
"93 594 OFFCURVE",
"88 565 CURVE",
"169 541 LINE",
"152 566 LINE",
"74 70 LINE",
"97 96 LINE",
"24 69 LINE SMOOTH",
"14 65 OFFCURVE",
"5 39 OFFCURVE",
"-1 0 CURVE"
);
},
{
closed = 1;
nodes = (
"323 549 LINE",
"298 531 LINE",
"327 538 OFFCURVE",
"342 541 OFFCURVE",
"356 541 CURVE SMOOTH",
"410 541 OFFCURVE",
"431 514 OFFCURVE",
"421 452 CURVE SMOOTH",
"410 384 OFFCURVE",
"376 347 OFFCURVE",
"326 347 CURVE SMOOTH",
"307 347 OFFCURVE",
"283 353 OFFCURVE",
"269 360 CURVE",
"289 335 LINE"
);
},
{
closed = 1;
nodes = (
"521 -12 OFFCURVE",
"569 5 OFFCURVE",
"615 33 CURVE",
"554 93 OFFCURVE",
"502 207 OFFCURVE",
"473 337 CURVE",
"330 293 LINE",
"352 28 OFFCURVE",
"398 -12 OFFCURVE",
"485 -12 CURVE SMOOTH"
);
}
);
};
guideLines = (
{
angle = 101.5442;
position = "{582, 459}";
}
);
layerId = "7B53E429-1BF0-49C5-9F57-63EEBF39C6CC";
paths = (
{
closed = 1;
nodes = (
"521 -12 OFFCURVE",
"569 5 OFFCURVE",
"615 33 CURVE",
"554 93 OFFCURVE",
"502 207 OFFCURVE",
"473 337 CURVE",
"330 293 LINE",
"352 28 OFFCURVE",
"398 -12 OFFCURVE",
"485 -12 CURVE SMOOTH"
);
},
{
closed = 1;
nodes = (
"247 262 LINE",
"280 250 OFFCURVE",
"314 243 OFFCURVE",
"346 243 CURVE SMOOTH",
"494 243 OFFCURVE",
"603 345 OFFCURVE",
"603 483 CURVE SMOOTH",
"603 582 OFFCURVE",
"541 641 OFFCURVE",
"435 641 CURVE SMOOTH",
"120 641 LINE",
"103 618 OFFCURVE",
"93 595 OFFCURVE",
"88 565 CURVE",
"169 541 LINE",
"152 566 LINE",
"74 70 LINE",
"97 96 LINE",
"24 69 LINE SMOOTH",
"15 65 OFFCURVE",
"4 37 OFFCURVE",
"-1 0 CURVE",
"292 0 LINE",
"309 24 OFFCURVE",
"317 45 OFFCURVE",
"322 76 CURVE",
"222 100 LINE",
"245 57 LINE",
"323 549 LINE",
"298 531 LINE",
"330 539 OFFCURVE",
"343 541 OFFCURVE",
"356 541 CURVE SMOOTH",
"402 541 OFFCURVE",
"422 519 OFFCURVE",
"422 470 CURVE SMOOTH",
"422 398 OFFCURVE",
"381 347 OFFCURVE",
"323 347 CURVE SMOOTH",
"305 347 OFFCURVE",
"281 353 OFFCURVE",
"266 360 CURVE"
);
}
);
width = 655;
},
{
anchors = (
{
name = bottom;
position = "{284, 0}";
},
{
name = top;
position = "{338, 641}";
}
);
layerId = "3EF2C2DE-A0EB-47A2-88E7-F2C629C295C3";
paths = (
{
closed = 1;
nodes = (
"522 -11 OFFCURVE",
"547 3 OFFCURVE",
"561 18 CURVE",
"483 62 OFFCURVE",
"401 201 OFFCURVE",
"374 321 CURVE",
"311 300 LINE",
"349 104 OFFCURVE",
"430 -11 OFFCURVE",
"494 -11 CURVE SMOOTH"
);
},
{
closed = 1;
nodes = (
"194 294 LINE",
"218 285 OFFCURVE",
"258 280 OFFCURVE",
"291 280 CURVE SMOOTH",
"431 280 OFFCURVE",
"540 374 OFFCURVE",
"540 496 CURVE SMOOTH",
"540 586 OFFCURVE",
"480 641 OFFCURVE",
"383 641 CURVE SMOOTH",
"144 641 LINE SMOOTH",
"131 633 OFFCURVE",
"125 624 OFFCURVE",
"122 603 CURVE",
"196 586 LINE",
"185 602 LINE",
"95 38 LINE",
"112 54 LINE",
"45 36 LINE SMOOTH",
"34 32 OFFCURVE",
"27 20 OFFCURVE",
"26 0 CURVE",
"223 0 LINE SMOOTH",
"237 8 OFFCURVE",
"242 17 OFFCURVE",
"245 38 CURVE",
"159 55 LINE",
"172 34 LINE",
"261 598 LINE",
"245 584 LINE",
"277 592 OFFCURVE",
"314 596 OFFCURVE",
"341 596 CURVE SMOOTH",
"416 596 OFFCURVE",
"454 557 OFFCURVE",
"454 483 CURVE SMOOTH",
"454 391 OFFCURVE",
"385 325 OFFCURVE",
"288 325 CURVE SMOOTH",
"254 325 OFFCURVE",
"216 332 OFFCURVE",
"203 337 CURVE"
);
}
);
width = 611;
}
);
leftKerningGroup = H;
leftMetricsKey = H;
rightKerningGroup = R;
rightMetricsKey = "=H*.3";
unicode = 0052;
},
{
color = 4;
glyphname = S;
layers = (
{
anchors = (
{
name = bottom;
position = "{193, 0}";
},
{
name = top;
position = "{294, 641}";
}
);
background = {
paths = (
{
closed = 1;
nodes = (
"298 -12 OFFCURVE",
"384 62 OFFCURVE",
"401 169 CURVE SMOOTH",
"414 248 OFFCURVE",
"381 294 OFFCURVE",
"274 347 CURVE SMOOTH",
"161 403 OFFCURVE",
"131 441 OFFCURVE",
"142 512 CURVE SMOOTH",
"154 587 OFFCURVE",
"212 637 OFFCURVE",
"289 637 CURVE SMOOTH",
"338 637 OFFCURVE",
"389 617 OFFCURVE",
"414 588 CURVE",
"407 611 LINE",
"400 519 LINE SMOOTH",
"399 511 OFFCURVE",
"406 504 OFFCURVE",
"415 504 CURVE",
"445 614 LINE",
"389 642 OFFCURVE",
"340 655 OFFCURVE",
"298 655 CURVE SMOOTH",
"201 655 OFFCURVE",
"127 592 OFFCURVE",
"112 497 CURVE SMOOTH",
"99 418 OFFCURVE",
"132 373 OFFCURVE",
"240 318 CURVE SMOOTH",
"347 264 OFFCURVE",
"376 227 OFFCURVE",
"365 156 CURVE SMOOTH",
"351 69 OFFCURVE",
"281 7 OFFCURVE",
"199 7 CURVE SMOOTH",
"148 7 OFFCURVE",
"79 30 OFFCURVE",
"45 58 CURVE",
"52 17 LINE",
"70 159 LINE",
"68 161 OFFCURVE",
"62 162 OFFCURVE",
"59 162 CURVE SMOOTH",
"52 162 OFFCURVE",
"49 158 OFFCURVE",
"44 147 CURVE",
"17 35 LINE",
"71 7 OFFCURVE",
"143 -12 OFFCURVE",
"190 -12 CURVE SMOOTH"
);
}
);
};
guideLines = (
{
angle = 22.0679;
position = "{386, 176}";
}
);
layerId = "E1BF09ED-4302-4AD3-9939-8FDA35DE0FE8";
paths = (
{
closed = 1;
nodes = (
"308 -12 OFFCURVE",
"404 77 OFFCURVE",
"404 183 CURVE SMOOTH",
"404 249 OFFCURVE",
"370 292 OFFCURVE",
"273 346 CURVE SMOOTH",
"162 409 OFFCURVE",
"140 432 OFFCURVE",
"140 488 CURVE SMOOTH",
"140 575 OFFCURVE",
"203 637 OFFCURVE",
"289 637 CURVE SMOOTH",
"338 637 OFFCURVE",
"389 617 OFFCURVE",
"414 588 CURVE",
"407 611 LINE",
"400 519 LINE SMOOTH",
"399 511 OFFCURVE",
"407 504 OFFCURVE",
"415 504 CURVE",
"445 614 LINE",
"391 641 OFFCURVE",
"341 655 OFFCURVE",
"298 655 CURVE SMOOTH",
"192 655 OFFCURVE",
"109 574 OFFCURVE",
"109 469 CURVE SMOOTH",
"109 407 OFFCURVE",
"133 379 OFFCURVE",
"240 317 CURVE SMOOTH",
"337 261 OFFCURVE",
"367 226 OFFCURVE",
"367 168 CURVE SMOOTH",
"367 81 OFFCURVE",
"290 7 OFFCURVE",
"199 7 CURVE SMOOTH",
"148 7 OFFCURVE",
"79 30 OFFCURVE",
"45 58 CURVE",
"54 31 LINE",
"70 159 LINE",
"68 161 OFFCURVE",
"63 162 OFFCURVE",
"59 162 CURVE SMOOTH",
"52 162 OFFCURVE",
"49 159 OFFCURVE",
"44 147 CURVE",
"17 35 LINE",
"71 7 OFFCURVE",
"142 -12 OFFCURVE",
"194 -12 CURVE SMOOTH"
);
}
);
width = 486;
},
{
anchors = (
{
name = bottom;
position = "{222, 0}";
},
{
name = top;
position = "{323, 641}";
}
);
background = {
paths = (
{
closed = 1;
nodes = (
"362 -12 OFFCURVE",
"457 61 OFFCURVE",
"477 184 CURVE SMOOTH",
"493 284 OFFCURVE",
"458 339 OFFCURVE",
"332 407 CURVE SMOOTH",
"249 453 OFFCURVE",
"232 469 OFFCURVE",
"237 501 CURVE SMOOTH",
"243 537 OFFCURVE",
"275 558 OFFCURVE",
"323 558 CURVE SMOOTH",
"375 558 OFFCURVE",
"417 537 OFFCURVE",
"432 503 CURVE",
"408 570 LINE",
"407 455 LINE SMOOTH",
"407 442 OFFCURVE",
"432 434 OFFCURVE",
"472 434 CURVE",
"517 604 LINE",
"475 634 OFFCURVE",
"397 655 OFFCURVE",
"330 655 CURVE SMOOTH",
"203 655 OFFCURVE",
"111 583 OFFCURVE",
"93 470 CURVE SMOOTH",
"77 367 OFFCURVE",
"110 309 OFFCURVE",
"220 248 CURVE SMOOTH",
"312 199 OFFCURVE",
"326 183 OFFCURVE",
"320 145 CURVE SMOOTH",
"314 110 OFFCURVE",
"277 85 OFFCURVE",
"231 85 CURVE SMOOTH",
"183 85 OFFCURVE",
"141 104 OFFCURVE",
"112 140 CURVE",
"130 106 LINE",
"138 237 LINE",
"132 240 OFFCURVE",
"123 241 OFFCURVE",
"112 241 CURVE SMOOTH",
"94 241 OFFCURVE",
"74 236 OFFCURVE",
"62 229 CURVE",
"0 45 LINE",
"52 12 OFFCURVE",
"145 -12 OFFCURVE",
"222 -12 CURVE SMOOTH"
);
}
);
};
guideLines = (
{
angle = 154.9037;
position = "{322, 407}";
},
{
angle = 22.0679;
position = "{321, 158}";
},
{
angle = 153.189;
position = "{332, 407}";
}
);
layerId = "7B53E429-1BF0-49C5-9F57-63EEBF39C6CC";
paths = (
{
closed = 1;
nodes = (
"374 -12 OFFCURVE",
"481 83 OFFCURVE",
"481 218 CURVE SMOOTH",
"481 303 OFFCURVE",
"443 351 OFFCURVE",
"332 407 CURVE SMOOTH",
"250 448 OFFCURVE",
"236 461 OFFCURVE",
"236 497 CURVE SMOOTH",
"236 535 OFFCURVE",
"269 558 OFFCURVE",
"324 558 CURVE SMOOTH",
"375 558 OFFCURVE",
"417 537 OFFCURVE",
"432 503 CURVE",
"408 570 LINE",
"407 455 LINE SMOOTH",
"407 442 OFFCURVE",
"432 434 OFFCURVE",
"472 434 CURVE",
"517 604 LINE",
"475 634 OFFCURVE",
"397 655 OFFCURVE",
"330 655 CURVE SMOOTH",
"187 655 OFFCURVE",
"89 562 OFFCURVE",
"89 428 CURVE SMOOTH",
"89 345 OFFCURVE",
"124 297 OFFCURVE",
"220 248 CURVE SMOOTH",
"309 203 OFFCURVE",
"321 193 OFFCURVE",
"321 160 CURVE SMOOTH",
"321 116 OFFCURVE",
"283 85 OFFCURVE",
"228 85 CURVE SMOOTH",
"183 85 OFFCURVE",
"140 105 OFFCURVE",
"112 140 CURVE",
"130 106 LINE",
"138 237 LINE",
"134 240 OFFCURVE",
"126 241 OFFCURVE",
"114 241 CURVE SMOOTH",
"95 241 OFFCURVE",
"74 236 OFFCURVE",
"62 229 CURVE",
"0 45 LINE",
"52 12 OFFCURVE",
"145 -12 OFFCURVE",
"222 -12 CURVE SMOOTH"
);
}
);
width = 545;
},
{
anchors = (
{
name = bottom;
position = "{203, 0}";
},
{
name = top;
position = "{304, 641}";
}
);
layerId = "3EF2C2DE-A0EB-47A2-88E7-F2C629C295C3";
paths = (
{
closed = 1;
nodes = (
"329 -12 OFFCURVE",
"429 79 OFFCURVE",
"429 195 CURVE SMOOTH",
"429 266 OFFCURVE",
"394 312 OFFCURVE",
"293 366 CURVE SMOOTH",
"190 421 OFFCURVE",
"171 442 OFFCURVE",
"171 491 CURVE SMOOTH",
"171 562 OFFCURVE",
"224 611 OFFCURVE",
"301 611 CURVE SMOOTH",
"350 611 OFFCURVE",
"398 591 OFFCURVE",
"420 560 CURVE",
"407 598 LINE",
"402 498 LINE SMOOTH",
"402 489 OFFCURVE",
"415 481 OFFCURVE",
"434 481 CURVE",
"468 611 LINE",
"418 639 OFFCURVE",
"360 655 OFFCURVE",
"309 655 CURVE SMOOTH",
"190 655 OFFCURVE",
"102 570 OFFCURVE",
"102 456 CURVE SMOOTH",
"102 387 OFFCURVE",
"130 352 OFFCURVE",
"233 295 CURVE SMOOTH",
"328 241 OFFCURVE",
"352 215 OFFCURVE",
"352 165 CURVE SMOOTH",
"352 93 OFFCURVE",
"288 32 OFFCURVE",
"209 32 CURVE SMOOTH",
"160 32 OFFCURVE",
"99 54 OFFCURVE",
"67 85 CURVE",
"79 55 LINE",
"92 184 LINE",
"89 187 OFFCURVE",
"83 188 OFFCURVE",
"77 188 CURVE SMOOTH",
"66 188 OFFCURVE",
"57 184 OFFCURVE",
"50 174 CURVE",
"12 38 LINE",
"65 9 OFFCURVE",
"143 -12 OFFCURVE",
"203 -12 CURVE SMOOTH"
);
}
);
width = 505.19231;
}
);
leftKerningGroup = S;
rightKerningGroup = S;
unicode = 0053;
},
{
color = 4;
glyphname = Germandbls;
layers = (
{
layerId = "E1BF09ED-4302-4AD3-9939-8FDA35DE0FE8";
paths = (
{
closed = 1;
nodes = (
"467 -12 OFFCURVE",
"537 44 OFFCURVE",
"549 121 CURVE SMOOTH",
"559 182 OFFCURVE",
"530 219 OFFCURVE",
"440 260 CURVE SMOOTH",
"371 292 OFFCURVE",
"351 318 OFFCURVE",
"358 364 CURVE",
"547 501 LINE",
"561 589 OFFCURVE",
"506 655 OFFCURVE",
"417 655 CURVE SMOOTH",
"294 655 OFFCURVE",
"205 573 OFFCURVE",
"184 437 CURVE",
"193 445 LINE",
"117 443 LINE",
"109 437 OFFCURVE",
"107 432 OFFCURVE",
"105 421 CURVE",
"188 420 LINE",
"182 427 LINE",
"118 22 LINE",
"130 34 LINE",
"75 20 LINE SMOOTH",
"63 17 OFFCURVE",
"59 11 OFFCURVE",
"57 0 CURVE",
"146 0 LINE",
"207 389 LINE SMOOTH",
"234 559 OFFCURVE",
"295 632 OFFCURVE",
"406 632 CURVE SMOOTH",
"483 632 OFFCURVE",
"526 581 OFFCURVE",
"513 501 CURVE",
"324 351 LINE",
"316 300 OFFCURVE",
"346 262 OFFCURVE",
"418 230 CURVE SMOOTH",
"500 194 OFFCURVE",
"524 164 OFFCURVE",
"514 106 CURVE SMOOTH",
"504 42 OFFCURVE",
"459 4 OFFCURVE",
"393 4 CURVE SMOOTH",
"327 4 OFFCURVE",
"298 43 OFFCURVE",
"310 116 CURVE",
"306 124 OFFCURVE",
"300 128 OFFCURVE",
"292 128 CURVE SMOOTH",
"279 128 OFFCURVE",
"269 115 OFFCURVE",
"265 94 CURVE SMOOTH",
"256 34 OFFCURVE",
"308 -12 OFFCURVE",
"383 -12 CURVE SMOOTH"
);
}
);
width = 633;
},
{
background = {
paths = (
{
closed = 0;
nodes = (
"409 723 LINE SMOOTH"
);
}
);
};
guideLines = (
{
angle = 76.6755;
position = "{467, 617}";
}
);
layerId = "7B53E429-1BF0-49C5-9F57-63EEBF39C6CC";
paths = (
{
closed = 1;
nodes = (
"571 -12 OFFCURVE",
"662 46 OFFCURVE",
"677 144 CURVE SMOOTH",
"689 218 OFFCURVE",
"652 261 OFFCURVE",
"546 301 CURVE SMOOTH",
"468 330 OFFCURVE",
"453 342 OFFCURVE",
"457 367 CURVE",
"642 496 LINE",
"657 592 OFFCURVE",
"581 655 OFFCURVE",
"449 655 CURVE SMOOTH",
"286 655 OFFCURVE",
"145 554 OFFCURVE",
"123 418 CURVE",
"159 446 LINE",
"90 442 LINE",
"77 434 OFFCURVE",
"63 399 OFFCURVE",
"58 362 CURVE",
"139 359 LINE",
"118 385 LINE",
"70 80 LINE",
"83 97 LINE",
"25 69 LINE SMOOTH",
"14 64 OFFCURVE",
"6 42 OFFCURVE",
"-1 0 CURVE",
"230 0 LINE",
"288 363 LINE SMOOTH",
"313 524 OFFCURVE",
"347 579 OFFCURVE",
"420 579 CURVE SMOOTH",
"471 579 OFFCURVE",
"494 542 OFFCURVE",
"484 478 CURVE",
"312 313 LINE",
"301 240 OFFCURVE",
"335 197 OFFCURVE",
"437 157 CURVE SMOOTH",
"512 128 OFFCURVE",
"527 116 OFFCURVE",
"523 91 CURVE SMOOTH",
"519 67 OFFCURVE",
"494 49 OFFCURVE",
"464 49 CURVE SMOOTH",
"418 49 OFFCURVE",
"403 77 OFFCURVE",
"414 144 CURVE",
"400 156 OFFCURVE",
"376 164 OFFCURVE",
"353 164 CURVE SMOOTH",
"309 164 OFFCURVE",
"275 137 OFFCURVE",
"269 97 CURVE SMOOTH",
"259 33 OFFCURVE",
"328 -12 OFFCURVE",
"436 -12 CURVE SMOOTH"
);
}
);
width = 712;
},
{
layerId = "3EF2C2DE-A0EB-47A2-88E7-F2C629C295C3";
paths = (
{
closed = 1;
nodes = (
"500 -12 OFFCURVE",
"576 45 OFFCURVE",
"590 129 CURVE SMOOTH",
"601 194 OFFCURVE",
"568 232 OFFCURVE",
"474 273 CURVE SMOOTH",
"402 304 OFFCURVE",
"383 326 OFFCURVE",
"389 365 CURVE",
"577 499 LINE",
"591 590 OFFCURVE",
"529 655 OFFCURVE",
"427 655 CURVE SMOOTH",
"290 655 OFFCURVE",
"185 567 OFFCURVE",
"163 431 CURVE",
"181 445 LINE",
"107 443 LINE",
"97 436 OFFCURVE",
"92 421 OFFCURVE",
"89 401 CURVE",
"171 400 LINE",
"160 414 LINE",
"102 42 LINE",
"114 54 LINE",
"58 36 LINE SMOOTH",
"46 32 OFFCURVE",
"41 21 OFFCURVE",
"37 0 CURVE",
"172 0 LINE",
"232 380 LINE SMOOTH",
"259 547 OFFCURVE",
"311 615 OFFCURVE",
"410 615 CURVE SMOOTH",
"479 615 OFFCURVE",
"514 569 OFFCURVE",
"502 493 CURVE",
"320 339 LINE",
"311 280 OFFCURVE",
"342 241 OFFCURVE",
"423 206 CURVE SMOOTH",
"503 173 OFFCURVE",
"524 149 OFFCURVE",
"516 102 CURVE SMOOTH",
"508 50 OFFCURVE",
"470 18 OFFCURVE",
"415 18 CURVE SMOOTH",
"356 18 OFFCURVE",
"331 54 OFFCURVE",
"343 125 CURVE",
"336 135 OFFCURVE",
"324 140 OFFCURVE",
"312 140 CURVE SMOOTH",
"288 140 OFFCURVE",
"270 122 OFFCURVE",
"265 95 CURVE SMOOTH",
"256 34 OFFCURVE",
"314 -12 OFFCURVE",
"399 -12 CURVE SMOOTH"
);
}
);
width = 651.42308;
}
);
leftKerningGroup = Germandbls;
leftMetricsKey = H;
rightKerningGroup = Germandbls;
rightMetricsKey = s;
unicode = 1E9E;
},
{
color = 4;
glyphname = Schwa;
layers = (
{
background = {
paths = (
{
closed = 1;
nodes = (
"290 655 OFFCURVE",
"198 604 OFFCURVE",
"118 509 CURVE",
"129 494 LINE",
"201 578 OFFCURVE",
"277 623 OFFCURVE",
"350 623 CURVE SMOOTH",
"483 623 OFFCURVE",
"537 515 OFFCURVE",
"506 318 CURVE SMOOTH",
"473 110 OFFCURVE",
"392 12 OFFCURVE",
"248 12 CURVE SMOOTH",
"137 12 OFFCURVE",
"76 112 OFFCURVE",
"103 247 CURVE",
"88 239 LINE",
"508 248 LINE",
"511 265 LINE",
"91 265 LINE SMOOTH",
"79 265 OFFCURVE",
"69 246 OFFCURVE",
"64 217 CURVE SMOOTH",
"45 93 OFFCURVE",
"122 -12 OFFCURVE",
"233 -12 CURVE SMOOTH",
"400 -12 OFFCURVE",
"512 117 OFFCURVE",
"550 358 CURVE SMOOTH",
"578 536 OFFCURVE",
"511 655 OFFCURVE",
"382 655 CURVE SMOOTH"
);
}
);
};
guideLines = (
{
angle = 45;
position = "{533, 358}";
}
);
layerId = "E1BF09ED-4302-4AD3-9939-8FDA35DE0FE8";
paths = (
{
closed = 1;
nodes = (
"290 655 OFFCURVE",
"198 604 OFFCURVE",
"118 509 CURVE",
"129 494 LINE",
"201 578 OFFCURVE",
"277 623 OFFCURVE",
"350 623 CURVE SMOOTH",
"459 623 OFFCURVE",
"515 551 OFFCURVE",
"515 417 CURVE SMOOTH",
"515 209 OFFCURVE",
"437 12 OFFCURVE",
"248 12 CURVE SMOOTH",
"155 12 OFFCURVE",
"97 83 OFFCURVE",
"97 186 CURVE SMOOTH",
"97 205 OFFCURVE",
"99 226 OFFCURVE",
"103 247 CURVE",
"88 239 LINE",
"508 248 LINE",
"511 265 LINE",
"91 265 LINE SMOOTH",
"71 265 OFFCURVE",
"61 217 OFFCURVE",
"61 180 CURVE SMOOTH",
"61 73 OFFCURVE",
"133 -12 OFFCURVE",
"233 -12 CURVE SMOOTH",
"441 -12 OFFCURVE",
"556 209 OFFCURVE",
"556 435 CURVE SMOOTH",
"556 569 OFFCURVE",
"491 655 OFFCURVE",
"382 655 CURVE SMOOTH"
);
}
);
width = 595;
},
{
layerId = "7B53E429-1BF0-49C5-9F57-63EEBF39C6CC";
paths = (
{
closed = 1;
nodes = (
"261 656 OFFCURVE",
"159 609 OFFCURVE",
"71 522 CURVE",
"86 475 LINE",
"151 520 OFFCURVE",
"213 542 OFFCURVE",
"269 542 CURVE SMOOTH",
"369 542 OFFCURVE",
"423 477 OFFCURVE",
"423 356 CURVE SMOOTH",
"423 232 OFFCURVE",
"375 62 OFFCURVE",
"268 62 CURVE SMOOTH",
"216 62 OFFCURVE",
"190 100 OFFCURVE",
"190 175 CURVE SMOOTH",
"190 204 OFFCURVE",
"194 239 OFFCURVE",
"202 279 CURVE",
"164 238 LINE",
"456 244 LINE",
"469 319 LINE",
"73 319 LINE SMOOTH",
"35 319 OFFCURVE",
"27 275 OFFCURVE",
"27 210 CURVE SMOOTH",
"27 76 OFFCURVE",
"111 -12 OFFCURVE",
"248 -12 CURVE SMOOTH",
"449 -12 OFFCURVE",
"612 184 OFFCURVE",
"612 398 CURVE SMOOTH",
"612 553 OFFCURVE",
"517 656 OFFCURVE",
"366 656 CURVE SMOOTH"
);
}
);
width = 613;
},
{
layerId = "3EF2C2DE-A0EB-47A2-88E7-F2C629C295C3";
paths = (
{
closed = 1;
nodes = (
"281 655 OFFCURVE",
"187 606 OFFCURVE",
"104 513 CURVE",
"116 488 LINE",
"186 558 OFFCURVE",
"257 597 OFFCURVE",
"325 597 CURVE SMOOTH",
"432 597 OFFCURVE",
"486 527 OFFCURVE",
"486 397 CURVE SMOOTH",
"486 217 OFFCURVE",
"418 28 OFFCURVE",
"256 28 CURVE SMOOTH",
"176 28 OFFCURVE",
"128 88 OFFCURVE",
"128 182 CURVE SMOOTH",
"128 205 OFFCURVE",
"131 230 OFFCURVE",
"136 258 CURVE",
"114 239 LINE",
"492 247 LINE",
"499 282 LINE",
"86 282 LINE SMOOTH",
"60 282 OFFCURVE",
"51 237 OFFCURVE",
"51 190 CURVE SMOOTH",
"51 74 OFFCURVE",
"127 -12 OFFCURVE",
"238 -12 CURVE SMOOTH",
"445 -12 OFFCURVE",
"575 201 OFFCURVE",
"575 423 CURVE SMOOTH",
"575 565 OFFCURVE",
"501 655 OFFCURVE",
"379 655 CURVE SMOOTH"
);
}
);
width = 601;
}
);
leftKerningGroup = O;
leftMetricsKey = O;
rightKerningGroup = O;
rightMetricsKey = O;
unicode = 018F;
},
{
color = 4;
glyphname = T;
layers = (
{
anchors = (
{
name = bottom;
position = "{203, 0}";
},
{
name = center;
position = "{254, 321}";
},
{
name = top;
position = "{305, 641}";
}
);
layerId = "E1BF09ED-4302-4AD3-9939-8FDA35DE0FE8";
paths = (
{
closed = 1;
nodes = (
"286 0 LINE SMOOTH",
"299 0 OFFCURVE",
"302 4 OFFCURVE",
"305 18 CURVE",
"213 34 LINE",
"222 22 LINE",
"317 625 LINE",
"305 612 LINE",
"499 625 LINE",
"487 634 LINE",
"493 543 LINE SMOOTH",
"493 531 OFFCURVE",
"501 527 OFFCURVE",
"509 527 CURVE",
"527 641 LINE",
"81 641 LINE",
"63 527 LINE",
"71 527 OFFCURVE",
"79 531 OFFCURVE",
"84 543 CURVE SMOOTH",
"119 634 LINE",
"105 625 LINE",
"295 612 LINE",
"286 625 LINE",
"191 23 LINE",
"205 34 LINE",
"134 20 LINE SMOOTH",
"123 18 OFFCURVE",
"118 12 OFFCURVE",
"116 0 CURVE"
);
}
);
width = 476;
},
{
anchors = (
{
name = bottom;
position = "{246, 0}";
},
{
name = center;
position = "{297, 321}";
},
{
name = top;
position = "{347, 641}";
}
);
layerId = "7B53E429-1BF0-49C5-9F57-63EEBF39C6CC";
paths = (
{
closed = 1;
nodes = (
"419 0 LINE",
"438 29 OFFCURVE",
"445 50 OFFCURVE",
"449 76 CURVE",
"322 106 LINE",
"344 75 LINE",
"418 544 LINE",
"406 531 LINE",
"527 549 LINE",
"516 558 LINE",
"527 460 LINE SMOOTH",
"528 448 OFFCURVE",
"542 440 OFFCURVE",
"589 440 CURVE",
"621 641 LINE",
"74 641 LINE",
"42 440 LINE",
"88 440 OFFCURVE",
"104 448 OFFCURVE",
"110 460 CURVE SMOOTH",
"153 558 LINE",
"138 549 LINE",
"254 531 LINE",
"245 544 LINE",
"170 70 LINE",
"196 107 LINE",
"93 69 LINE SMOOTH",
"82 65 OFFCURVE",
"73 39 OFFCURVE",
"67 0 CURVE"
);
}
);
width = 562;
},
{
anchors = (
{
name = bottom;
position = "{217, 0}";
},
{
name = center;
position = "{268, 321}";
},
{
name = top;
position = "{318, 641}";
}
);
layerId = "3EF2C2DE-A0EB-47A2-88E7-F2C629C295C3";
paths = (
{
closed = 1;
nodes = (
"330 0 LINE SMOOTH",
"344 10 OFFCURVE",
"348 19 OFFCURVE",
"352 38 CURVE",
"249 57 LINE",
"261 39 LINE",
"350 599 LINE",
"338 586 LINE",
"508 600 LINE",
"497 609 LINE",
"504 516 LINE SMOOTH",
"505 504 OFFCURVE",
"514 499 OFFCURVE",
"535 499 CURVE",
"558 641 LINE",
"79 641 LINE",
"56 499 LINE",
"77 499 OFFCURVE",
"87 504 OFFCURVE",
"93 516 CURVE SMOOTH",
"130 609 LINE",
"116 600 LINE",
"282 586 LINE",
"273 599 LINE",
"184 38 LINE",
"202 58 LINE",
"121 36 LINE SMOOTH",
"110 33 OFFCURVE",
"104 21 OFFCURVE",
"100 0 CURVE"
);
}
);
width = 504;
}
);
leftKerningGroup = T;
leftMetricsKey = "=H*.2";
rightKerningGroup = T;
rightMetricsKey = "=H*.2";
unicode = 0054;
},
{
color = 4;
glyphname = U;
layers = (
{
anchors = (
{
name = bottom;
position = "{295, 0}";
},
{
name = ogonek;
position = "{375, 0}";
},
{
name = top;
position = "{397, 641}";
},
{
name = topright;
position = "{587, 641}";
}
);
layerId = "E1BF09ED-4302-4AD3-9939-8FDA35DE0FE8";
paths = (
{
closed = 1;
nodes = (
"428 -12 OFFCURVE",
"515 66 OFFCURVE",
"538 214 CURVE SMOOTH",
"603 624 LINE",
"597 611 LINE",
"642 621 LINE SMOOTH",
"652 623 OFFCURVE",
"658 629 OFFCURVE",
"660 641 CURVE",
"545 641 LINE",
"532 641 OFFCURVE",
"529 638 OFFCURVE",
"527 623 CURVE",
"587 610 LINE",
"583 619 LINE",
"517 206 LINE SMOOTH",
"497 80 OFFCURVE",
"418 7 OFFCURVE",
"303 7 CURVE SMOOTH",
"169 7 OFFCURVE",
"113 72 OFFCURVE",
"134 204 CURVE SMOOTH",
"201 619 LINE",
"189 607 LINE",
"251 621 LINE SMOOTH",
"262 623 OFFCURVE",
"267 629 OFFCURVE",
"269 641 CURVE",
"127 641 LINE SMOOTH",
"114 641 OFFCURVE",
"110 637 OFFCURVE",
"108 623 CURVE",
"181 607 LINE",
"170 618 LINE",
"105 211 LINE SMOOTH",
"82 67 OFFCURVE",
"148 -12 OFFCURVE",
"288 -12 CURVE SMOOTH"
);
}
);
width = 638;
},
{
anchors = (
{
name = bottom;
position = "{337, 0}";
},
{
name = ogonek;
position = "{411, 0}";
},
{
name = top;
position = "{438, 641}";
},
{
name = topright;
position = "{565, 641}";
}
);
layerId = "7B53E429-1BF0-49C5-9F57-63EEBF39C6CC";
paths = (
{
closed = 1;
nodes = (
"501 -12 OFFCURVE",
"579 105 OFFCURVE",
"596 214 CURVE SMOOTH",
"655 589 LINE",
"631 545 LINE",
"716 572 LINE SMOOTH",
"726 575 OFFCURVE",
"736 604 OFFCURVE",
"742 641 CURVE",
"502 641 LINE",
"483 614 OFFCURVE",
"475 591 OFFCURVE",
"471 565 CURVE",
"565 538 LINE",
"564 584 LINE",
"513 256 LINE SMOOTH",
"503 189 OFFCURVE",
"482 87 OFFCURVE",
"349 87 CURVE SMOOTH",
"234 87 OFFCURVE",
"247 165 OFFCURVE",
"261 254 CURVE SMOOTH",
"311 571 LINE",
"279 545 LINE",
"362 572 LINE SMOOTH",
"372 575 OFFCURVE",
"382 603 OFFCURVE",
"388 641 CURVE",
"106 641 LINE",
"86 614 OFFCURVE",
"78 591 OFFCURVE",
"74 565 CURVE",
"155 541 LINE",
"137 566 LINE",
"81 211 LINE SMOOTH",
"60 77 OFFCURVE",
"131 -12 OFFCURVE",
"303 -12 CURVE SMOOTH"
);
}
);
width = 696;
},
{
anchors = (
{
name = bottom;
position = "{309, 0}";
},
{
name = ogonek;
position = "{388, 0}";
},
{
name = top;
position = "{411, 641}";
},
{
name = topright;
position = "{581, 641}";
}
);
layerId = "3EF2C2DE-A0EB-47A2-88E7-F2C629C295C3";
paths = (
{
closed = 1;
nodes = (
"453 -12 OFFCURVE",
"537 78 OFFCURVE",
"559 214 CURVE SMOOTH",
"621 612 LINE",
"609 590 LINE",
"667 605 LINE SMOOTH",
"677 608 OFFCURVE",
"684 621 OFFCURVE",
"688 641 CURVE",
"532 641 LINE",
"517 632 OFFCURVE",
"513 623 OFFCURVE",
"510 603 CURVE",
"581 587 LINE",
"578 607 LINE",
"517 222 LINE SMOOTH",
"500 116 OFFCURVE",
"440 33 OFFCURVE",
"319 33 CURVE SMOOTH",
"191 33 OFFCURVE",
"158 102 OFFCURVE",
"176 220 CURVE SMOOTH",
"238 604 LINE",
"218 587 LINE",
"288 605 LINE SMOOTH",
"299 608 OFFCURVE",
"305 620 OFFCURVE",
"308 641 CURVE",
"121 641 LINE SMOOTH",
"106 632 OFFCURVE",
"100 622 OFFCURVE",
"98 603 CURVE",
"173 586 LINE",
"160 601 LINE",
"98 211 LINE SMOOTH",
"76 70 OFFCURVE",
"144 -12 OFFCURVE",
"293 -12 CURVE SMOOTH"
);
}
);
width = 659;
}
);
leftKerningGroup = U;
leftMetricsKey = "=H*.6";
rightKerningGroup = U;
rightMetricsKey = "=H*.6";
unicode = 0055;
},
{
color = 4;
glyphname = V;
layers = (
{
layerId = "E1BF09ED-4302-4AD3-9939-8FDA35DE0FE8";
paths = (
{
closed = 1;
nodes = (
"261 -12 OFFCURVE",
"268 -6 OFFCURVE",
"276 11 CURVE SMOOTH",
"561 625 LINE",
"551 611 LINE",
"596 621 LINE SMOOTH",
"606 623 OFFCURVE",
"612 629 OFFCURVE",
"614 641 CURVE",
"500 641 LINE SMOOTH",
"486 641 OFFCURVE",
"483 637 OFFCURVE",
"481 623 CURVE",
"541 610 LINE",
"539 621 LINE",
"249 -5 LINE",
"258 -5 LINE",
"157 618 LINE",
"149 607 LINE",
"211 621 LINE SMOOTH",
"221 623 OFFCURVE",
"227 629 OFFCURVE",
"229 641 CURVE",
"87 641 LINE SMOOTH",
"74 641 OFFCURVE",
"70 637 OFFCURVE",
"68 623 CURVE",
"141 607 LINE",
"127 618 LINE",
"228 -6 LINE",
"232 -9 OFFCURVE",
"243 -12 OFFCURVE",
"249 -12 CURVE SMOOTH"
);
}
);
width = 552;
},
{
guideLines = (
{
angle = 111.1613;
position = "{309, 589}";
},
{
angle = 249.9547;
position = "{427, 362}";
}
);
layerId = "7B53E429-1BF0-49C5-9F57-63EEBF39C6CC";
paths = (
{
closed = 1;
nodes = (
"310 -12 OFFCURVE",
"368 -4 OFFCURVE",
"382 25 CURVE SMOOTH",
"666 589 LINE",
"624 545 LINE",
"712 572 LINE SMOOTH",
"722 575 OFFCURVE",
"731 602 OFFCURVE",
"738 641 CURVE",
"493 641 LINE",
"474 614 OFFCURVE",
"467 591 OFFCURVE",
"462 565 CURVE",
"562 541 LINE",
"564 584 LINE",
"340 140 LINE",
"366 140 LINE",
"275 589 LINE",
"256 545 LINE",
"339 572 LINE SMOOTH",
"349 575 OFFCURVE",
"359 602 OFFCURVE",
"365 641 CURVE",
"88 641 LINE",
"68 614 OFFCURVE",
"60 591 OFFCURVE",
"56 565 CURVE",
"137 541 LINE",
"102 584 LINE",
"221 -5 LINE",
"238 -9 OFFCURVE",
"271 -12 OFFCURVE",
"287 -12 CURVE SMOOTH"
);
}
);
width = 674;
},
{
layerId = "3EF2C2DE-A0EB-47A2-88E7-F2C629C295C3";
paths = (
{
closed = 1;
nodes = (
"276 -12 OFFCURVE",
"300 -5 OFFCURVE",
"310 15 CURVE SMOOTH",
"594 613 LINE",
"574 590 LINE",
"632 605 LINE SMOOTH",
"642 608 OFFCURVE",
"649 620 OFFCURVE",
"653 641 CURVE",
"497 641 LINE SMOOTH",
"482 632 OFFCURVE",
"478 622 OFFCURVE",
"475 603 CURVE",
"547 588 LINE",
"546 609 LINE",
"278 42 LINE",
"292 42 LINE",
"194 608 LINE",
"183 587 LINE",
"252 605 LINE SMOOTH",
"262 608 OFFCURVE",
"270 620 OFFCURVE",
"273 641 CURVE",
"86 641 LINE SMOOTH",
"71 632 OFFCURVE",
"66 622 OFFCURVE",
"64 603 CURVE",
"139 586 LINE",
"118 607 LINE",
"225 -6 LINE",
"233 -9 OFFCURVE",
"251 -12 OFFCURVE",
"261 -12 CURVE SMOOTH"
);
}
);
width = 590;
}
);
leftKerningGroup = V;
leftMetricsKey = "=H*.05";
rightKerningGroup = V;
rightMetricsKey = "=H*.05";
unicode = 0056;
},
{
color = 4;
glyphname = W;
layers = (
{
anchors = (
{
name = bottom;
position = "{400, 0}";
},
{
name = top;
position = "{501, 641}";
}
);
layerId = "E1BF09ED-4302-4AD3-9939-8FDA35DE0FE8";
paths = (
{
closed = 1;
nodes = (
"257 -12 OFFCURVE",
"264 -6 OFFCURVE",
"272 11 CURVE",
"480 490 LINE",
"469 490 LINE",
"533 -6 LINE",
"537 -9 OFFCURVE",
"547 -12 OFFCURVE",
"554 -12 CURVE SMOOTH",
"566 -12 OFFCURVE",
"573 -6 OFFCURVE",
"581 11 CURVE SMOOTH",
"852 625 LINE",
"842 611 LINE",
"887 621 LINE SMOOTH",
"897 623 OFFCURVE",
"903 629 OFFCURVE",
"905 641 CURVE",
"790 641 LINE SMOOTH",
"777 641 OFFCURVE",
"774 637 OFFCURVE",
"772 623 CURVE",
"832 610 LINE",
"831 621 LINE",
"557 1 LINE",
"563 1 LINE",
"492 552 LINE",
"487 552 LINE",
"248 1 LINE",
"254 1 LINE",
"158 626 LINE",
"149 608 LINE",
"211 622 LINE SMOOTH",
"221 624 OFFCURVE",
"227 630 OFFCURVE",
"229 642 CURVE",
"86 642 LINE SMOOTH",
"73 642 OFFCURVE",
"70 638 OFFCURVE",
"68 624 CURVE",
"141 608 LINE",
"127 621 LINE",
"224 -6 LINE",
"228 -9 OFFCURVE",
"239 -12 OFFCURVE",
"245 -12 CURVE SMOOTH"
);
}
);
width = 843;
},
{
anchors = (
{
name = bottom;
position = "{464, 0}";
},
{
name = top;
position = "{565, 641}";
}
);
guideLines = (
{
angle = 111.4424;
position = "{612, 170}";
}
);
layerId = "7B53E429-1BF0-49C5-9F57-63EEBF39C6CC";
paths = (
{
closed = 1;
nodes = (
"273 -12 OFFCURVE",
"333 -4 OFFCURVE",
"346 25 CURVE SMOOTH",
"510 386 LINE",
"463 386 LINE",
"535 -5 LINE",
"551 -9 OFFCURVE",
"583 -12 OFFCURVE",
"598 -12 CURVE SMOOTH",
"620 -12 OFFCURVE",
"680 -4 OFFCURVE",
"693 25 CURVE SMOOTH",
"940 589 LINE",
"898 545 LINE",
"986 572 LINE SMOOTH",
"996 575 OFFCURVE",
"1005 602 OFFCURVE",
"1012 641 CURVE",
"764 641 LINE",
"745 614 OFFCURVE",
"738 591 OFFCURVE",
"734 565 CURVE",
"833 541 LINE",
"841 584 LINE",
"659 170 LINE",
"677 170 LINE",
"601 579 LINE",
"500 579 LINE",
"314 170 LINE",
"332 170 LINE",
"273 589 LINE",
"256 545 LINE",
"339 572 LINE SMOOTH",
"349 575 OFFCURVE",
"359 602 OFFCURVE",
"365 641 CURVE",
"88 641 LINE",
"68 614 OFFCURVE",
"60 591 OFFCURVE",
"56 565 CURVE",
"136 541 LINE",
"101 584 LINE",
"184 -5 LINE",
"201 -9 OFFCURVE",
"235 -12 OFFCURVE",
"251 -12 CURVE SMOOTH"
);
}
);
width = 948;
},
{
anchors = (
{
name = bottom;
position = "{421, 0}";
},
{
name = top;
position = "{522, 641}";
}
);
layerId = "3EF2C2DE-A0EB-47A2-88E7-F2C629C295C3";
paths = (
{
closed = 1;
nodes = (
"261 -12 OFFCURVE",
"286 -5 OFFCURVE",
"296 15 CURVE",
"490 456 LINE",
"467 456 LINE",
"534 -6 LINE",
"541 -9 OFFCURVE",
"559 -12 OFFCURVE",
"568 -12 CURVE SMOOTH",
"583 -12 OFFCURVE",
"608 -5 OFFCURVE",
"617 15 CURVE SMOOTH",
"880 613 LINE",
"861 590 LINE",
"919 605 LINE SMOOTH",
"929 608 OFFCURVE",
"936 620 OFFCURVE",
"940 641 CURVE",
"781 641 LINE SMOOTH",
"766 632 OFFCURVE",
"762 622 OFFCURVE",
"760 603 CURVE",
"832 588 LINE",
"834 609 LINE",
"590 56 LINE",
"600 56 LINE",
"528 561 LINE",
"491 561 LINE",
"269 56 LINE",
"279 56 LINE",
"195 614 LINE",
"184 588 LINE",
"252 606 LINE SMOOTH",
"262 608 OFFCURVE",
"271 621 OFFCURVE",
"273 642 CURVE",
"87 642 LINE SMOOTH",
"71 633 OFFCURVE",
"67 623 OFFCURVE",
"64 604 CURVE",
"139 586 LINE",
"118 609 LINE",
"211 -6 LINE",
"219 -9 OFFCURVE",
"238 -12 OFFCURVE",
"247 -12 CURVE SMOOTH"
);
}
);
width = 877;
}
);
leftKerningGroup = V;
leftMetricsKey = V;
rightKerningGroup = V;
rightMetricsKey = V;
unicode = 0057;
},
{
color = 4;
glyphname = X;
layers = (
{
layerId = "E1BF09ED-4302-4AD3-9939-8FDA35DE0FE8";
paths = (
{
closed = 1;
nodes = (
"469 0 LINE SMOOTH",
"482 0 OFFCURVE",
"485 4 OFFCURVE",
"488 18 CURVE",
"410 34 LINE",
"426 22 LINE",
"175 621 LINE",
"166 607 LINE",
"232 621 LINE SMOOTH",
"243 623 OFFCURVE",
"249 629 OFFCURVE",
"251 641 CURVE",
"99 641 LINE SMOOTH",
"86 641 OFFCURVE",
"82 637 OFFCURVE",
"80 623 CURVE",
"158 607 LINE",
"144 616 LINE",
"396 17 LINE",
"402 34 LINE",
"335 20 LINE SMOOTH",
"325 18 OFFCURVE",
"319 12 OFFCURVE",
"317 0 CURVE"
);
},
{
closed = 1;
nodes = (
"96 0 LINE SMOOTH",
"109 0 OFFCURVE",
"112 4 OFFCURVE",
"115 18 CURVE",
"53 31 LINE",
"53 23 LINE",
"289 331 LINE",
"276 343 LINE",
"27 18 LINE",
"44 30 LINE",
"-10 20 LINE SMOOTH",
"-20 18 OFFCURVE",
"-26 12 OFFCURVE",
"-28 0 CURVE"
);
},
{
closed = 1;
nodes = (
"522 627 LINE",
"503 611 LINE",
"557 621 LINE SMOOTH",
"568 623 OFFCURVE",
"573 629 OFFCURVE",
"575 641 CURVE",
"451 641 LINE SMOOTH",
"438 641 OFFCURVE",
"435 637 OFFCURVE",
"433 623 CURVE",
"495 610 LINE",
"496 622 LINE",
"277 332 LINE",
"291 321 LINE"
);
}
);
width = 527;
},
{
guideLines = (
{
angle = 232.2998;
position = "{295, 366}";
}
);
layerId = "7B53E429-1BF0-49C5-9F57-63EEBF39C6CC";
paths = (
{
closed = 1;
nodes = (
"581 1 LINE",
"601 28 OFFCURVE",
"609 51 OFFCURVE",
"614 77 CURVE",
"533 101 LINE",
"571 57 LINE",
"290 589 LINE",
"272 545 LINE",
"355 572 LINE SMOOTH",
"365 575 OFFCURVE",
"375 602 OFFCURVE",
"381 641 CURVE",
"99 641 LINE",
"79 614 OFFCURVE",
"71 591 OFFCURVE",
"67 565 CURVE",
"148 541 LINE",
"100 584 LINE",
"380 52 LINE",
"408 97 LINE",
"325 70 LINE SMOOTH",
"315 67 OFFCURVE",
"305 40 OFFCURVE",
"299 1 CURVE"
);
},
{
closed = 1;
nodes = (
"216 1 LINE",
"235 28 OFFCURVE",
"242 51 OFFCURVE",
"246 77 CURVE",
"142 101 LINE",
"144 58 LINE",
"335 276 LINE",
"262 326 LINE",
"23 53 LINE",
"86 99 LINE",
"-6 70 LINE SMOOTH",
"-16 67 OFFCURVE",
"-26 40 OFFCURVE",
"-32 1 CURVE"
);
},
{
closed = 1;
nodes = (
"640 589 LINE",
"577 543 LINE",
"669 572 LINE SMOOTH",
"678 575 OFFCURVE",
"688 602 OFFCURVE",
"695 641 CURVE",
"447 641 LINE",
"428 614 OFFCURVE",
"421 591 OFFCURVE",
"416 565 CURVE",
"521 541 LINE",
"518 584 LINE",
"326 366 LINE",
"400 316 LINE"
);
}
);
width = 640;
},
{
layerId = "3EF2C2DE-A0EB-47A2-88E7-F2C629C295C3";
paths = (
{
closed = 1;
nodes = (
"505 0 LINE SMOOTH",
"520 9 OFFCURVE",
"525 19 OFFCURVE",
"529 38 CURVE",
"450 56 LINE",
"473 34 LINE",
"212 610 LINE",
"201 587 LINE",
"272 605 LINE SMOOTH",
"282 608 OFFCURVE",
"290 620 OFFCURVE",
"294 641 CURVE",
"99 641 LINE SMOOTH",
"84 632 OFFCURVE",
"78 622 OFFCURVE",
"76 603 CURVE",
"155 586 LINE",
"130 605 LINE",
"392 29 LINE",
"404 54 LINE",
"332 36 LINE SMOOTH",
"322 34 OFFCURVE",
"315 21 OFFCURVE",
"312 0 CURVE"
);
},
{
closed = 1;
nodes = (
"135 0 LINE SMOOTH",
"150 9 OFFCURVE",
"155 19 OFFCURVE",
"158 38 CURVE",
"81 54 LINE",
"82 35 LINE",
"304 313 LINE",
"272 338 LINE",
"26 30 LINE",
"57 52 LINE",
"-9 36 LINE SMOOTH",
"-19 34 OFFCURVE",
"-26 21 OFFCURVE",
"-29 0 CURVE"
);
},
{
closed = 1;
nodes = (
"560 615 LINE",
"527 589 LINE",
"593 605 LINE SMOOTH",
"604 608 OFFCURVE",
"610 620 OFFCURVE",
"614 641 CURVE",
"450 641 LINE SMOOTH",
"435 632 OFFCURVE",
"431 622 OFFCURVE",
"428 603 CURVE",
"504 588 LINE",
"503 610 LINE",
"293 343 LINE",
"327 319 LINE"
);
}
);
width = 564.34615;
}
);
leftKerningGroup = X;
leftMetricsKey = "=H*.1";
rightKerningGroup = X;
rightMetricsKey = "=H*.1";
unicode = 0058;
},
{
color = 4;
glyphname = Y;
layers = (
{
anchors = (
{
name = bottom;
position = "{241, 0}";
},
{
name = top;
position = "{343, 641}";
},
{
name = topleft;
position = "{86, 641}";
}
);
layerId = "E1BF09ED-4302-4AD3-9939-8FDA35DE0FE8";
paths = (
{
closed = 1;
nodes = (
"529 622 LINE",
"518 611 LINE",
"570 621 LINE SMOOTH",
"581 623 OFFCURVE",
"587 629 OFFCURVE",
"588 641 CURVE",
"465 641 LINE",
"452 641 OFFCURVE",
"448 637 OFFCURVE",
"446 623 CURVE",
"508 610 LINE",
"504 617 LINE",
"280 268 LINE",
"296 272 LINE",
"153 621 LINE",
"147 607 LINE",
"216 621 LINE SMOOTH",
"227 623 OFFCURVE",
"232 629 OFFCURVE",
"234 641 CURVE",
"86 641 LINE",
"73 641 OFFCURVE",
"70 637 OFFCURVE",
"68 623 CURVE",
"139 607 LINE",
"123 616 LINE",
"279 234 LINE"
);
},
{
closed = 1;
nodes = (
"315 0 LINE SMOOTH",
"328 0 OFFCURVE",
"331 4 OFFCURVE",
"334 18 CURVE",
"251 34 LINE",
"259 17 LINE",
"300 275 LINE",
"269 275 LINE",
"228 12 LINE",
"243 34 LINE",
"172 20 LINE SMOOTH",
"162 18 OFFCURVE",
"156 12 OFFCURVE",
"154 0 CURVE"
);
}
);
width = 526;
},
{
anchors = (
{
name = bottom;
position = "{286, 0}";
},
{
name = top;
position = "{414, 641}";
},
{
name = topleft;
position = "{88, 641}";
}
);
guideLines = (
{
angle = 63.392;
position = "{320, 304}";
},
{
position = "{176, 366}";
}
);
layerId = "7B53E429-1BF0-49C5-9F57-63EEBF39C6CC";
paths = (
{
closed = 1;
nodes = (
"635 589 LINE",
"593 545 LINE",
"681 572 LINE SMOOTH",
"690 575 OFFCURVE",
"700 602 OFFCURVE",
"707 641 CURVE",
"466 641 LINE",
"447 614 OFFCURVE",
"439 591 OFFCURVE",
"435 565 CURVE",
"534 541 LINE",
"528 584 LINE",
"353 304 LINE",
"389 304 LINE",
"279 589 LINE",
"261 545 LINE",
"344 572 LINE SMOOTH",
"354 575 OFFCURVE",
"364 602 OFFCURVE",
"370 641 CURVE",
"88 641 LINE",
"68 614 OFFCURVE",
"60 591 OFFCURVE",
"56 565 CURVE",
"136 541 LINE",
"97 584 LINE",
"302 56 LINE"
);
},
{
closed = 1;
nodes = (
"419 0 LINE",
"438 29 OFFCURVE",
"446 50 OFFCURVE",
"450 76 CURVE",
"359 100 LINE",
"383 75 LINE",
"415 275 LINE",
"244 275 LINE",
"212 70 LINE",
"234 96 LINE",
"161 69 LINE SMOOTH",
"151 65 OFFCURVE",
"142 39 OFFCURVE",
"135 0 CURVE"
);
}
);
width = 643;
},
{
anchors = (
{
name = bottom;
position = "{254, 0}";
},
{
name = top;
position = "{365, 641}";
},
{
name = topleft;
position = "{86, 641}";
}
);
layerId = "3EF2C2DE-A0EB-47A2-88E7-F2C629C295C3";
paths = (
{
closed = 1;
nodes = (
"563 611 LINE",
"541 590 LINE",
"606 605 LINE SMOOTH",
"616 608 OFFCURVE",
"623 620 OFFCURVE",
"625 641 CURVE",
"464 641 LINE",
"449 632 OFFCURVE",
"444 622 OFFCURVE",
"442 603 CURVE",
"516 588 LINE",
"511 606 LINE",
"303 280 LINE",
"325 283 LINE",
"193 610 LINE",
"183 587 LINE",
"257 605 LINE SMOOTH",
"267 608 OFFCURVE",
"275 620 OFFCURVE",
"278 641 CURVE",
"86 641 LINE",
"70 632 OFFCURVE",
"66 622 OFFCURVE",
"64 603 CURVE",
"137 586 LINE",
"113 605 LINE",
"286 176 LINE"
);
},
{
closed = 1;
nodes = (
"348 0 LINE SMOOTH",
"363 10 OFFCURVE",
"367 19 OFFCURVE",
"370 38 CURVE",
"285 55 LINE",
"298 37 LINE",
"336 275 LINE",
"260 275 LINE",
"223 32 LINE",
"239 54 LINE",
"168 36 LINE SMOOTH",
"158 33 OFFCURVE",
"151 21 OFFCURVE",
"148 0 CURVE"
);
}
);
width = 562;
}
);
leftKerningGroup = Y;
leftMetricsKey = V;
rightKerningGroup = Y;
rightMetricsKey = V;
unicode = 0059;
},
{
color = 4;
glyphname = Z;
layers = (
{
anchors = (
{
name = bottom;
position = "{241, 0}";
},
{
name = center;
position = "{272, 321}";
},
{
name = top;
position = "{343, 641}";
}
);
guideLines = (
{
angle = -2.1769;
position = "{302, 619}";
},
{
angle = 177.2073;
position = "{197, 25}";
}
);
layerId = "E1BF09ED-4302-4AD3-9939-8FDA35DE0FE8";
paths = (
{
closed = 1;
nodes = (
"437 0 LINE",
"455 118 LINE SMOOTH",
"456 125 OFFCURVE",
"454 131 OFFCURVE",
"441 131 CURVE",
"398 7 LINE",
"411 16 LINE",
"42 34 LINE",
"51 23 LINE",
"518 612 LINE",
"518 627 OFFCURVE",
"511 641 OFFCURVE",
"496 641 CURVE SMOOTH",
"135 641 LINE",
"116 517 LINE",
"124 517 OFFCURVE",
"132 520 OFFCURVE",
"137 533 CURVE SMOOTH",
"175 634 LINE",
"161 625 LINE",
"503 612 LINE",
"489 625 LINE",
"21 35 LINE",
"21 17 OFFCURVE",
"30 0 OFFCURVE",
"43 0 CURVE SMOOTH"
);
}
);
width = 523;
},
{
anchors = (
{
name = bottom;
position = "{248, 0}";
},
{
name = center;
position = "{299, 321}";
},
{
name = top;
position = "{349, 641}";
}
);
layerId = "7B53E429-1BF0-49C5-9F57-63EEBF39C6CC";
paths = (
{
closed = 1;
nodes = (
"507 0 LINE",
"540 206 LINE",
"518 223 OFFCURVE",
"497 228 OFFCURVE",
"473 228 CURVE",
"416 72 LINE",
"460 93 LINE",
"214 112 LINE",
"210 57 LINE",
"579 561 LINE",
"580 602 OFFCURVE",
"560 641 OFFCURVE",
"518 641 CURVE SMOOTH",
"108 641 LINE",
"76 435 LINE",
"122 435 OFFCURVE",
"138 443 OFFCURVE",
"144 455 CURVE SMOOTH",
"187 558 LINE",
"151 548 LINE",
"393 530 LINE",
"377 589 LINE",
"2 80 LINE",
"1 39 OFFCURVE",
"21 0 OFFCURVE",
"63 0 CURVE SMOOTH"
);
}
);
width = 566;
},
{
anchors = (
{
name = bottom;
position = "{244, 0}";
},
{
name = center;
position = "{282, 321}";
},
{
name = top;
position = "{346, 641}";
}
);
layerId = "3EF2C2DE-A0EB-47A2-88E7-F2C629C295C3";
paths = (
{
closed = 1;
nodes = (
"461 0 LINE",
"484 146 LINE SMOOTH",
"477 157 OFFCURVE",
"469 163 OFFCURVE",
"453 163 CURVE",
"405 28 LINE",
"428 41 LINE",
"99 59 LINE",
"104 34 LINE",
"539 596 LINE",
"539 619 OFFCURVE",
"528 641 OFFCURVE",
"504 641 CURVE SMOOTH",
"127 641 LINE",
"104 490 LINE",
"124 490 OFFCURVE",
"135 495 OFFCURVE",
"140 508 CURVE SMOOTH",
"180 609 LINE",
"159 600 LINE",
"468 585 LINE",
"454 613 LINE",
"16 49 LINE",
"15 24 OFFCURVE",
"28 0 OFFCURVE",
"51 0 CURVE SMOOTH"
);
}
);
width = 539;
}
);
leftKerningGroup = Z;
leftMetricsKey = "=H*.7";
rightKerningGroup = Z;
rightMetricsKey = "=H*.7";
unicode = 005A;
},
{
color = 5;
glyphname = O.OE;
layers = (
{
anchors = (
{
name = "#exit";
position = "{309, 0}";
}
);
layerId = "E1BF09ED-4302-4AD3-9939-8FDA35DE0FE8";
paths = (
{
closed = 1;
nodes = (
"327 20 LINE",
"189 20 OFFCURVE",
"112 106 OFFCURVE",
"112 254 CURVE SMOOTH",
"112 441 OFFCURVE",
"234 623 OFFCURVE",
"408 623 CURVE",
"427 641 LINE",
"239 641 OFFCURVE",
"73 443 OFFCURVE",
"73 242 CURVE SMOOTH",
"73 102 OFFCURVE",
"162 0 OFFCURVE",
"309 0 CURVE"
);
}
);
width = 361;
},
{
anchors = (
{
name = "#exit";
position = "{298, 0}";
}
);
layerId = "7B53E429-1BF0-49C5-9F57-63EEBF39C6CC";
paths = (
{
closed = 1;
nodes = (
"324 69 LINE",
"255 69 OFFCURVE",
"216 137 OFFCURVE",
"216 245 CURVE SMOOTH",
"216 387 OFFCURVE",
"273 565 OFFCURVE",
"387 565 CURVE",
"420 641 LINE",
"210 641 OFFCURVE",
"31 455 OFFCURVE",
"31 243 CURVE SMOOTH",
"31 97 OFFCURVE",
"133 0 OFFCURVE",
"298 0 CURVE"
);
}
);
width = 354;
},
{
anchors = (
{
name = "#exit";
position = "{317, 0}";
}
);
layerId = "3EF2C2DE-A0EB-47A2-88E7-F2C629C295C3";
paths = (
{
closed = 1;
nodes = (
"337 38 LINE",
"219 38 OFFCURVE",
"151 122 OFFCURVE",
"151 258 CURVE SMOOTH",
"151 433 OFFCURVE",
"244 597 OFFCURVE",
"411 597 CURVE",
"436 641 LINE",
"230 641 OFFCURVE",
"60 447 OFFCURVE",
"60 241 CURVE SMOOTH",
"60 96 OFFCURVE",
"158 0 OFFCURVE",
"317 0 CURVE"
);
}
);
width = 370.03846;
}
);
leftKerningGroup = O;
leftMetricsKey = O;
rightKerningGroup = O;
},
{
color = 4;
glyphname = U.horn;
layers = (
{
anchors = (
{
name = bottom;
position = "{295, 0}";
},
{
name = ogonek;
position = "{377, 0}";
},
{
name = top;
position = "{396, 641}";
},
{
name = topright;
position = "{550, 641}";
}
);
background = {
paths = (
{
closed = 1;
nodes = (
"436 -12 OFFCURVE",
"516 75 OFFCURVE",
"538 214 CURVE SMOOTH",
"606 641 LINE",
"545 641 LINE",
"532 641 OFFCURVE",
"529 637 OFFCURVE",
"526 623 CURVE",
"587 610 LINE",
"583 619 LINE",
"518 206 LINE SMOOTH",
"494 56 OFFCURVE",
"399 7 OFFCURVE",
"295 7 CURVE SMOOTH",
"204 7 OFFCURVE",
"113 67 OFFCURVE",
"135 204 CURVE SMOOTH",
"200 619 LINE",
"189 607 LINE",
"251 621 LINE SMOOTH",
"261 623 OFFCURVE",
"267 629 OFFCURVE",
"269 641 CURVE",
"127 641 LINE SMOOTH",
"114 641 OFFCURVE",
"110 637 OFFCURVE",
"108 623 CURVE",
"181 607 LINE",
"169 618 LINE",
"105 211 LINE SMOOTH",
"84 77 OFFCURVE",
"137 -12 OFFCURVE",
"292 -12 CURVE SMOOTH"
);
}
);
};
layerId = "E1BF09ED-4302-4AD3-9939-8FDA35DE0FE8";
paths = (
{
closed = 1;
nodes = (
"428 -12 OFFCURVE",
"515 66 OFFCURVE",
"538 214 CURVE SMOOTH",
"606 641 LINE",
"545 641 LINE",
"532 641 OFFCURVE",
"529 638 OFFCURVE",
"527 623 CURVE",
"587 610 LINE",
"583 619 LINE",
"517 206 LINE SMOOTH",
"497 80 OFFCURVE",
"418 7 OFFCURVE",
"303 7 CURVE SMOOTH",
"169 7 OFFCURVE",
"113 72 OFFCURVE",
"134 204 CURVE SMOOTH",
"201 619 LINE",
"189 607 LINE",
"251 621 LINE SMOOTH",
"262 623 OFFCURVE",
"267 629 OFFCURVE",
"269 641 CURVE",
"127 641 LINE SMOOTH",
"114 641 OFFCURVE",
"110 637 OFFCURVE",
"108 623 CURVE",
"181 607 LINE",
"170 618 LINE",
"105 211 LINE SMOOTH",
"82 67 OFFCURVE",
"148 -12 OFFCURVE",
"288 -12 CURVE SMOOTH"
);
}
);
width = 636;
},
{
anchors = (
{
name = bottom;
position = "{337, 0}";
},
{
name = ogonek;
position = "{412, 0}";
},
{
name = top;
position = "{439, 641}";
},
{
name = topright;
position = "{589, 641}";
}
);
background = {
paths = (
{
closed = 1;
nodes = (
"488 -12 OFFCURVE",
"579 105 OFFCURVE",
"596 214 CURVE SMOOTH",
"664 641 LINE",
"502 641 LINE",
"483 614 OFFCURVE",
"475 591 OFFCURVE",
"471 565 CURVE",
"566 538 LINE",
"562 584 LINE",
"510 256 LINE SMOOTH",
"493 147 OFFCURVE",
"457 87 OFFCURVE",
"344 87 CURVE SMOOTH",
"251 87 OFFCURVE",
"243 138 OFFCURVE",
"261 254 CURVE SMOOTH",
"311 571 LINE",
"279 545 LINE",
"363 572 LINE SMOOTH",
"372 575 OFFCURVE",
"382 602 OFFCURVE",
"388 641 CURVE",
"107 641 LINE",
"87 614 OFFCURVE",
"78 591 OFFCURVE",
"74 565 CURVE",
"155 541 LINE",
"138 566 LINE",
"81 211 LINE SMOOTH",
"60 77 OFFCURVE",
"119 -12 OFFCURVE",
"328 -12 CURVE SMOOTH"
);
}
);
};
layerId = "7B53E429-1BF0-49C5-9F57-63EEBF39C6CC";
paths = (
{
closed = 1;
nodes = (
"501 -12 OFFCURVE",
"579 105 OFFCURVE",
"596 214 CURVE SMOOTH",
"664 641 LINE",
"502 641 LINE",
"483 614 OFFCURVE",
"475 591 OFFCURVE",
"471 565 CURVE",
"565 538 LINE",
"564 584 LINE",
"513 256 LINE SMOOTH",
"503 189 OFFCURVE",
"482 87 OFFCURVE",
"349 87 CURVE SMOOTH",
"234 87 OFFCURVE",
"247 165 OFFCURVE",
"261 254 CURVE SMOOTH",
"311 571 LINE",
"279 545 LINE",
"362 572 LINE SMOOTH",
"372 575 OFFCURVE",
"382 603 OFFCURVE",
"388 641 CURVE",
"106 641 LINE",
"86 614 OFFCURVE",
"78 591 OFFCURVE",
"74 565 CURVE",
"155 541 LINE",
"137 566 LINE",
"81 211 LINE SMOOTH",
"60 77 OFFCURVE",
"131 -12 OFFCURVE",
"303 -12 CURVE SMOOTH"
);
}
);
width = 696;
},
{
anchors = (
{
name = bottom;
position = "{309, 0}";
},
{
name = ogonek;
position = "{390, 0}";
},
{
name = top;
position = "{411, 641}";
},
{
name = topright;
position = "{563, 641}";
}
);
layerId = "3EF2C2DE-A0EB-47A2-88E7-F2C629C295C3";
paths = (
{
closed = 1;
nodes = (
"453 -12 OFFCURVE",
"537 78 OFFCURVE",
"559 214 CURVE SMOOTH",
"627 641 LINE",
"532 641 LINE",
"517 632 OFFCURVE",
"513 623 OFFCURVE",
"510 603 CURVE",
"581 587 LINE",
"578 607 LINE",
"517 222 LINE SMOOTH",
"500 116 OFFCURVE",
"440 33 OFFCURVE",
"319 33 CURVE SMOOTH",
"191 33 OFFCURVE",
"158 102 OFFCURVE",
"176 220 CURVE SMOOTH",
"238 604 LINE",
"218 587 LINE",
"288 605 LINE SMOOTH",
"299 608 OFFCURVE",
"305 620 OFFCURVE",
"308 641 CURVE",
"121 641 LINE SMOOTH",
"106 632 OFFCURVE",
"100 622 OFFCURVE",
"98 603 CURVE",
"173 586 LINE",
"160 601 LINE",
"98 211 LINE SMOOTH",
"76 70 OFFCURVE",
"144 -12 OFFCURVE",
"293 -12 CURVE SMOOTH"
);
}
);
width = 656;
}
);
leftKerningGroup = U;
leftMetricsKey = "=H*.6";
rightKerningGroup = U;
},
{
color = 5;
glyphname = Q.ss01;
layers = (
{
components = (
{
name = O;
}
);
layerId = "E1BF09ED-4302-4AD3-9939-8FDA35DE0FE8";
paths = (
{
closed = 1;
nodes = (
"670 -166 OFFCURVE",
"688 -154 OFFCURVE",
"696 -121 CURVE",
"491 -121 OFFCURVE",
"350 -61 OFFCURVE",
"282 10 CURVE",
"272 -7 LINE",
"380 -98 OFFCURVE",
"540 -166 OFFCURVE",
"645 -166 CURVE SMOOTH"
);
}
);
width = 647;
},
{
background = {
paths = (
{
closed = 1;
nodes = (
"816 -191 OFFCURVE",
"846 -142 OFFCURVE",
"853 -99 CURVE SMOOTH",
"855 -84 OFFCURVE",
"854 -71 OFFCURVE",
"849 -63 CURVE",
"706 -63 OFFCURVE",
"516 15 OFFCURVE",
"424 58 CURVE",
"294 -1 LINE",
"431 -76 OFFCURVE",
"654 -191 OFFCURVE",
"761 -191 CURVE SMOOTH"
);
},
{
closed = 1;
nodes = (
"481 -207 OFFCURVE",
"543 -157 OFFCURVE",
"579 -73 CURVE",
"489 -73 OFFCURVE",
"376 -12 OFFCURVE",
"267 64 CURVE",
"217 14 LINE",
"314 -163 OFFCURVE",
"377 -207 OFFCURVE",
"427 -207 CURVE SMOOTH"
);
}
);
};
components = (
{
name = O;
}
);
layerId = "7B53E429-1BF0-49C5-9F57-63EEBF39C6CC";
paths = (
{
closed = 1;
nodes = (
"791 -207 OFFCURVE",
"845 -173 OFFCURVE",
"869 -73 CURVE",
"578 -73 OFFCURVE",
"361 -12 OFFCURVE",
"267 64 CURVE",
"217 14 LINE",
"448 -163 OFFCURVE",
"597 -207 OFFCURVE",
"717 -207 CURVE SMOOTH"
);
}
);
width = 627;
},
{
components = (
{
alignment = -1;
name = O;
}
);
layerId = "3EF2C2DE-A0EB-47A2-88E7-F2C629C295C3";
paths = (
{
closed = 1;
nodes = (
"802 -181 OFFCURVE",
"832 -161 OFFCURVE",
"846 -106 CURVE",
"631 -106 OFFCURVE",
"382 -49 OFFCURVE",
"280 27 CURVE",
"255 2 LINE",
"490 -126 OFFCURVE",
"639 -181 OFFCURVE",
"760 -181 CURVE SMOOTH"
);
}
);
width = 647.92308;
}
);
leftKerningGroup = O;
leftMetricsKey = O;
rightKerningGroup = Q;
},
{
export = 0;
glyphname = C.sup;
layers = (
{
layerId = "E1BF09ED-4302-4AD3-9939-8FDA35DE0FE8";
paths = (
{
closed = 1;
nodes = (
"229 324 OFFCURVE",
"268 337 OFFCURVE",
"304 365 CURVE",
"308 424 LINE",
"306 429 OFFCURVE",
"299 431 OFFCURVE",
"288 431 CURVE",
"271 366 LINE",
"280 381 LINE",
"257 355 OFFCURVE",
"226 344 OFFCURVE",
"197 344 CURVE SMOOTH",
"133 344 OFFCURVE",
"94 389 OFFCURVE",
"94 455 CURVE SMOOTH",
"94 551 OFFCURVE",
"154 637 OFFCURVE",
"245 637 CURVE SMOOTH",
"274 637 OFFCURVE",
"300 628 OFFCURVE",
"316 611 CURVE",
"312 622 LINE",
"309 572 LINE SMOOTH",
"310 567 OFFCURVE",
"318 563 OFFCURVE",
"326 563 CURVE",
"346 633 LINE",
"323 649 OFFCURVE",
"293 658 OFFCURVE",
"262 658 CURVE SMOOTH",
"155 658 OFFCURVE",
"66 555 OFFCURVE",
"66 446 CURVE SMOOTH",
"66 373 OFFCURVE",
"113 324 OFFCURVE",
"190 324 CURVE SMOOTH"
);
}
);
userData = {
RMXScaler = {
height = 50;
verticalShift = 330;
width = 52;
};
};
width = 308;
},
{
layerId = "7B53E429-1BF0-49C5-9F57-63EEBF39C6CC";
paths = (
{
closed = 1;
nodes = (
"251 324 OFFCURVE",
"291 339 OFFCURVE",
"325 370 CURVE",
"330 447 LINE",
"324 451 OFFCURVE",
"314 453 OFFCURVE",
"291 453 CURVE",
"270 375 LINE",
"285 400 LINE",
"261 378 OFFCURVE",
"240 368 OFFCURVE",
"213 368 CURVE SMOOTH",
"173 368 OFFCURVE",
"149 402 OFFCURVE",
"149 455 CURVE SMOOTH",
"149 525 OFFCURVE",
"183 615 OFFCURVE",
"251 615 CURVE SMOOTH",
"277 615 OFFCURVE",
"297 608 OFFCURVE",
"317 583 CURVE",
"308 603 LINE",
"309 551 LINE SMOOTH",
"309 546 OFFCURVE",
"321 542 OFFCURVE",
"342 540 CURVE",
"365 632 LINE",
"341 648 OFFCURVE",
"302 658 OFFCURVE",
"258 658 CURVE SMOOTH",
"151 658 OFFCURVE",
"56 567 OFFCURVE",
"56 452 CURVE SMOOTH",
"56 372 OFFCURVE",
"108 324 OFFCURVE",
"200 324 CURVE SMOOTH"
);
}
);
userData = {
RMXScaler = {
adjustSpace = 5;
height = 50;
verticalShift = 330;
weight = -100;
width = 52;
};
};
width = 326;
},
{
layerId = "3EF2C2DE-A0EB-47A2-88E7-F2C629C295C3";
paths = (
{
closed = 1;
nodes = (
"236 324 OFFCURVE",
"276 338 OFFCURVE",
"311 367 CURVE",
"315 432 LINE",
"312 436 OFFCURVE",
"303 438 OFFCURVE",
"289 438 CURVE",
"271 369 LINE",
"282 387 LINE",
"258 363 OFFCURVE",
"230 352 OFFCURVE",
"201 352 CURVE SMOOTH",
"146 352 OFFCURVE",
"112 393 OFFCURVE",
"112 455 CURVE SMOOTH",
"112 542 OFFCURVE",
"164 630 OFFCURVE",
"247 630 CURVE SMOOTH",
"275 630 OFFCURVE",
"299 621 OFFCURVE",
"316 602 CURVE",
"311 616 LINE",
"309 565 LINE SMOOTH",
"310 560 OFFCURVE",
"319 556 OFFCURVE",
"330 555 CURVE",
"352 633 LINE",
"329 649 OFFCURVE",
"296 658 OFFCURVE",
"261 658 CURVE SMOOTH",
"154 658 OFFCURVE",
"63 559 OFFCURVE",
"63 448 CURVE SMOOTH",
"63 373 OFFCURVE",
"111 324 OFFCURVE",
"193 324 CURVE SMOOTH"
);
}
);
width = 313.76923;
}
);
leftKerningGroup = O.sup;
rightKerningGroup = C.sup;
userData = {
RMXScaler = {
source = C;
};
};
},
{
export = 0;
glyphname = M.sup;
layers = (
{
layerId = "E1BF09ED-4302-4AD3-9939-8FDA35DE0FE8";
paths = (
{
closed = 1;
nodes = (
"231 329 OFFCURVE",
"235 332 OFFCURVE",
"239 340 CURVE SMOOTH",
"390 631 LINE",
"384 631 LINE",
"362 349 LINE",
"367 358 LINE",
"329 346 LINE SMOOTH",
"324 344 OFFCURVE",
"321 337 OFFCURVE",
"320 332 CURVE",
"420 332 LINE SMOOTH",
"427 332 OFFCURVE",
"430 336 OFFCURVE",
"432 348 CURVE",
"389 358 LINE",
"393 351 LINE",
"415 633 LINE",
"408 624 LINE",
"448 634 LINE SMOOTH",
"452 635 OFFCURVE",
"456 642 OFFCURVE",
"458 651 CURVE",
"379 651 LINE",
"237 376 LINE",
"245 376 LINE",
"186 649 LINE",
"121 649 LINE SMOOTH",
"114 649 OFFCURVE",
"111 645 OFFCURVE",
"109 633 CURVE",
"147 622 LINE",
"146 631 LINE",
"75 349 LINE",
"81 357 LINE",
"47 346 LINE SMOOTH",
"41 344 OFFCURVE",
"38 338 OFFCURVE",
"37 332 CURVE",
"124 332 LINE SMOOTH",
"131 332 OFFCURVE",
"134 336 OFFCURVE",
"136 348 CURVE",
"94 358 LINE",
"96 351 LINE",
"165 628 LINE",
"158 628 LINE",
"222 331 LINE",
"223 329 OFFCURVE",
"225 329 OFFCURVE",
"228 329 CURVE SMOOTH"
);
}
);
userData = {
RMXScaler = {
height = 50;
verticalShift = 330;
width = 52;
};
};
width = 429;
},
{
layerId = "7B53E429-1BF0-49C5-9F57-63EEBF39C6CC";
paths = (
{
closed = 1;
nodes = (
"238 329 OFFCURVE",
"251 333 OFFCURVE",
"257 344 CURVE SMOOTH",
"379 603 LINE",
"366 603 LINE",
"348 368 LINE",
"359 380 LINE",
"319 363 LINE SMOOTH",
"313 360 OFFCURVE",
"308 345 OFFCURVE",
"305 330 CURVE",
"448 330 LINE",
"458 343 OFFCURVE",
"463 353 OFFCURVE",
"465 369 CURVE",
"418 383 LINE",
"423 370 LINE",
"442 613 LINE",
"430 601 LINE",
"479 618 LINE SMOOTH",
"485 620 OFFCURVE",
"490 637 OFFCURVE",
"492 651 CURVE",
"354 651 LINE",
"250 433 LINE",
"275 433 LINE",
"231 651 LINE",
"108 651 LINE",
"99 638 OFFCURVE",
"94 629 OFFCURVE",
"92 612 CURVE",
"137 598 LINE",
"133 609 LINE",
"73 367 LINE",
"84 381 LINE",
"40 363 LINE SMOOTH",
"33 360 OFFCURVE",
"29 343 OFFCURVE",
"27 330 CURVE",
"154 330 LINE",
"164 343 OFFCURVE",
"169 352 OFFCURVE",
"171 369 CURVE",
"118 383 LINE",
"119 369 LINE",
"176 596 LINE",
"162 596 LINE",
"215 333 LINE",
"217 331 OFFCURVE",
"224 329 OFFCURVE",
"232 329 CURVE SMOOTH"
);
}
);
userData = {
RMXScaler = {
adjustSpace = 5;
height = 50;
verticalShift = 330;
weight = -100;
width = 52;
};
};
width = 451;
},
{
layerId = "3EF2C2DE-A0EB-47A2-88E7-F2C629C295C3";
paths = (
{
closed = 1;
nodes = (
"233 329 OFFCURVE",
"239 332 OFFCURVE",
"245 341 CURVE SMOOTH",
"386 622 LINE",
"379 622 LINE",
"358 355 LINE",
"364 365 LINE",
"326 351 LINE SMOOTH",
"320 348 OFFCURVE",
"317 340 OFFCURVE",
"316 331 CURVE",
"429 331 LINE SMOOTH",
"437 336 OFFCURVE",
"441 341 OFFCURVE",
"443 355 CURVE",
"399 366 LINE",
"403 357 LINE",
"424 626 LINE",
"415 616 LINE",
"458 630 LINE SMOOTH",
"463 631 OFFCURVE",
"467 640 OFFCURVE",
"469 651 CURVE",
"371 651 LINE",
"241 395 LINE",
"255 395 LINE",
"200 650 LINE",
"117 650 LINE SMOOTH",
"110 645 OFFCURVE",
"106 641 OFFCURVE",
"104 626 CURVE",
"144 614 LINE",
"142 624 LINE",
"74 355 LINE",
"82 365 LINE",
"45 351 LINE SMOOTH",
"38 348 OFFCURVE",
"35 340 OFFCURVE",
"34 331 CURVE",
"134 331 LINE SMOOTH",
"142 336 OFFCURVE",
"146 340 OFFCURVE",
"148 355 CURVE",
"102 366 LINE",
"104 357 LINE",
"169 617 LINE",
"159 617 LINE",
"220 332 LINE",
"221 330 OFFCURVE",
"225 329 OFFCURVE",
"229 329 CURVE SMOOTH"
);
}
);
width = 435.76923;
}
);
leftKerningGroup = M.sup;
rightKerningGroup = M.sup;
userData = {
RMXScaler = {
source = M;
};
};
},
{
export = 0;
glyphname = R.sup;
layers = (
{
anchors = (
{
name = bottom;
position = "{182, 330}";
},
{
name = top;
position = "{208, 651}";
}
);
layerId = "E1BF09ED-4302-4AD3-9939-8FDA35DE0FE8";
paths = (
{
closed = 1;
nodes = (
"304 325 OFFCURVE",
"315 330 OFFCURVE",
"322 338 CURVE",
"279 359 OFFCURVE",
"233 429 OFFCURVE",
"219 489 CURVE",
"194 481 LINE",
"216 388 OFFCURVE",
"262 325 OFFCURVE",
"293 325 CURVE SMOOTH"
);
},
{
closed = 1;
nodes = (
"130 479 LINE",
"142 475 OFFCURVE",
"165 473 OFFCURVE",
"180 473 CURVE SMOOTH",
"252 473 OFFCURVE",
"308 519 OFFCURVE",
"308 578 CURVE SMOOTH",
"308 622 OFFCURVE",
"278 651 OFFCURVE",
"227 649 CURVE SMOOTH",
"111 649 LINE SMOOTH",
"104 649 OFFCURVE",
"101 644 OFFCURVE",
"100 635 CURVE",
"138 626 LINE",
"132 634 LINE",
"87 347 LINE",
"95 354 LINE",
"61 345 LINE SMOOTH",
"55 343 OFFCURVE",
"52 339 OFFCURVE",
"51 331 CURVE",
"144 331 LINE SMOOTH",
"151 331 OFFCURVE",
"154 336 OFFCURVE",
"155 345 CURVE",
"111 354 LINE",
"117 345 LINE",
"163 633 LINE",
"156 626 LINE",
"172 630 OFFCURVE",
"194 633 OFFCURVE",
"209 633 CURVE SMOOTH",
"250 633 OFFCURVE",
"273 612 OFFCURVE",
"273 572 CURVE SMOOTH",
"273 525 OFFCURVE",
"235 491 OFFCURVE",
"181 491 CURVE SMOOTH",
"162 491 OFFCURVE",
"140 494 OFFCURVE",
"133 497 CURVE"
);
}
);
userData = {
RMXScaler = {
height = 50;
verticalShift = 330;
width = 52;
};
};
width = 314;
},
{
anchors = (
{
name = bottom;
position = "{191, 330}";
},
{
name = top;
position = "{219, 651}";
}
);
layerId = "7B53E429-1BF0-49C5-9F57-63EEBF39C6CC";
paths = (
{
closed = 1;
nodes = (
"316 324 OFFCURVE",
"338 334 OFFCURVE",
"353 345 CURVE",
"319 374 OFFCURVE",
"288 432 OFFCURVE",
"272 497 CURVE",
"209 477 LINE",
"223 356 OFFCURVE",
"250 324 OFFCURVE",
"294 324 CURVE SMOOTH"
);
},
{
closed = 1;
nodes = (
"161 464 LINE",
"175 459 OFFCURVE",
"194 455 OFFCURVE",
"212 455 CURVE SMOOTH",
"288 455 OFFCURVE",
"344 505 OFFCURVE",
"344 572 CURVE SMOOTH",
"344 621 OFFCURVE",
"312 651 OFFCURVE",
"258 651 CURVE SMOOTH",
"105 651 LINE",
"97 641 OFFCURVE",
"92 632 OFFCURVE",
"89 616 CURVE",
"131 605 LINE",
"123 617 LINE",
"82 362 LINE",
"93 374 LINE",
"56 361 LINE SMOOTH",
"51 359 OFFCURVE",
"46 347 OFFCURVE",
"44 330 CURVE",
"183 330 LINE",
"191 340 OFFCURVE",
"195 348 OFFCURVE",
"198 364 CURVE",
"147 375 LINE",
"158 356 LINE",
"199 610 LINE",
"187 601 LINE",
"203 605 OFFCURVE",
"215 606 OFFCURVE",
"222 606 CURVE SMOOTH",
"250 606 OFFCURVE",
"263 593 OFFCURVE",
"263 566 CURVE SMOOTH",
"263 528 OFFCURVE",
"238 501 OFFCURVE",
"203 501 CURVE SMOOTH",
"193 501 OFFCURVE",
"178 504 OFFCURVE",
"170 507 CURVE"
);
}
);
userData = {
RMXScaler = {
adjustSpace = 5;
height = 50;
verticalShift = 330;
weight = -100;
width = 52;
};
};
width = 345;
},
{
anchors = (
{
name = bottom;
position = "{185, 330}";
},
{
name = top;
position = "{212, 651}";
}
);
layerId = "3EF2C2DE-A0EB-47A2-88E7-F2C629C295C3";
paths = (
{
closed = 1;
nodes = (
"308 325 OFFCURVE",
"323 331 OFFCURVE",
"332 340 CURVE",
"292 363 OFFCURVE",
"251 430 OFFCURVE",
"236 492 CURVE",
"198 480 LINE",
"218 377 OFFCURVE",
"258 325 OFFCURVE",
"293 325 CURVE SMOOTH"
);
},
{
closed = 1;
nodes = (
"140 475 LINE",
"153 471 OFFCURVE",
"175 468 OFFCURVE",
"191 468 CURVE SMOOTH",
"264 468 OFFCURVE",
"320 515 OFFCURVE",
"320 576 CURVE SMOOTH",
"320 622 OFFCURVE",
"289 651 OFFCURVE",
"237 650 CURVE SMOOTH",
"109 650 LINE SMOOTH",
"102 646 OFFCURVE",
"98 640 OFFCURVE",
"96 629 CURVE",
"136 619 LINE",
"129 629 LINE",
"85 351 LINE",
"94 361 LINE",
"59 349 LINE SMOOTH",
"54 347 OFFCURVE",
"50 342 OFFCURVE",
"49 331 CURVE",
"156 331 LINE SMOOTH",
"164 334 OFFCURVE",
"167 340 OFFCURVE",
"169 351 CURVE",
"123 361 LINE",
"130 349 LINE",
"175 625 LINE",
"166 618 LINE",
"182 622 OFFCURVE",
"201 624 OFFCURVE",
"213 624 CURVE SMOOTH",
"250 624 OFFCURVE",
"270 606 OFFCURVE",
"270 570 CURVE SMOOTH",
"270 526 OFFCURVE",
"236 494 OFFCURVE",
"188 494 CURVE SMOOTH",
"172 494 OFFCURVE",
"152 497 OFFCURVE",
"145 500 CURVE"
);
}
);
width = 323.65385;
}
);
leftKerningGroup = H.sup;
rightKerningGroup = R.sup;
userData = {
RMXScaler = {
source = R;
};
};
},
{
export = 0;
glyphname = S.sup;
layers = (
{
layerId = "E1BF09ED-4302-4AD3-9939-8FDA35DE0FE8";
paths = (
{
closed = 1;
nodes = (
"210 324 OFFCURVE",
"258 376 OFFCURVE",
"258 433 CURVE SMOOTH",
"258 475 OFFCURVE",
"227 492 OFFCURVE",
"184 511 CURVE SMOOTH",
"146 528 OFFCURVE",
"122 543 OFFCURVE",
"122 572 CURVE SMOOTH",
"122 607 OFFCURVE",
"148 639 OFFCURVE",
"190 639 CURVE SMOOTH",
"223 639 OFFCURVE",
"241 624 OFFCURVE",
"251 613 CURVE",
"245 629 LINE",
"243 578 LINE SMOOTH",
"244 573 OFFCURVE",
"251 569 OFFCURVE",
"260 569 CURVE",
"277 632 LINE",
"256 644 OFFCURVE",
"228 658 OFFCURVE",
"195 658 CURVE SMOOTH",
"134 658 OFFCURVE",
"92 613 OFFCURVE",
"92 557 CURVE SMOOTH",
"92 517 OFFCURVE",
"121 500 OFFCURVE",
"163 481 CURVE SMOOTH",
"199 465 OFFCURVE",
"223 450 OFFCURVE",
"223 419 CURVE SMOOTH",
"223 373 OFFCURVE",
"188 342 OFFCURVE",
"144 342 CURVE SMOOTH",
"112 342 OFFCURVE",
"84 359 OFFCURVE",
"72 369 CURVE",
"78 351 LINE",
"85 423 LINE",
"79 423 OFFCURVE",
"69 422 OFFCURVE",
"62 416 CURVE",
"46 352 LINE",
"68 340 OFFCURVE",
"106 324 OFFCURVE",
"144 324 CURVE SMOOTH"
);
}
);
userData = {
RMXScaler = {
height = 50;
verticalShift = 330;
width = 52;
};
};
width = 252;
},
{
layerId = "7B53E429-1BF0-49C5-9F57-63EEBF39C6CC";
paths = (
{
closed = 1;
nodes = (
"237 324 OFFCURVE",
"288 378 OFFCURVE",
"288 441 CURVE SMOOTH",
"288 495 OFFCURVE",
"243 513 OFFCURVE",
"206 530 CURVE SMOOTH",
"182 541 OFFCURVE",
"158 550 OFFCURVE",
"158 572 CURVE SMOOTH",
"158 599 OFFCURVE",
"176 613 OFFCURVE",
"202 613 CURVE SMOOTH",
"240 613 OFFCURVE",
"252 595 OFFCURVE",
"256 584 CURVE",
"244 614 LINE",
"246 555 LINE SMOOTH",
"247 547 OFFCURVE",
"263 544 OFFCURVE",
"280 543 CURVE",
"304 627 LINE",
"292 637 OFFCURVE",
"256 658 OFFCURVE",
"207 658 CURVE SMOOTH",
"134 658 OFFCURVE",
"87 605 OFFCURVE",
"87 542 CURVE SMOOTH",
"87 493 OFFCURVE",
"124 475 OFFCURVE",
"159 459 CURVE SMOOTH",
"188 445 OFFCURVE",
"209 436 OFFCURVE",
"209 412 CURVE SMOOTH",
"209 383 OFFCURVE",
"185 368 OFFCURVE",
"154 368 CURVE SMOOTH",
"118 368 OFFCURVE",
"103 388 OFFCURVE",
"98 397 CURVE",
"108 381 LINE",
"111 451 LINE",
"97 451 OFFCURVE",
"79 450 OFFCURVE",
"70 444 CURVE",
"42 358 LINE",
"60 345 OFFCURVE",
"102 324 OFFCURVE",
"158 324 CURVE SMOOTH"
);
}
);
userData = {
RMXScaler = {
adjustSpace = 5;
height = 50;
verticalShift = 330;
weight = -100;
width = 52;
};
};
width = 277;
},
{
layerId = "3EF2C2DE-A0EB-47A2-88E7-F2C629C295C3";
paths = (
{
closed = 1;
nodes = (
"219 324 OFFCURVE",
"268 377 OFFCURVE",
"268 436 CURVE SMOOTH",
"268 482 OFFCURVE",
"231 499 OFFCURVE",
"191 517 CURVE SMOOTH",
"158 532 OFFCURVE",
"134 545 OFFCURVE",
"134 572 CURVE SMOOTH",
"134 604 OFFCURVE",
"157 630 OFFCURVE",
"194 630 CURVE SMOOTH",
"228 630 OFFCURVE",
"245 614 OFFCURVE",
"253 603 CURVE",
"245 625 LINE",
"244 570 LINE SMOOTH",
"245 564 OFFCURVE",
"255 561 OFFCURVE",
"267 560 CURVE",
"286 630 LINE",
"268 642 OFFCURVE",
"237 658 OFFCURVE",
"199 658 CURVE SMOOTH",
"134 658 OFFCURVE",
"90 610 OFFCURVE",
"90 553 CURVE SMOOTH",
"90 509 OFFCURVE",
"122 492 OFFCURVE",
"162 474 CURVE SMOOTH",
"195 458 OFFCURVE",
"219 446 OFFCURVE",
"219 417 CURVE SMOOTH",
"219 376 OFFCURVE",
"187 351 OFFCURVE",
"147 351 CURVE SMOOTH",
"114 351 OFFCURVE",
"90 369 OFFCURVE",
"81 378 CURVE",
"88 361 LINE",
"94 432 LINE",
"85 432 OFFCURVE",
"72 431 OFFCURVE",
"65 425 CURVE",
"45 354 LINE",
"65 342 OFFCURVE",
"105 324 OFFCURVE",
"148 324 CURVE SMOOTH"
);
}
);
width = 259.73077;
}
);
leftKerningGroup = S.sup;
rightKerningGroup = S.sup;
userData = {
RMXScaler = {
source = S;
};
};
},
{
export = 0;
glyphname = T.sup;
layers = (
{
layerId = "E1BF09ED-4302-4AD3-9939-8FDA35DE0FE8";
paths = (
{
closed = 1;
nodes = (
"217 332 LINE SMOOTH",
"223 332 OFFCURVE",
"226 336 OFFCURVE",
"227 348 CURVE",
"178 358 LINE",
"182 352 LINE",
"226 631 LINE",
"220 625 LINE",
"318 633 LINE",
"313 638 LINE",
"319 586 LINE SMOOTH",
"320 580 OFFCURVE",
"326 578 OFFCURVE",
"333 578 CURVE",
"344 651 LINE",
"83 651 LINE",
"71 578 LINE",
"78 578 OFFCURVE",
"85 580 OFFCURVE",
"87 586 CURVE SMOOTH",
"111 638 LINE",
"103 633 LINE",
"199 625 LINE",
"195 631 LINE",
"151 351 LINE",
"157 357 LINE",
"117 346 LINE SMOOTH",
"111 344 OFFCURVE",
"107 336 OFFCURVE",
"107 332 CURVE"
);
}
);
userData = {
RMXScaler = {
height = 50;
verticalShift = 330;
width = 52;
};
};
width = 291;
},
{
layerId = "7B53E429-1BF0-49C5-9F57-63EEBF39C6CC";
paths = (
{
closed = 1;
nodes = (
"258 330 LINE",
"268 343 OFFCURVE",
"272 351 OFFCURVE",
"274 368 CURVE",
"213 383 LINE",
"221 372 LINE",
"258 603 LINE",
"252 598 LINE",
"318 608 LINE",
"312 612 LINE",
"323 560 LINE SMOOTH",
"324 554 OFFCURVE",
"335 551 OFFCURVE",
"352 551 CURVE",
"367 651 LINE",
"85 651 LINE",
"69 551 LINE",
"87 551 OFFCURVE",
"98 554 OFFCURVE",
"101 560 CURVE SMOOTH",
"128 612 LINE",
"122 608 LINE",
"184 598 LINE",
"180 603 LINE",
"143 368 LINE",
"152 382 LINE",
"101 362 LINE SMOOTH",
"95 360 OFFCURVE",
"91 343 OFFCURVE",
"89 330 CURVE"
);
}
);
userData = {
RMXScaler = {
adjustSpace = 5;
height = 50;
verticalShift = 330;
weight = -100;
width = 52;
};
};
width = 316;
},
{
layerId = "3EF2C2DE-A0EB-47A2-88E7-F2C629C295C3";
paths = (
{
closed = 1;
nodes = (
"230 331 LINE SMOOTH",
"237 336 OFFCURVE",
"241 340 OFFCURVE",
"242 355 CURVE",
"190 366 LINE",
"194 359 LINE",
"237 622 LINE",
"231 616 LINE",
"318 625 LINE",
"313 629 LINE",
"320 577 LINE SMOOTH",
"321 571 OFFCURVE",
"329 569 OFFCURVE",
"339 569 CURVE",
"352 651 LINE",
"84 651 LINE",
"70 569 LINE",
"81 569 OFFCURVE",
"89 571 OFFCURVE",
"91 577 CURVE SMOOTH",
"116 629 LINE",
"109 625 LINE",
"195 616 LINE",
"191 622 LINE",
"148 356 LINE",
"155 365 LINE",
"113 350 LINE SMOOTH",
"107 348 OFFCURVE",
"103 338 OFFCURVE",
"102 331 CURVE"
);
}
);
width = 298.73077;
}
);
leftKerningGroup = T.sup;
rightKerningGroup = T.sup;
userData = {
RMXScaler = {
source = T;
};
};
},
{
color = 4;
glyphname = a;
layers = (
{
anchors = (
{
name = bottom;
position = "{245, 0}";
},
{
name = ogonek;
position = "{472, 9}";
},
{
name = top;
position = "{323, 443}";
}
);
guideLines = (
{
angle = 5.3145;
position = "{14, 157}";
}
);
layerId = "7B53E429-1BF0-49C5-9F57-63EEBF39C6CC";
paths = (
{
closed = 1;
nodes = (
"201 -12 OFFCURVE",
"260 16 OFFCURVE",
"296 79 CURVE",
"300 79 LINE",
"300 55 OFFCURVE",
"308 31 OFFCURVE",
"324 13 CURVE SMOOTH",
"338 -2 OFFCURVE",
"358 -12 OFFCURVE",
"385 -12 CURVE SMOOTH",
"448 -12 OFFCURVE",
"510 24 OFFCURVE",
"543 58 CURVE",
"517 110 LINE",
"504 103 OFFCURVE",
"490 100 OFFCURVE",
"484 100 CURVE SMOOTH",
"471 100 OFFCURVE",
"463 107 OFFCURVE",
"463 132 CURVE SMOOTH",
"463 222 OFFCURVE",
"529 403 OFFCURVE",
"529 424 CURVE SMOOTH",
"529 456 OFFCURVE",
"495 462 OFFCURVE",
"448 462 CURVE",
"342 410 LINE",
"316 174 OFFCURVE",
"280 97 OFFCURVE",
"236 97 CURVE SMOOTH",
"207 97 OFFCURVE",
"197 124 OFFCURVE",
"197 174 CURVE SMOOTH",
"197 237 OFFCURVE",
"224 399 OFFCURVE",
"310 399 CURVE SMOOTH",
"376 399 OFFCURVE",
"413 367 OFFCURVE",
"426 352 CURVE",
"457 401 LINE",
"415 449 OFFCURVE",
"363 462 OFFCURVE",
"300 462 CURVE SMOOTH",
"144 462 OFFCURVE",
"14 331 OFFCURVE",
"14 157 CURVE SMOOTH",
"14 35 OFFCURVE",
"68 -12 OFFCURVE",
"151 -12 CURVE SMOOTH"
);
}
);
width = 562;
},
{
anchors = (
{
name = bottom;
position = "{210, 0}";
},
{
name = ogonek;
position = "{412, 9}";
},
{
name = top;
position = "{288, 443}";
}
);
guideLines = (
{
angle = 254.6631;
position = "{309, 462}";
},
{
angle = -78.3664;
position = "{309, 462}";
}
);
layerId = "E1BF09ED-4302-4AD3-9939-8FDA35DE0FE8";
paths = (
{
closed = 1;
nodes = (
"245 -12 OFFCURVE",
"298 36 OFFCURVE",
"327 123 CURVE",
"333 123 LINE",
"329 97 OFFCURVE",
"326 70 OFFCURVE",
"326 44 CURVE SMOOTH",
"326 6 OFFCURVE",
"341 -12 OFFCURVE",
"361 -12 CURVE SMOOTH",
"379 -12 OFFCURVE",
"397 -9 OFFCURVE",
"431 25 CURVE",
"426 36 LINE",
"409 25 OFFCURVE",
"396 19 OFFCURVE",
"378 19 CURVE SMOOTH",
"361 19 OFFCURVE",
"355 27 OFFCURVE",
"355 47 CURVE SMOOTH",
"355 174 OFFCURVE",
"424 437 OFFCURVE",
"424 454 CURVE SMOOTH",
"424 461 OFFCURVE",
"417 462 OFFCURVE",
"407 462 CURVE",
"392 437 LINE",
"331 116 OFFCURVE",
"288 10 OFFCURVE",
"188 10 CURVE SMOOTH",
"110 10 OFFCURVE",
"87 100 OFFCURVE",
"87 163 CURVE SMOOTH",
"87 330 OFFCURVE",
"187 444 OFFCURVE",
"313 444 CURVE SMOOTH",
"354 444 OFFCURVE",
"387 433 OFFCURVE",
"406 423 CURVE",
"408 435 LINE",
"380 454 OFFCURVE",
"348 462 OFFCURVE",
"309 462 CURVE SMOOTH",
"164 462 OFFCURVE",
"55 331 OFFCURVE",
"55 157 CURVE SMOOTH",
"55 48 OFFCURVE",
"99 -12 OFFCURVE",
"179 -12 CURVE SMOOTH"
);
}
);
width = 496;
},
{
anchors = (
{
name = bottom;
position = "{216, 0}";
},
{
name = ogonek;
position = "{418, 9}";
},
{
name = top;
position = "{294, 443}";
}
);
layerId = "3EF2C2DE-A0EB-47A2-88E7-F2C629C295C3";
paths = (
{
closed = 1;
nodes = (
"224 -12 OFFCURVE",
"278 31 OFFCURVE",
"308 109 CURVE",
"312 109 LINE",
"308 88 OFFCURVE",
"306 67 OFFCURVE",
"307 51 CURVE SMOOTH",
"307 10 OFFCURVE",
"324 -12 OFFCURVE",
"357 -12 CURVE SMOOTH",
"387 -12 OFFCURVE",
"428 9 OFFCURVE",
"462 43 CURVE",
"450 66 LINE",
"433 55 OFFCURVE",
"417 49 OFFCURVE",
"403 49 CURVE SMOOTH",
"387 49 OFFCURVE",
"381 57 OFFCURVE",
"381 76 CURVE SMOOTH",
"381 191 OFFCURVE",
"450 428 OFFCURVE",
"450 443 CURVE SMOOTH",
"450 459 OFFCURVE",
"433 462 OFFCURVE",
"411 462 CURVE",
"366 424 LINE",
"326 148 OFFCURVE",
"277 35 OFFCURVE",
"196 35 CURVE SMOOTH",
"144 35 OFFCURVE",
"120 82 OFFCURVE",
"120 165 CURVE SMOOTH",
"120 317 OFFCURVE",
"192 429 OFFCURVE",
"296 429 CURVE SMOOTH",
"369 429 OFFCURVE",
"401 400 OFFCURVE",
"417 386 CURVE",
"420 414 LINE",
"384 447 OFFCURVE",
"343 462 OFFCURVE",
"289 462 CURVE SMOOTH",
"146 462 OFFCURVE",
"36 331 OFFCURVE",
"36 157 CURVE SMOOTH",
"36 48 OFFCURVE",
"81 -12 OFFCURVE",
"159 -12 CURVE SMOOTH"
);
}
);
width = 503.61538;
}
);
leftKerningGroup = o;
leftMetricsKey = "=o";
rightKerningGroup = a;
unicode = 0061;
},
{
color = 4;
glyphname = ae;
layers = (
{
anchors = (
{
name = bottom;
position = "{318.918, 0}";
},
{
name = top;
position = "{409, 443}";
}
);
components = (
{
name = a.ae;
},
{
name = e;
transform = "{1, 0, 0, 1, 288, 0}";
}
);
layerId = "E1BF09ED-4302-4AD3-9939-8FDA35DE0FE8";
width = 708;
},
{
anchors = (
{
name = bottom;
position = "{351.918, 0}";
},
{
name = top;
position = "{432, 443}";
}
);
background = {
paths = (
{
closed = 1;
nodes = (
"201 -12 OFFCURVE",
"260 16 OFFCURVE",
"296 79 CURVE",
"300 79 LINE",
"300 55 OFFCURVE",
"308 31 OFFCURVE",
"324 13 CURVE SMOOTH",
"338 -2 OFFCURVE",
"358 -12 OFFCURVE",
"385 -12 CURVE SMOOTH",
"448 -12 OFFCURVE",
"510 24 OFFCURVE",
"543 58 CURVE",
"517 110 LINE",
"504 103 OFFCURVE",
"490 100 OFFCURVE",
"484 100 CURVE SMOOTH",
"471 100 OFFCURVE",
"463 107 OFFCURVE",
"463 132 CURVE SMOOTH",
"463 222 OFFCURVE",
"529 403 OFFCURVE",
"529 424 CURVE SMOOTH",
"529 456 OFFCURVE",
"495 462 OFFCURVE",
"448 462 CURVE",
"342 410 LINE",
"316 174 OFFCURVE",
"280 97 OFFCURVE",
"236 97 CURVE SMOOTH",
"207 97 OFFCURVE",
"197 124 OFFCURVE",
"197 174 CURVE SMOOTH",
"197 237 OFFCURVE",
"224 399 OFFCURVE",
"310 399 CURVE SMOOTH",
"376 399 OFFCURVE",
"413 367 OFFCURVE",
"426 352 CURVE",
"457 401 LINE",
"415 449 OFFCURVE",
"363 462 OFFCURVE",
"300 462 CURVE SMOOTH",
"144 462 OFFCURVE",
"14 331 OFFCURVE",
"14 157 CURVE SMOOTH",
"14 35 OFFCURVE",
"68 -12 OFFCURVE",
"151 -12 CURVE SMOOTH"
);
}
);
};
components = (
{
name = a.ae;
},
{
name = e;
transform = "{1, 0, 0, 1, 298, 0}";
}
);
layerId = "7B53E429-1BF0-49C5-9F57-63EEBF39C6CC";
width = 774;
},
{
anchors = (
{
name = bottom;
position = "{319, 0}";
},
{
name = top;
position = "{409, 443}";
}
);
background = {
paths = (
{
closed = 1;
nodes = (
"224 -12 OFFCURVE",
"278 31 OFFCURVE",
"308 109 CURVE",
"312 109 LINE",
"308 88 OFFCURVE",
"306 67 OFFCURVE",
"307 51 CURVE SMOOTH",
"307 10 OFFCURVE",
"324 -12 OFFCURVE",
"357 -12 CURVE SMOOTH",
"387 -12 OFFCURVE",
"428 9 OFFCURVE",
"462 43 CURVE",
"450 66 LINE",
"433 55 OFFCURVE",
"417 49 OFFCURVE",
"403 49 CURVE SMOOTH",
"387 49 OFFCURVE",
"381 57 OFFCURVE",
"381 76 CURVE SMOOTH",
"381 191 OFFCURVE",
"450 428 OFFCURVE",
"450 443 CURVE SMOOTH",
"450 459 OFFCURVE",
"433 462 OFFCURVE",
"411 462 CURVE",
"366 424 LINE",
"326 148 OFFCURVE",
"277 35 OFFCURVE",
"196 35 CURVE SMOOTH",
"144 35 OFFCURVE",
"120 82 OFFCURVE",
"120 165 CURVE SMOOTH",
"120 317 OFFCURVE",
"192 429 OFFCURVE",
"296 429 CURVE SMOOTH",
"369 429 OFFCURVE",
"401 400 OFFCURVE",
"417 386 CURVE",
"420 414 LINE",
"384 447 OFFCURVE",
"343 462 OFFCURVE",
"289 462 CURVE SMOOTH",
"146 462 OFFCURVE",
"36 331 OFFCURVE",
"36 157 CURVE SMOOTH",
"36 48 OFFCURVE",
"81 -12 OFFCURVE",
"159 -12 CURVE SMOOTH"
);
}
);
};
components = (
{
name = a.ae;
},
{
name = e;
transform = "{1, 0, 0, 1, 284, 0}";
}
);
layerId = "3EF2C2DE-A0EB-47A2-88E7-F2C629C295C3";
width = 715;
}
);
leftKerningGroup = o;
rightKerningGroup = e;
rightMetricsKey = e;
unicode = 00E6;
},
{
color = 4;
glyphname = b;
layers = (
{
anchors = (
{
name = bottom;
position = "{255, 7}";
},
{
name = top;
position = "{383, 733}";
}
);
layerId = "7B53E429-1BF0-49C5-9F57-63EEBF39C6CC";
paths = (
{
closed = 1;
nodes = (
"221 40 LINE",
"247 276 OFFCURVE",
"283 353 OFFCURVE",
"327 353 CURVE SMOOTH",
"356 353 OFFCURVE",
"366 326 OFFCURVE",
"366 276 CURVE SMOOTH",
"366 213 OFFCURVE",
"339 51 OFFCURVE",
"253 51 CURVE SMOOTH",
"187 51 OFFCURVE",
"150 83 OFFCURVE",
"137 98 CURVE",
"106 49 LINE",
"148 1 OFFCURVE",
"200 -12 OFFCURVE",
"263 -12 CURVE SMOOTH",
"419 -12 OFFCURVE",
"549 119 OFFCURVE",
"549 293 CURVE SMOOTH",
"549 415 OFFCURVE",
"495 462 OFFCURVE",
"412 462 CURVE SMOOTH",
"362 462 OFFCURVE",
"303 434 OFFCURVE",
"267 371 CURVE",
"263 371 LINE",
"293 472 OFFCURVE",
"325 593 OFFCURVE",
"325 657 CURVE SMOOTH",
"325 694 OFFCURVE",
"298 734 OFFCURVE",
"241 734 CURVE SMOOTH",
"193 734 OFFCURVE",
"120 706 OFFCURVE",
"63 664 CURVE",
"89 615 LINE",
"125 628 OFFCURVE",
"159 634 OFFCURVE",
"188 634 CURVE SMOOTH",
"210 634 OFFCURVE",
"228 631 OFFCURVE",
"241 624 CURVE",
"159 679 LINE",
"159 569 OFFCURVE",
"34 42 OFFCURVE",
"34 26 CURVE SMOOTH",
"34 -6 OFFCURVE",
"68 -12 OFFCURVE",
"115 -12 CURVE"
);
}
);
width = 562;
},
{
anchors = (
{
name = bottom;
position = "{721, 0}";
},
{
name = top;
position = "{849, 726}";
}
);
layerId = "E1BF09ED-4302-4AD3-9939-8FDA35DE0FE8";
paths = (
{
closed = 1;
nodes = (
"101 13 LINE",
"162 334 OFFCURVE",
"205 440 OFFCURVE",
"305 440 CURVE SMOOTH",
"383 440 OFFCURVE",
"406 350 OFFCURVE",
"406 287 CURVE SMOOTH",
"406 120 OFFCURVE",
"306 6 OFFCURVE",
"180 6 CURVE SMOOTH",
"139 6 OFFCURVE",
"106 17 OFFCURVE",
"87 27 CURVE",
"85 15 LINE",
"113 -4 OFFCURVE",
"145 -12 OFFCURVE",
"184 -12 CURVE SMOOTH",
"329 -12 OFFCURVE",
"438 119 OFFCURVE",
"438 293 CURVE SMOOTH",
"438 402 OFFCURVE",
"394 462 OFFCURVE",
"314 462 CURVE SMOOTH",
"248 462 OFFCURVE",
"195 414 OFFCURVE",
"166 327 CURVE",
"160 327 LINE",
"185 450 OFFCURVE",
"212 621 OFFCURVE",
"212 697 CURVE SMOOTH",
"212 719 OFFCURVE",
"202 733 OFFCURVE",
"168 733 CURVE SMOOTH",
"147 733 OFFCURVE",
"124 724 OFFCURVE",
"100 701 CURVE",
"104 690 LINE",
"122 700 OFFCURVE",
"141 706 OFFCURVE",
"163 706 CURVE SMOOTH",
"173 706 OFFCURVE",
"185 704 OFFCURVE",
"197 698 CURVE",
"191 713 LINE",
"176 458 OFFCURVE",
"69 9 OFFCURVE",
"69 -4 CURVE SMOOTH",
"69 -11 OFFCURVE",
"76 -12 OFFCURVE",
"86 -12 CURVE"
);
}
);
width = 491;
},
{
anchors = (
{
name = bottom;
position = "{279, 0}";
},
{
name = top;
position = "{407, 726}";
}
);
layerId = "3EF2C2DE-A0EB-47A2-88E7-F2C629C295C3";
paths = (
{
closed = 1;
nodes = (
"129 27 LINE",
"169 303 OFFCURVE",
"218 416 OFFCURVE",
"299 416 CURVE SMOOTH",
"351 416 OFFCURVE",
"375 369 OFFCURVE",
"375 286 CURVE SMOOTH",
"375 134 OFFCURVE",
"302 22 OFFCURVE",
"199 22 CURVE SMOOTH",
"125 22 OFFCURVE",
"93 51 OFFCURVE",
"78 65 CURVE",
"75 37 LINE",
"111 4 OFFCURVE",
"152 -11 OFFCURVE",
"205 -11 CURVE SMOOTH",
"350 -11 OFFCURVE",
"459 120 OFFCURVE",
"459 294 CURVE SMOOTH",
"459 403 OFFCURVE",
"415 463 OFFCURVE",
"336 463 CURVE SMOOTH",
"269 463 OFFCURVE",
"212 418 OFFCURVE",
"180 335 CURVE",
"176 335 LINE",
"203 449 OFFCURVE",
"231 603 OFFCURVE",
"231 675 CURVE SMOOTH",
"231 714 OFFCURVE",
"214 734 OFFCURVE",
"179 734 CURVE SMOOTH",
"149 734 OFFCURVE",
"107 713 OFFCURVE",
"74 680 CURVE",
"86 656 LINE",
"108 666 OFFCURVE",
"129 670 OFFCURVE",
"148 670 CURVE SMOOTH",
"162 670 OFFCURVE",
"173 668 OFFCURVE",
"181 663 CURVE",
"165 682 LINE",
"164 553 OFFCURVE",
"45 23 OFFCURVE",
"45 8 CURVE SMOOTH",
"45 -8 OFFCURVE",
"61 -12 OFFCURVE",
"83 -12 CURVE"
);
}
);
width = 493.73077;
}
);
leftKerningGroup = l;
leftMetricsKey = l;
rightKerningGroup = o;
rightMetricsKey = o;
unicode = 0062;
},
{
color = 4;
glyphname = c;
layers = (
{
anchors = (
{
name = bottom;
position = "{192, 0}";
},
{
name = top;
position = "{293, 443}";
}
);
guideLines = (
{
angle = 13.0919;
position = "{14, 159}";
}
);
layerId = "7B53E429-1BF0-49C5-9F57-63EEBF39C6CC";
paths = (
{
closed = 1;
nodes = (
"288 -12 OFFCURVE",
"369 28 OFFCURVE",
"431 106 CURVE",
"394 154 LINE",
"356 115 OFFCURVE",
"308 92 OFFCURVE",
"261 92 CURVE SMOOTH",
"217 92 OFFCURVE",
"193 124 OFFCURVE",
"193 185 CURVE SMOOTH",
"193 298 OFFCURVE",
"240 399 OFFCURVE",
"292 399 CURVE SMOOTH",
"318 399 OFFCURVE",
"330 380 OFFCURVE",
"330 337 CURVE SMOOTH",
"330 317 OFFCURVE",
"328 299 OFFCURVE",
"323 281 CURVE",
"343 276 OFFCURVE",
"363 273 OFFCURVE",
"380 273 CURVE SMOOTH",
"437 273 OFFCURVE",
"475 306 OFFCURVE",
"475 357 CURVE SMOOTH",
"475 420 OFFCURVE",
"412 462 OFFCURVE",
"317 462 CURVE SMOOTH",
"149 462 OFFCURVE",
"14 327 OFFCURVE",
"14 161 CURVE SMOOTH",
"14 48 OFFCURVE",
"77 -12 OFFCURVE",
"193 -12 CURVE SMOOTH"
);
}
);
width = 471;
},
{
anchors = (
{
name = bottom;
position = "{171, 0}";
},
{
name = top;
position = "{272, 443}";
}
);
layerId = "E1BF09ED-4302-4AD3-9939-8FDA35DE0FE8";
paths = (
{
closed = 1;
nodes = (
"254 -12 OFFCURVE",
"312 23 OFFCURVE",
"360 93 CURVE",
"351 102 LINE",
"298 36 OFFCURVE",
"256 10 OFFCURVE",
"204 10 CURVE SMOOTH",
"129 10 OFFCURVE",
"85 68 OFFCURVE",
"85 169 CURVE SMOOTH",
"85 321 OFFCURVE",
"175 446 OFFCURVE",
"285 446 CURVE SMOOTH",
"335 446 OFFCURVE",
"358 421 OFFCURVE",
"358 369 CURVE SMOOTH",
"358 355 OFFCURVE",
"355 340 OFFCURVE",
"350 325 CURVE",
"355 323 OFFCURVE",
"360 322 OFFCURVE",
"364 322 CURVE SMOOTH",
"381 322 OFFCURVE",
"392 341 OFFCURVE",
"392 371 CURVE SMOOTH",
"392 427 OFFCURVE",
"354 462 OFFCURVE",
"291 462 CURVE SMOOTH",
"165 462 OFFCURVE",
"53 316 OFFCURVE",
"53 151 CURVE SMOOTH",
"53 45 OFFCURVE",
"100 -12 OFFCURVE",
"186 -12 CURVE SMOOTH"
);
}
);
width = 420;
},
{
anchors = (
{
name = bottom;
position = "{173, 0}";
},
{
name = top;
position = "{274, 443}";
}
);
background = {
paths = (
{
closed = 1;
nodes = (
"250 -12 OFFCURVE",
"314 28 OFFCURVE",
"361 104 CURVE",
"347 119 LINE",
"299 55 OFFCURVE",
"254 27 OFFCURVE",
"200 27 CURVE SMOOTH",
"144 27 OFFCURVE",
"114 79 OFFCURVE",
"114 178 CURVE SMOOTH",
"114 324 OFFCURVE",
"175 430 OFFCURVE",
"261 430 CURVE SMOOTH",
"305 430 OFFCURVE",
"329 400 OFFCURVE",
"329 346 CURVE SMOOTH",
"329 333 OFFCURVE",
"328 321 OFFCURVE",
"326 307 CURVE",
"336 304 OFFCURVE",
"345 302 OFFCURVE",
"354 302 CURVE SMOOTH",
"385 302 OFFCURVE",
"405 324 OFFCURVE",
"405 362 CURVE SMOOTH",
"405 421 OFFCURVE",
"353 462 OFFCURVE",
"277 462 CURVE SMOOTH",
"143 462 OFFCURVE",
"30 323 OFFCURVE",
"30 158 CURVE SMOOTH",
"30 50 OFFCURVE",
"83 -12 OFFCURVE",
"174 -12 CURVE SMOOTH"
);
}
);
};
layerId = "3EF2C2DE-A0EB-47A2-88E7-F2C629C295C3";
paths = (
{
closed = 1;
nodes = (
"260 -12 OFFCURVE",
"325 25 OFFCURVE",
"378 97 CURVE",
"360 119 LINE",
"312 62 OFFCURVE",
"268 37 OFFCURVE",
"217 37 CURVE SMOOTH",
"153 37 OFFCURVE",
"115 86 OFFCURVE",
"115 174 CURVE SMOOTH",
"115 314 OFFCURVE",
"191 431 OFFCURVE",
"282 431 CURVE SMOOTH",
"324 431 OFFCURVE",
"344 408 OFFCURVE",
"344 359 CURVE SMOOTH",
"344 343 OFFCURVE",
"341 327 OFFCURVE",
"336 311 CURVE",
"346 308 OFFCURVE",
"356 306 OFFCURVE",
"364 306 CURVE SMOOTH",
"394 306 OFFCURVE",
"414 330 OFFCURVE",
"414 366 CURVE SMOOTH",
"414 425 OFFCURVE",
"368 462 OFFCURVE",
"294 462 CURVE SMOOTH",
"155 462 OFFCURVE",
"35 320 OFFCURVE",
"35 154 CURVE SMOOTH",
"35 46 OFFCURVE",
"88 -12 OFFCURVE",
"183 -12 CURVE SMOOTH"
);
}
);
width = 432;
}
);
leftKerningGroup = o;
leftMetricsKey = "=o";
rightKerningGroup = c;
unicode = 0063;
},
{
color = 4;
glyphname = d;
layers = (
{
anchors = (
{
name = bottom;
position = "{242, 0}";
},
{
name = center;
position = "{453, 550}";
},
{
name = top;
position = "{370, 726}";
},
{
name = topright;
position = "{569, 550}";
}
);
background = {
paths = (
{
closed = 1;
nodes = (
"213 -12 OFFCURVE",
"266 24 OFFCURVE",
"294 79 CURVE",
"298 79 LINE",
"299 13 OFFCURVE",
"347 -12 OFFCURVE",
"394 -12 CURVE SMOOTH",
"474 -12 OFFCURVE",
"526 23 OFFCURVE",
"560 57 CURVE",
"534 110 LINE",
"524 104 OFFCURVE",
"513 100 OFFCURVE",
"497 100 CURVE SMOOTH",
"485 100 OFFCURVE",
"479 102 OFFCURVE",
"479 119 CURVE SMOOTH",
"479 230 OFFCURVE",
"556 619 OFFCURVE",
"556 682 CURVE SMOOTH",
"556 710 OFFCURVE",
"526 734 OFFCURVE",
"472 734 CURVE SMOOTH",
"422 734 OFFCURVE",
"348 708 OFFCURVE",
"303 664 CURVE",
"331 614 LINE",
"353 622 OFFCURVE",
"377 626 OFFCURVE",
"395 626 CURVE SMOOTH",
"409 626 OFFCURVE",
"417 624 OFFCURVE",
"425 620 CURVE",
"390 679 LINE",
"341 360 OFFCURVE",
"311 97 OFFCURVE",
"230 97 CURVE SMOOTH",
"205 97 OFFCURVE",
"197 126 OFFCURVE",
"197 155 CURVE SMOOTH",
"197 306 OFFCURVE",
"253 399 OFFCURVE",
"316 399 CURVE SMOOTH",
"353 399 OFFCURVE",
"388 388 OFFCURVE",
"426 353 CURVE",
"456 401 LINE",
"411 452 OFFCURVE",
"354 462 OFFCURVE",
"309 462 CURVE SMOOTH",
"127 462 OFFCURVE",
"14 321 OFFCURVE",
"14 156 CURVE SMOOTH",
"14 45 OFFCURVE",
"80 -12 OFFCURVE",
"159 -12 CURVE SMOOTH"
);
},
{
closed = 1;
nodes = (
"-393 -12 OFFCURVE",
"-338 16 OFFCURVE",
"-304 79 CURVE",
"-300 79 LINE",
"-300 55 OFFCURVE",
"-292 31 OFFCURVE",
"-276 13 CURVE SMOOTH",
"-262 -2 OFFCURVE",
"-242 -12 OFFCURVE",
"-215 -12 CURVE SMOOTH",
"-152 -12 OFFCURVE",
"-90 24 OFFCURVE",
"-57 58 CURVE",
"-83 110 LINE",
"-96 103 OFFCURVE",
"-110 100 OFFCURVE",
"-116 100 CURVE SMOOTH",
"-129 100 OFFCURVE",
"-137 107 OFFCURVE",
"-137 132 CURVE SMOOTH",
"-137 222 OFFCURVE",
"-71 403 OFFCURVE",
"-71 424 CURVE SMOOTH",
"-71 456 OFFCURVE",
"-105 462 OFFCURVE",
"-152 462 CURVE",
"-258 410 LINE",
"-284 174 OFFCURVE",
"-320 97 OFFCURVE",
"-364 97 CURVE SMOOTH",
"-393 97 OFFCURVE",
"-403 124 OFFCURVE",
"-403 174 CURVE SMOOTH",
"-403 237 OFFCURVE",
"-376 399 OFFCURVE",
"-290 399 CURVE SMOOTH",
"-224 399 OFFCURVE",
"-187 367 OFFCURVE",
"-174 352 CURVE",
"-143 401 LINE",
"-185 449 OFFCURVE",
"-237 462 OFFCURVE",
"-300 462 CURVE SMOOTH",
"-456 462 OFFCURVE",
"-586 331 OFFCURVE",
"-586 157 CURVE SMOOTH",
"-586 35 OFFCURVE",
"-528 -12 OFFCURVE",
"-439 -12 CURVE SMOOTH"
);
}
);
};
layerId = "7B53E429-1BF0-49C5-9F57-63EEBF39C6CC";
paths = (
{
closed = 1;
nodes = (
"201 -12 OFFCURVE",
"260 16 OFFCURVE",
"296 79 CURVE",
"300 79 LINE",
"300 55 OFFCURVE",
"308 31 OFFCURVE",
"324 13 CURVE SMOOTH",
"338 -2 OFFCURVE",
"358 -12 OFFCURVE",
"385 -12 CURVE SMOOTH",
"448 -12 OFFCURVE",
"510 24 OFFCURVE",
"543 58 CURVE",
"517 110 LINE",
"504 103 OFFCURVE",
"490 100 OFFCURVE",
"484 100 CURVE SMOOTH",
"471 100 OFFCURVE",
"463 107 OFFCURVE",
"463 132 CURVE SMOOTH",
"463 234 OFFCURVE",
"556 592 OFFCURVE",
"556 650 CURVE SMOOTH",
"556 695 OFFCURVE",
"529 734 OFFCURVE",
"474 734 CURVE SMOOTH",
"423 734 OFFCURVE",
"351 706 OFFCURVE",
"294 664 CURVE",
"320 615 LINE",
"356 628 OFFCURVE",
"390 634 OFFCURVE",
"419 634 CURVE SMOOTH",
"441 634 OFFCURVE",
"459 631 OFFCURVE",
"472 624 CURVE",
"390 679 LINE",
"343 360 OFFCURVE",
"314 97 OFFCURVE",
"236 97 CURVE SMOOTH",
"207 97 OFFCURVE",
"197 124 OFFCURVE",
"197 174 CURVE SMOOTH",
"197 237 OFFCURVE",
"224 399 OFFCURVE",
"310 399 CURVE SMOOTH",
"376 399 OFFCURVE",
"413 367 OFFCURVE",
"426 352 CURVE",
"457 401 LINE",
"415 449 OFFCURVE",
"363 462 OFFCURVE",
"300 462 CURVE SMOOTH",
"144 462 OFFCURVE",
"14 331 OFFCURVE",
"14 157 CURVE SMOOTH",
"14 35 OFFCURVE",
"68 -12 OFFCURVE",
"151 -12 CURVE SMOOTH"
);
}
);
width = 567;
},
{
anchors = (
{
name = bottom;
position = "{208, 0}";
},
{
name = center;
position = "{419, 550}";
},
{
name = top;
position = "{336, 726}";
},
{
name = topright;
position = "{495, 550}";
}
);
background = {
paths = (
{
closed = 1;
nodes = (
"249 -12 OFFCURVE",
"300 31 OFFCURVE",
"327 108 CURVE",
"333 108 LINE",
"320 28 OFFCURVE",
"324 -12 OFFCURVE",
"366 -12 CURVE SMOOTH",
"379 -12 OFFCURVE",
"397 -9 OFFCURVE",
"431 25 CURVE",
"426 36 LINE",
"409 24 OFFCURVE",
"393 19 OFFCURVE",
"379 19 CURVE SMOOTH",
"360 19 OFFCURVE",
"356 27 OFFCURVE",
"356 56 CURVE SMOOTH",
"356 167 OFFCURVE",
"448 619 OFFCURVE",
"448 682 CURVE SMOOTH",
"448 710 OFFCURVE",
"435 734 OFFCURVE",
"410 734 CURVE SMOOTH",
"386 734 OFFCURVE",
"363 724 OFFCURVE",
"339 697 CURVE",
"344 686 LINE",
"357 694 OFFCURVE",
"373 701 OFFCURVE",
"391 701 CURVE SMOOTH",
"407 701 OFFCURVE",
"427 697 OFFCURVE",
"437 690 CURVE",
"431 703 LINE",
"357 216 OFFCURVE",
"326 10 OFFCURVE",
"194 10 CURVE SMOOTH",
"128 10 OFFCURVE",
"87 64 OFFCURVE",
"87 165 CURVE SMOOTH",
"87 336 OFFCURVE",
"187 444 OFFCURVE",
"309 444 CURVE SMOOTH",
"332 444 OFFCURVE",
"374 438 OFFCURVE",
"406 423 CURVE",
"408 442 LINE",
"377 456 OFFCURVE",
"347 462 OFFCURVE",
"312 462 CURVE SMOOTH",
"163 462 OFFCURVE",
"55 331 OFFCURVE",
"55 156 CURVE SMOOTH",
"55 45 OFFCURVE",
"100 -12 OFFCURVE",
"179 -12 CURVE SMOOTH"
);
}
);
};
guideLines = (
{
angle = 39.8056;
position = "{342, 692}";
}
);
layerId = "E1BF09ED-4302-4AD3-9939-8FDA35DE0FE8";
paths = (
{
closed = 1;
nodes = (
"245 -12 OFFCURVE",
"298 36 OFFCURVE",
"327 123 CURVE",
"333 123 LINE",
"329 97 OFFCURVE",
"326 70 OFFCURVE",
"326 44 CURVE SMOOTH",
"326 6 OFFCURVE",
"341 -12 OFFCURVE",
"361 -12 CURVE SMOOTH",
"379 -12 OFFCURVE",
"397 -9 OFFCURVE",
"431 25 CURVE",
"426 36 LINE",
"409 25 OFFCURVE",
"396 19 OFFCURVE",
"378 19 CURVE SMOOTH",
"361 19 OFFCURVE",
"355 27 OFFCURVE",
"355 47 CURVE SMOOTH",
"355 163 OFFCURVE",
"448 608 OFFCURVE",
"448 697 CURVE SMOOTH",
"448 719 OFFCURVE",
"439 733 OFFCURVE",
"409 733 CURVE SMOOTH",
"388 733 OFFCURVE",
"365 724 OFFCURVE",
"341 701 CURVE",
"345 690 LINE",
"363 700 OFFCURVE",
"382 706 OFFCURVE",
"404 706 CURVE SMOOTH",
"414 706 OFFCURVE",
"426 704 OFFCURVE",
"438 698 CURVE",
"432 713 LINE",
"356 219 OFFCURVE",
"324 10 OFFCURVE",
"188 10 CURVE SMOOTH",
"110 10 OFFCURVE",
"87 100 OFFCURVE",
"87 163 CURVE SMOOTH",
"87 330 OFFCURVE",
"187 444 OFFCURVE",
"313 444 CURVE SMOOTH",
"354 444 OFFCURVE",
"387 433 OFFCURVE",
"406 423 CURVE",
"408 435 LINE",
"380 454 OFFCURVE",
"348 462 OFFCURVE",
"309 462 CURVE SMOOTH",
"164 462 OFFCURVE",
"55 331 OFFCURVE",
"55 157 CURVE SMOOTH",
"55 48 OFFCURVE",
"99 -12 OFFCURVE",
"179 -12 CURVE SMOOTH"
);
}
);
width = 503;
},
{
anchors = (
{
name = bottom;
position = "{212, 0}";
},
{
name = center;
position = "{423, 550}";
},
{
name = top;
position = "{340, 726}";
},
{
name = topright;
position = "{501, 550}";
}
);
layerId = "3EF2C2DE-A0EB-47A2-88E7-F2C629C295C3";
paths = (
{
closed = 1;
nodes = (
"230 -12 OFFCURVE",
"285 31 OFFCURVE",
"314 109 CURVE",
"316 109 LINE",
"313 90 OFFCURVE",
"312 72 OFFCURVE",
"312 50 CURVE SMOOTH",
"313 14 OFFCURVE",
"328 -12 OFFCURVE",
"359 -12 CURVE SMOOTH",
"391 -12 OFFCURVE",
"432 9 OFFCURVE",
"466 43 CURVE",
"454 66 LINE",
"437 55 OFFCURVE",
"421 49 OFFCURVE",
"406 49 CURVE SMOOTH",
"391 49 OFFCURVE",
"384 56 OFFCURVE",
"384 74 CURVE SMOOTH",
"384 185 OFFCURVE",
"475 617 OFFCURVE",
"475 683 CURVE SMOOTH",
"475 710 OFFCURVE",
"459 734 OFFCURVE",
"424 734 CURVE SMOOTH",
"393 734 OFFCURVE",
"352 713 OFFCURVE",
"318 680 CURVE",
"331 656 LINE",
"352 666 OFFCURVE",
"374 670 OFFCURVE",
"393 670 CURVE SMOOTH",
"406 670 OFFCURVE",
"418 668 OFFCURVE",
"427 663 CURVE",
"410 683 LINE",
"353 316 OFFCURVE",
"327 35 OFFCURVE",
"196 35 CURVE SMOOTH",
"143 35 OFFCURVE",
"118 83 OFFCURVE",
"118 165 CURVE SMOOTH",
"118 314 OFFCURVE",
"193 429 OFFCURVE",
"301 429 CURVE SMOOTH",
"329 429 OFFCURVE",
"354 422 OFFCURVE",
"383 410 CURVE",
"388 439 LINE",
"358 454 OFFCURVE",
"326 462 OFFCURVE",
"289 462 CURVE SMOOTH",
"145 462 OFFCURVE",
"35 326 OFFCURVE",
"35 156 CURVE SMOOTH",
"35 45 OFFCURVE",
"81 -12 OFFCURVE",
"161 -12 CURVE SMOOTH"
);
}
);
width = 508.34615;
}
);
leftKerningGroup = o;
leftMetricsKey = "=o";
rightKerningGroup = dcaron;
unicode = 0064;
},
{
color = 4;
glyphname = eth;
layers = (
{
components = (
{
name = slashshortcomb;
transform = "{1, 0, 0, 1, 290, 239}";
}
);
layerId = "E1BF09ED-4302-4AD3-9939-8FDA35DE0FE8";
paths = (
{
closed = 1;
nodes = (
"372 -12 OFFCURVE",
"493 141 OFFCURVE",
"493 337 CURVE SMOOTH",
"493 440 OFFCURVE",
"454 533 OFFCURVE",
"377 610 CURVE SMOOTH",
"326 660 OFFCURVE",
"234 714 OFFCURVE",
"199 714 CURVE SMOOTH",
"190 714 OFFCURVE",
"185 710 OFFCURVE",
"184 704 CURVE",
"348 645 OFFCURVE",
"463 491 OFFCURVE",
"457 338 CURVE",
"470 338 LINE",
"438 389 OFFCURVE",
"378 420 OFFCURVE",
"313 420 CURVE SMOOTH",
"170 420 OFFCURVE",
"51 294 OFFCURVE",
"51 144 CURVE SMOOTH",
"51 49 OFFCURVE",
"113 -12 OFFCURVE",
"216 -12 CURVE SMOOTH"
);
},
{
closed = 1;
nodes = (
"134 7 OFFCURVE",
"88 57 OFFCURVE",
"88 145 CURVE SMOOTH",
"88 293 OFFCURVE",
"176 400 OFFCURVE",
"297 400 CURVE SMOOTH",
"369 400 OFFCURVE",
"437 360 OFFCURVE",
"461 303 CURVE",
"456 325 LINE",
"455 307 OFFCURVE",
"453 289 OFFCURVE",
"450 270 CURVE SMOOTH",
"424 106 OFFCURVE",
"336 7 OFFCURVE",
"218 7 CURVE SMOOTH"
);
}
);
width = 539;
},
{
components = (
{
name = slashshortcomb;
transform = "{1, 0, 0, 1, 199, 239}";
}
);
layerId = "7B53E429-1BF0-49C5-9F57-63EEBF39C6CC";
paths = (
{
closed = 1;
nodes = (
"412 -12 OFFCURVE",
"565 141 OFFCURVE",
"565 329 CURVE SMOOTH",
"565 399 OFFCURVE",
"545 465 OFFCURVE",
"507 531 CURVE SMOOTH",
"441 646 OFFCURVE",
"328 714 OFFCURVE",
"240 714 CURVE SMOOTH",
"196 714 OFFCURVE",
"180 699 OFFCURVE",
"174 660 CURVE",
"327 603 OFFCURVE",
"393 475 OFFCURVE",
"385 381 CURVE",
"405 395 LINE",
"386 403 OFFCURVE",
"360 408 OFFCURVE",
"332 408 CURVE SMOOTH",
"149 408 OFFCURVE",
"11 294 OFFCURVE",
"11 145 CURVE SMOOTH",
"11 46 OFFCURVE",
"88 -12 OFFCURVE",
"224 -12 CURVE SMOOTH"
);
},
{
closed = 1;
nodes = (
"224 51 OFFCURVE",
"205 84 OFFCURVE",
"205 144 CURVE SMOOTH",
"205 261 OFFCURVE",
"251 345 OFFCURVE",
"314 345 CURVE SMOOTH",
"365 345 OFFCURVE",
"396 329 OFFCURVE",
"436 272 CURVE",
"381 354 LINE",
"381 353 OFFCURVE",
"381 353 OFFCURVE",
"381 352 CURVE SMOOTH",
"381 222 OFFCURVE",
"314 51 OFFCURVE",
"262 51 CURVE SMOOTH"
);
}
);
width = 572;
},
{
components = (
{
alignment = -1;
name = slashshortcomb;
transform = "{1, 0, 0, 1, 255, 239}";
}
);
layerId = "3EF2C2DE-A0EB-47A2-88E7-F2C629C295C3";
paths = (
{
closed = 1;
nodes = (
"380 -12 OFFCURVE",
"511 141 OFFCURVE",
"511 334 CURVE SMOOTH",
"511 427 OFFCURVE",
"479 511 OFFCURVE",
"414 584 CURVE SMOOTH",
"358 656 OFFCURVE",
"260 714 OFFCURVE",
"207 714 CURVE SMOOTH",
"186 714 OFFCURVE",
"178 706 OFFCURVE",
"176 690 CURVE",
"337 632 OFFCURVE",
"435 487 OFFCURVE",
"429 352 CURVE",
"443 357 LINE",
"416 393 OFFCURVE",
"367 416 OFFCURVE",
"314 416 CURVE SMOOTH",
"159 416 OFFCURVE",
"32 294 OFFCURVE",
"32 144 CURVE SMOOTH",
"32 48 OFFCURVE",
"101 -12 OFFCURVE",
"213 -12 CURVE SMOOTH"
);
},
{
closed = 1;
nodes = (
"158 21 OFFCURVE",
"121 66 OFFCURVE",
"121 145 CURVE SMOOTH",
"121 282 OFFCURVE",
"195 382 OFFCURVE",
"298 382 CURVE SMOOTH",
"363 382 OFFCURVE",
"418 350 OFFCURVE",
"449 293 CURVE",
"427 335 LINE",
"426 322 OFFCURVE",
"425 310 OFFCURVE",
"422 297 CURVE SMOOTH",
"405 143 OFFCURVE",
"325 21 OFFCURVE",
"227 21 CURVE SMOOTH"
);
}
);
width = 539.42308;
}
);
leftKerningGroup = o;
leftMetricsKey = o;
rightKerningGroup = o;
rightMetricsKey = o;
unicode = 00F0;
},
{
color = 4;
glyphname = e;
layers = (
{
anchors = (
{
name = "#entry";
position = "{104, 222}";
},
{
name = bottom;
position = "{192, 0}";
},
{
name = ogonek;
position = "{312, 8}";
},
{
name = top;
position = "{305, 443}";
}
);
background = {
paths = (
{
closed = 1;
nodes = (
"296 -12 OFFCURVE",
"378 28 OFFCURVE",
"441 106 CURVE",
"410 142 LINE",
"369 103 OFFCURVE",
"317 80 OFFCURVE",
"267 80 CURVE SMOOTH",
"214 80 OFFCURVE",
"192 112 OFFCURVE",
"192 183 CURVE SMOOTH",
"192 291 OFFCURVE",
"237 399 OFFCURVE",
"282 399 CURVE SMOOTH",
"299 399 OFFCURVE",
"307 386 OFFCURVE",
"307 354 CURVE SMOOTH",
"307 270 OFFCURVE",
"253 227 OFFCURVE",
"142 227 CURVE",
"140 171 LINE",
"357 171 OFFCURVE",
"484 239 OFFCURVE",
"484 354 CURVE SMOOTH",
"484 418 OFFCURVE",
"416 462 OFFCURVE",
"318 462 CURVE SMOOTH",
"151 462 OFFCURVE",
"13 324 OFFCURVE",
"13 156 CURVE SMOOTH",
"13 47 OFFCURVE",
"79 -12 OFFCURVE",
"199 -12 CURVE SMOOTH"
);
}
);
};
guideLines = (
{
angle = 188.5959;
position = "{13, 156}";
},
{
angle = 60.0685;
position = "{282, 399}";
},
{
angle = 260.1435;
position = "{441, 106}";
}
);
layerId = "7B53E429-1BF0-49C5-9F57-63EEBF39C6CC";
paths = (
{
closed = 1;
nodes = (
"296 -12 OFFCURVE",
"378 28 OFFCURVE",
"441 106 CURVE",
"404 154 LINE",
"365 115 OFFCURVE",
"315 92 OFFCURVE",
"267 92 CURVE SMOOTH",
"214 92 OFFCURVE",
"192 120 OFFCURVE",
"192 183 CURVE SMOOTH",
"192 291 OFFCURVE",
"237 399 OFFCURVE",
"282 399 CURVE SMOOTH",
"299 399 OFFCURVE",
"307 386 OFFCURVE",
"307 354 CURVE SMOOTH",
"307 270 OFFCURVE",
"253 227 OFFCURVE",
"142 227 CURVE",
"140 171 LINE",
"357 171 OFFCURVE",
"484 239 OFFCURVE",
"484 354 CURVE SMOOTH",
"484 418 OFFCURVE",
"416 462 OFFCURVE",
"318 462 CURVE SMOOTH",
"151 462 OFFCURVE",
"13 324 OFFCURVE",
"13 156 CURVE SMOOTH",
"13 47 OFFCURVE",
"79 -12 OFFCURVE",
"199 -12 CURVE SMOOTH"
);
}
);
width = 476;
},
{
anchors = (
{
name = "#entry";
position = "{67, 222}";
},
{
name = bottom;
position = "{172, 0}";
},
{
name = ogonek;
position = "{265, 9}";
},
{
name = top;
position = "{285, 443}";
}
);
guideLines = (
{
angle = 260.1435;
position = "{353, 93}";
}
);
layerId = "E1BF09ED-4302-4AD3-9939-8FDA35DE0FE8";
paths = (
{
closed = 1;
nodes = (
"250 -12 OFFCURVE",
"303 23 OFFCURVE",
"353 93 CURVE",
"344 102 LINE",
"295 39 OFFCURVE",
"251 10 OFFCURVE",
"200 10 CURVE SMOOTH",
"129 10 OFFCURVE",
"86 71 OFFCURVE",
"86 162 CURVE SMOOTH",
"86 290 OFFCURVE",
"154 446 OFFCURVE",
"284 446 CURVE SMOOTH",
"332 446 OFFCURVE",
"365 419 OFFCURVE",
"365 374 CURVE SMOOTH",
"365 255 OFFCURVE",
"212 211 OFFCURVE",
"77 211 CURVE",
"75 198 LINE",
"285 198 OFFCURVE",
"401 276 OFFCURVE",
"401 371 CURVE SMOOTH",
"401 425 OFFCURVE",
"364 462 OFFCURVE",
"296 462 CURVE SMOOTH",
"154 462 OFFCURVE",
"54 300 OFFCURVE",
"54 155 CURVE SMOOTH",
"54 52 OFFCURVE",
"92 -12 OFFCURVE",
"184 -12 CURVE SMOOTH"
);
}
);
width = 420;
},
{
anchors = (
{
name = "#entry";
position = "{72, 222}";
},
{
name = bottom;
position = "{171, 0}";
},
{
name = ogonek;
position = "{273, 9}";
},
{
name = top;
position = "{284, 443}";
}
);
layerId = "3EF2C2DE-A0EB-47A2-88E7-F2C629C295C3";
paths = (
{
closed = 1;
nodes = (
"258 -12 OFFCURVE",
"320 25 OFFCURVE",
"375 97 CURVE",
"356 119 LINE",
"311 64 OFFCURVE",
"265 37 OFFCURVE",
"215 37 CURVE SMOOTH",
"150 37 OFFCURVE",
"113 87 OFFCURVE",
"113 169 CURVE SMOOTH",
"113 290 OFFCURVE",
"174 431 OFFCURVE",
"276 431 CURVE SMOOTH",
"314 431 OFFCURVE",
"339 408 OFFCURVE",
"339 368 CURVE SMOOTH",
"339 260 OFFCURVE",
"218 216 OFFCURVE",
"91 216 CURVE",
"89 189 LINE",
"301 189 OFFCURVE",
"421 264 OFFCURVE",
"421 365 CURVE SMOOTH",
"421 423 OFFCURVE",
"374 462 OFFCURVE",
"296 462 CURVE SMOOTH",
"146 462 OFFCURVE",
"34 308 OFFCURVE",
"34 155 CURVE SMOOTH",
"34 50 OFFCURVE",
"81 -12 OFFCURVE",
"182 -12 CURVE SMOOTH"
);
}
);
width = 431;
}
);
leftKerningGroup = o;
leftMetricsKey = "=o";
rightKerningGroup = e;
unicode = 0065;
},
{
color = 4;
glyphname = f;
layers = (
{
anchors = (
{
name = bottom;
position = "{106, 0}";
},
{
name = top;
position = "{234, 726}";
}
);
guideLines = (
{
angle = 90;
position = "{-113, 0}";
},
{
angle = 90;
position = "{386, 0}";
}
);
layerId = "E1BF09ED-4302-4AD3-9939-8FDA35DE0FE8";
paths = (
{
closed = 1;
nodes = (
"60 -258 OFFCURVE",
"99 -154 OFFCURVE",
"131 113 CURVE SMOOTH",
"184 561 LINE SMOOTH",
"192 626 OFFCURVE",
"220 702 OFFCURVE",
"295 702 CURVE SMOOTH",
"315 702 OFFCURVE",
"332 695 OFFCURVE",
"355 676 CURVE",
"361 686 OFFCURVE",
"363 691 OFFCURVE",
"363 698 CURVE SMOOTH",
"363 719 OFFCURVE",
"336 734 OFFCURVE",
"306 734 CURVE SMOOTH",
"212 734 OFFCURVE",
"167 632 OFFCURVE",
"141 423 CURVE SMOOTH",
"77 -97 LINE SMOOTH",
"70 -154 OFFCURVE",
"47 -224 OFFCURVE",
"-20 -224 CURVE SMOOTH",
"-42 -224 OFFCURVE",
"-63 -214 OFFCURVE",
"-82 -198 CURVE",
"-88 -207 OFFCURVE",
"-90 -213 OFFCURVE",
"-90 -222 CURVE SMOOTH",
"-90 -244 OFFCURVE",
"-59 -258 OFFCURVE",
"-34 -258 CURVE SMOOTH"
);
},
{
closed = 1;
nodes = (
"290 421 OFFCURVE",
"297 439 OFFCURVE",
"297 449 CURVE",
"68 438 LINE",
"65 436 OFFCURVE",
"61 430 OFFCURVE",
"60 423 CURVE",
"281 418 LINE"
);
}
);
width = 289;
},
{
anchors = (
{
name = bottom;
position = "{136, 0}";
},
{
name = top;
position = "{264, 726}";
}
);
layerId = "7B53E429-1BF0-49C5-9F57-63EEBF39C6CC";
paths = (
{
closed = 1;
nodes = (
"49 -258 OFFCURVE",
"209 -132 OFFCURVE",
"237 101 CURVE SMOOTH",
"287 524 LINE SMOOTH",
"297 605 OFFCURVE",
"316 626 OFFCURVE",
"371 626 CURVE SMOOTH",
"401 626 OFFCURVE",
"427 616 OFFCURVE",
"450 596 CURVE",
"457 607 OFFCURVE",
"468 644 OFFCURVE",
"468 666 CURVE SMOOTH",
"468 717 OFFCURVE",
"426 734 OFFCURVE",
"375 734 CURVE SMOOTH",
"245 734 OFFCURVE",
"123 631 OFFCURVE",
"101 446 CURVE SMOOTH",
"41 -70 LINE SMOOTH",
"34 -128 OFFCURVE",
"14 -150 OFFCURVE",
"-36 -150 CURVE SMOOTH",
"-68 -150 OFFCURVE",
"-93 -140 OFFCURVE",
"-116 -120 CURVE",
"-127 -137 OFFCURVE",
"-135 -173 OFFCURVE",
"-135 -194 CURVE SMOOTH",
"-135 -235 OFFCURVE",
"-103 -258 OFFCURVE",
"-60 -258 CURVE SMOOTH"
);
},
{
closed = 1;
nodes = (
"375 345 OFFCURVE",
"397 412 OFFCURVE",
"397 449 CURVE",
"73 437 LINE",
"47 426 OFFCURVE",
"23 388 OFFCURVE",
"17 343 CURVE",
"336 334 LINE"
);
}
);
width = 349;
},
{
anchors = (
{
name = bottom;
position = "{107, 0}";
},
{
name = top;
position = "{235, 726}";
}
);
layerId = "3EF2C2DE-A0EB-47A2-88E7-F2C629C295C3";
paths = (
{
closed = 1;
nodes = (
"60 -258 OFFCURVE",
"129 -135 OFFCURVE",
"157 102 CURVE SMOOTH",
"210 556 LINE SMOOTH",
"218 631 OFFCURVE",
"241 668 OFFCURVE",
"298 668 CURVE SMOOTH",
"327 668 OFFCURVE",
"353 659 OFFCURVE",
"376 639 CURVE",
"382 650 OFFCURVE",
"386 667 OFFCURVE",
"386 681 CURVE SMOOTH",
"386 715 OFFCURVE",
"363 734 OFFCURVE",
"319 734 CURVE SMOOTH",
"212 734 OFFCURVE",
"144 626 OFFCURVE",
"121 433 CURVE SMOOTH",
"58 -104 LINE SMOOTH",
"51 -164 OFFCURVE",
"30 -192 OFFCURVE",
"-22 -192 CURVE SMOOTH",
"-53 -192 OFFCURVE",
"-79 -182 OFFCURVE",
"-101 -163 CURVE",
"-108 -174 OFFCURVE",
"-112 -191 OFFCURVE",
"-112 -206 CURVE SMOOTH",
"-112 -240 OFFCURVE",
"-88 -258 OFFCURVE",
"-48 -258 CURVE SMOOTH"
);
},
{
closed = 1;
nodes = (
"306 389 OFFCURVE",
"319 429 OFFCURVE",
"319 452 CURVE",
"65 436 LINE",
"54 432 OFFCURVE",
"43 414 OFFCURVE",
"41 394 CURVE",
"283 383 LINE"
);
}
);
width = 291.30769;
}
);
leftKerningGroup = f;
rightKerningGroup = f;
unicode = 0066;
},
{
color = 4;
glyphname = g;
layers = (
{
anchors = (
{
name = bottom;
position = "{184, -258}";
},
{
name = top;
position = "{316, 443}";
}
);
layerId = "7B53E429-1BF0-49C5-9F57-63EEBF39C6CC";
paths = (
{
closed = 1;
nodes = (
"379 -258 OFFCURVE",
"463 -138 OFFCURVE",
"463 87 CURVE SMOOTH",
"463 191 OFFCURVE",
"529 400 OFFCURVE",
"529 424 CURVE SMOOTH",
"529 456 OFFCURVE",
"495 462 OFFCURVE",
"448 462 CURVE",
"342 410 LINE",
"316 174 OFFCURVE",
"280 97 OFFCURVE",
"236 97 CURVE SMOOTH",
"207 97 OFFCURVE",
"197 124 OFFCURVE",
"197 174 CURVE SMOOTH",
"197 237 OFFCURVE",
"224 399 OFFCURVE",
"310 399 CURVE SMOOTH",
"376 399 OFFCURVE",
"413 367 OFFCURVE",
"426 352 CURVE",
"457 401 LINE",
"415 449 OFFCURVE",
"363 462 OFFCURVE",
"300 462 CURVE SMOOTH",
"144 462 OFFCURVE",
"14 331 OFFCURVE",
"14 157 CURVE SMOOTH",
"14 35 OFFCURVE",
"68 -12 OFFCURVE",
"151 -12 CURVE SMOOTH",
"202 -12 OFFCURVE",
"262 16 OFFCURVE",
"299 79 CURVE",
"303 79 LINE",
"299 -121 OFFCURVE",
"266 -185 OFFCURVE",
"208 -185 CURVE SMOOTH",
"175 -185 OFFCURVE",
"159 -160 OFFCURVE",
"159 -107 CURVE SMOOTH",
"159 -97 OFFCURVE",
"160 -84 OFFCURVE",
"162 -75 CURVE",
"152 -70 OFFCURVE",
"129 -61 OFFCURVE",
"109 -61 CURVE SMOOTH",
"54 -61 OFFCURVE",
"-10 -79 OFFCURVE",
"-10 -153 CURVE SMOOTH",
"-10 -221 OFFCURVE",
"73 -258 OFFCURVE",
"162 -258 CURVE SMOOTH"
);
}
);
width = 539;
},
{
anchors = (
{
name = bottom;
position = "{157, -258}";
},
{
name = top;
position = "{289, 443}";
}
);
guideLines = (
{
angle = 47.7263;
position = "{158, -244}";
}
);
layerId = "E1BF09ED-4302-4AD3-9939-8FDA35DE0FE8";
paths = (
{
closed = 1;
nodes = (
"300 -258 OFFCURVE",
"358 -135 OFFCURVE",
"358 92 CURVE SMOOTH",
"358 200 OFFCURVE",
"424 409 OFFCURVE",
"424 454 CURVE SMOOTH",
"424 461 OFFCURVE",
"417 462 OFFCURVE",
"407 462 CURVE",
"392 437 LINE",
"331 116 OFFCURVE",
"288 10 OFFCURVE",
"188 10 CURVE SMOOTH",
"110 10 OFFCURVE",
"87 100 OFFCURVE",
"87 163 CURVE SMOOTH",
"87 330 OFFCURVE",
"187 444 OFFCURVE",
"313 444 CURVE SMOOTH",
"354 444 OFFCURVE",
"387 433 OFFCURVE",
"406 423 CURVE",
"408 435 LINE",
"380 454 OFFCURVE",
"348 462 OFFCURVE",
"309 462 CURVE SMOOTH",
"164 462 OFFCURVE",
"55 331 OFFCURVE",
"55 157 CURVE SMOOTH",
"55 48 OFFCURVE",
"99 -12 OFFCURVE",
"179 -12 CURVE SMOOTH",
"245 -12 OFFCURVE",
"298 36 OFFCURVE",
"327 123 CURVE",
"332 123 LINE",
"329 -155 OFFCURVE",
"271 -244 OFFCURVE",
"158 -244 CURVE SMOOTH",
"94 -244 OFFCURVE",
"63 -203 OFFCURVE",
"63 -144 CURVE SMOOTH",
"63 -131 OFFCURVE",
"64 -116 OFFCURVE",
"67 -101 CURVE",
"62 -99 OFFCURVE",
"57 -98 OFFCURVE",
"54 -98 CURVE SMOOTH",
"33 -98 OFFCURVE",
"27 -115 OFFCURVE",
"27 -137 CURVE SMOOTH",
"27 -209 OFFCURVE",
"75 -258 OFFCURVE",
"145 -258 CURVE SMOOTH"
);
}
);
width = 476;
},
{
anchors = (
{
name = bottom;
position = "{161, -258}";
},
{
name = top;
position = "{293, 443}";
}
);
layerId = "3EF2C2DE-A0EB-47A2-88E7-F2C629C295C3";
paths = (
{
closed = 1;
nodes = (
"316 -258 OFFCURVE",
"385 -136 OFFCURVE",
"385 92 CURVE SMOOTH",
"385 219 OFFCURVE",
"450 416 OFFCURVE",
"450 443 CURVE SMOOTH",
"450 459 OFFCURVE",
"433 462 OFFCURVE",
"411 462 CURVE",
"366 424 LINE",
"326 148 OFFCURVE",
"277 35 OFFCURVE",
"196 35 CURVE SMOOTH",
"144 35 OFFCURVE",
"120 82 OFFCURVE",
"120 165 CURVE SMOOTH",
"120 317 OFFCURVE",
"192 429 OFFCURVE",
"296 429 CURVE SMOOTH",
"369 429 OFFCURVE",
"401 400 OFFCURVE",
"417 386 CURVE",
"420 414 LINE",
"384 447 OFFCURVE",
"343 462 OFFCURVE",
"289 462 CURVE SMOOTH",
"146 462 OFFCURVE",
"36 331 OFFCURVE",
"36 157 CURVE SMOOTH",
"36 48 OFFCURVE",
"81 -12 OFFCURVE",
"159 -12 CURVE SMOOTH",
"227 -12 OFFCURVE",
"285 37 OFFCURVE",
"315 125 CURVE",
"320 125 LINE",
"319 -141 OFFCURVE",
"267 -225 OFFCURVE",
"167 -225 CURVE SMOOTH",
"113 -225 OFFCURVE",
"85 -191 OFFCURVE",
"85 -138 CURVE SMOOTH",
"85 -126 OFFCURVE",
"86 -113 OFFCURVE",
"88 -100 CURVE",
"79 -97 OFFCURVE",
"69 -95 OFFCURVE",
"60 -95 CURVE SMOOTH",
"30 -95 OFFCURVE",
"8 -116 OFFCURVE",
"8 -153 CURVE SMOOTH",
"8 -215 OFFCURVE",
"62 -258 OFFCURVE",
"138 -258 CURVE SMOOTH"
);
}
);
width = 480.96154;
}
);
leftKerningGroup = o;
leftMetricsKey = "=o";
rightKerningGroup = g;
unicode = 0067;
},
{
color = 4;
glyphname = h;
layers = (
{
anchors = (
{
name = bottom;
position = "{235, 0}";
},
{
name = center;
position = "{192, 550}";
},
{
name = top;
position = "{201, 726}";
}
);
layerId = "E1BF09ED-4302-4AD3-9939-8FDA35DE0FE8";
paths = (
{
closed = 1;
nodes = (
"111 -12 OFFCURVE",
"126 -10 OFFCURVE",
"137 -4 CURVE",
"121 60 LINE",
"121 21 LINE",
"174 351 LINE",
"235 407 OFFCURVE",
"280 438 OFFCURVE",
"332 438 CURVE SMOOTH",
"385 438 OFFCURVE",
"412 398 OFFCURVE",
"412 354 CURVE SMOOTH",
"412 234 OFFCURVE",
"350 125 OFFCURVE",
"350 44 CURVE SMOOTH",
"350 6 OFFCURVE",
"365 -12 OFFCURVE",
"385 -12 CURVE SMOOTH",
"403 -12 OFFCURVE",
"421 -9 OFFCURVE",
"455 25 CURVE",
"450 36 LINE",
"433 25 OFFCURVE",
"420 19 OFFCURVE",
"402 19 CURVE SMOOTH",
"385 19 OFFCURVE",
"379 27 OFFCURVE",
"379 47 CURVE SMOOTH",
"379 123 OFFCURVE",
"439 236 OFFCURVE",
"439 356 CURVE SMOOTH",
"439 417 OFFCURVE",
"402 462 OFFCURVE",
"337 462 CURVE SMOOTH",
"294 462 OFFCURVE",
"231 427 OFFCURVE",
"180 371 CURVE",
"175 371 LINE",
"191 479 OFFCURVE",
"212 632 OFFCURVE",
"212 697 CURVE SMOOTH",
"212 719 OFFCURVE",
"202 733 OFFCURVE",
"168 733 CURVE SMOOTH",
"147 733 OFFCURVE",
"124 724 OFFCURVE",
"100 701 CURVE",
"104 690 LINE",
"122 700 OFFCURVE",
"141 706 OFFCURVE",
"163 706 CURVE SMOOTH",
"173 706 OFFCURVE",
"185 704 OFFCURVE",
"197 698 CURVE",
"191 713 LINE",
"184 476 OFFCURVE",
"89 56 OFFCURVE",
"89 0 CURVE SMOOTH",
"89 -8 OFFCURVE",
"92 -12 OFFCURVE",
"101 -12 CURVE SMOOTH"
);
}
);
width = 525;
},
{
anchors = (
{
name = bottom;
position = "{266, 0}";
},
{
name = center;
position = "{214, 550}";
},
{
name = top;
position = "{245, 726}";
}
);
layerId = "7B53E429-1BF0-49C5-9F57-63EEBF39C6CC";
paths = (
{
closed = 1;
nodes = (
"138 -12 OFFCURVE",
"200 -2 OFFCURVE",
"241 19 CURVE",
"214 142 LINE",
"222 78 LINE",
"263 310 LINE",
"289 341 OFFCURVE",
"313 352 OFFCURVE",
"329 352 CURVE SMOOTH",
"340 352 OFFCURVE",
"350 347 OFFCURVE",
"350 317 CURVE SMOOTH",
"350 253 OFFCURVE",
"304 152 OFFCURVE",
"304 82 CURVE SMOOTH",
"304 23 OFFCURVE",
"337 -12 OFFCURVE",
"394 -12 CURVE SMOOTH",
"448 -12 OFFCURVE",
"522 19 OFFCURVE",
"560 58 CURVE",
"530 110 LINE",
"519 104 OFFCURVE",
"505 100 OFFCURVE",
"495 100 CURVE SMOOTH",
"483 100 OFFCURVE",
"476 107 OFFCURVE",
"476 119 CURVE SMOOTH",
"476 156 OFFCURVE",
"527 265 OFFCURVE",
"527 345 CURVE SMOOTH",
"527 405 OFFCURVE",
"499 462 OFFCURVE",
"430 462 CURVE SMOOTH",
"380 462 OFFCURVE",
"324 432 OFFCURVE",
"275 377 CURVE",
"271 377 LINE",
"296 476 OFFCURVE",
"325 616 OFFCURVE",
"325 657 CURVE SMOOTH",
"325 694 OFFCURVE",
"298 734 OFFCURVE",
"241 734 CURVE SMOOTH",
"193 734 OFFCURVE",
"120 706 OFFCURVE",
"63 664 CURVE",
"89 615 LINE",
"125 628 OFFCURVE",
"159 634 OFFCURVE",
"188 634 CURVE SMOOTH",
"210 634 OFFCURVE",
"228 631 OFFCURVE",
"241 624 CURVE",
"159 679 LINE",
"159 558 OFFCURVE",
"41 115 OFFCURVE",
"41 37 CURVE SMOOTH",
"41 9 OFFCURVE",
"55 -12 OFFCURVE",
"104 -12 CURVE SMOOTH"
);
}
);
width = 592;
},
{
anchors = (
{
name = bottom;
position = "{233, 0}";
},
{
name = center;
position = "{182, 550}";
},
{
name = top;
position = "{210, 726}";
}
);
layerId = "3EF2C2DE-A0EB-47A2-88E7-F2C629C295C3";
paths = (
{
closed = 1;
nodes = (
"105 -12 OFFCURVE",
"133 -8 OFFCURVE",
"153 3 CURVE",
"131 90 LINE",
"135 30 LINE",
"181 332 LINE",
"233 384 OFFCURVE",
"278 406 OFFCURVE",
"325 406 CURVE SMOOTH",
"361 406 OFFCURVE",
"378 382 OFFCURVE",
"378 344 CURVE SMOOTH",
"378 239 OFFCURVE",
"317 143 OFFCURVE",
"317 53 CURVE SMOOTH",
"317 11 OFFCURVE",
"339 -12 OFFCURVE",
"371 -12 CURVE SMOOTH",
"401 -12 OFFCURVE",
"442 8 OFFCURVE",
"476 43 CURVE",
"464 66 LINE",
"447 55 OFFCURVE",
"432 49 OFFCURVE",
"417 49 CURVE SMOOTH",
"402 49 OFFCURVE",
"394 55 OFFCURVE",
"394 72 CURVE SMOOTH",
"394 142 OFFCURVE",
"453 244 OFFCURVE",
"453 345 CURVE SMOOTH",
"453 411 OFFCURVE",
"422 462 OFFCURVE",
"351 462 CURVE SMOOTH",
"300 462 OFFCURVE",
"240 424 OFFCURVE",
"188 365 CURVE",
"184 365 LINE",
"205 468 OFFCURVE",
"231 629 OFFCURVE",
"231 675 CURVE SMOOTH",
"231 714 OFFCURVE",
"214 734 OFFCURVE",
"179 734 CURVE SMOOTH",
"149 734 OFFCURVE",
"107 713 OFFCURVE",
"74 680 CURVE",
"86 656 LINE",
"108 666 OFFCURVE",
"129 670 OFFCURVE",
"148 670 CURVE SMOOTH",
"162 670 OFFCURVE",
"173 668 OFFCURVE",
"181 663 CURVE",
"165 682 LINE",
"165 546 OFFCURVE",
"60 100 OFFCURVE",
"60 24 CURVE SMOOTH",
"60 -2 OFFCURVE",
"66 -12 OFFCURVE",
"90 -12 CURVE SMOOTH"
);
}
);
width = 519.88462;
}
);
leftKerningGroup = l;
leftMetricsKey = l;
rightKerningGroup = n;
rightMetricsKey = n;
unicode = 0068;
},
{
color = 4;
glyphname = idotless;
layers = (
{
anchors = (
{
name = bottom;
position = "{94, 0}";
},
{
name = ogonek;
position = "{180, 9}";
},
{
name = top;
position = "{163, 443}";
}
);
background = {
paths = (
{
closed = 1;
nodes = (
"182 36 LINE",
"165 25 OFFCURVE",
"153 19 OFFCURVE",
"138 19 CURVE SMOOTH",
"121 19 OFFCURVE",
"112 21 OFFCURVE",
"112 53 CURVE SMOOTH",
"112 104 OFFCURVE",
"175 342 OFFCURVE",
"175 401 CURVE SMOOTH",
"175 442 OFFCURVE",
"165 462 OFFCURVE",
"132 462 CURVE SMOOTH",
"112 462 OFFCURVE",
"81 438 OFFCURVE",
"71 425 CURVE",
"76 414 LINE",
"93 425 OFFCURVE",
"109 429 OFFCURVE",
"127 429 CURVE SMOOTH",
"138 429 OFFCURVE",
"148 427 OFFCURVE",
"154 425 CURVE",
"152 429 LINE",
"152 353 OFFCURVE",
"81 86 OFFCURVE",
"81 37 CURVE SMOOTH",
"81 1 OFFCURVE",
"99 -12 OFFCURVE",
"117 -12 CURVE SMOOTH",
"136 -12 OFFCURVE",
"155 -6 OFFCURVE",
"187 25 CURVE"
);
}
);
};
guideLines = (
{
angle = 90;
position = "{41, 0}";
},
{
angle = 90;
position = "{227, 0}";
}
);
layerId = "E1BF09ED-4302-4AD3-9939-8FDA35DE0FE8";
paths = (
{
closed = 1;
nodes = (
"135 -12 OFFCURVE",
"153 -9 OFFCURVE",
"187 25 CURVE",
"182 36 LINE",
"165 25 OFFCURVE",
"152 19 OFFCURVE",
"134 19 CURVE SMOOTH",
"117 19 OFFCURVE",
"111 27 OFFCURVE",
"111 47 CURVE SMOOTH",
"111 135 OFFCURVE",
"184 388 OFFCURVE",
"184 426 CURVE SMOOTH",
"184 448 OFFCURVE",
"174 462 OFFCURVE",
"140 462 CURVE SMOOTH",
"119 462 OFFCURVE",
"96 453 OFFCURVE",
"72 430 CURVE",
"76 419 LINE",
"94 429 OFFCURVE",
"113 435 OFFCURVE",
"135 435 CURVE SMOOTH",
"145 435 OFFCURVE",
"157 433 OFFCURVE",
"169 427 CURVE",
"163 442 LINE",
"136 302 OFFCURVE",
"82 88 OFFCURVE",
"82 44 CURVE SMOOTH",
"82 6 OFFCURVE",
"97 -12 OFFCURVE",
"117 -12 CURVE SMOOTH"
);
}
);
width = 237;
},
{
anchors = (
{
name = bottom;
position = "{139, 0}";
},
{
name = ogonek;
position = "{225, 9}";
},
{
name = top;
position = "{217, 443}";
}
);
background = {
paths = (
{
closed = 1;
nodes = (
"217 -12 OFFCURVE",
"284 24 OFFCURVE",
"318 58 CURVE",
"292 110 LINE",
"280 103 OFFCURVE",
"268 100 OFFCURVE",
"257 100 CURVE SMOOTH",
"246 100 OFFCURVE",
"243 104 OFFCURVE",
"243 117 CURVE SMOOTH",
"243 131 OFFCURVE",
"298 342 OFFCURVE",
"298 382 CURVE SMOOTH",
"298 443 OFFCURVE",
"255 462 OFFCURVE",
"207 462 CURVE SMOOTH",
"157 462 OFFCURVE",
"89 437 OFFCURVE",
"42 392 CURVE",
"68 341 LINE",
"89 349 OFFCURVE",
"111 355 OFFCURVE",
"129 355 CURVE SMOOTH",
"145 355 OFFCURVE",
"155 353 OFFCURVE",
"161 351 CURVE",
"128 418 LINE",
"128 354 OFFCURVE",
"61 131 OFFCURVE",
"61 72 CURVE SMOOTH",
"61 28 OFFCURVE",
"93 -12 OFFCURVE",
"152 -12 CURVE SMOOTH"
);
}
);
};
guideLines = (
{
angle = 90;
position = "{86, 0}";
},
{
angle = 90;
position = "{272, 0}";
}
);
layerId = "7B53E429-1BF0-49C5-9F57-63EEBF39C6CC";
paths = (
{
closed = 1;
nodes = (
"207 -12 OFFCURVE",
"281 20 OFFCURVE",
"318 58 CURVE",
"288 110 LINE",
"277 104 OFFCURVE",
"263 100 OFFCURVE",
"254 100 CURVE SMOOTH",
"240 100 OFFCURVE",
"234 108 OFFCURVE",
"234 126 CURVE SMOOTH",
"234 154 OFFCURVE",
"295 328 OFFCURVE",
"295 385 CURVE SMOOTH",
"295 422 OFFCURVE",
"268 462 OFFCURVE",
"211 462 CURVE SMOOTH",
"163 462 OFFCURVE",
"90 434 OFFCURVE",
"33 392 CURVE",
"59 343 LINE",
"95 356 OFFCURVE",
"129 362 OFFCURVE",
"158 362 CURVE SMOOTH",
"180 362 OFFCURVE",
"198 359 OFFCURVE",
"211 352 CURVE",
"129 407 LINE",
"105 274 OFFCURVE",
"62 126 OFFCURVE",
"62 82 CURVE SMOOTH",
"62 23 OFFCURVE",
"95 -12 OFFCURVE",
"155 -12 CURVE SMOOTH"
);
}
);
width = 347;
},
{
anchors = (
{
name = bottom;
position = "{98, 0}";
},
{
name = ogonek;
position = "{184, 9}";
},
{
name = top;
position = "{166, 443}";
}
);
layerId = "3EF2C2DE-A0EB-47A2-88E7-F2C629C295C3";
paths = (
{
closed = 1;
nodes = (
"152 -12 OFFCURVE",
"194 8 OFFCURVE",
"228 43 CURVE",
"215 66 LINE",
"198 55 OFFCURVE",
"182 49 OFFCURVE",
"168 49 CURVE SMOOTH",
"153 49 OFFCURVE",
"147 56 OFFCURVE",
"147 74 CURVE SMOOTH",
"147 133 OFFCURVE",
"209 340 OFFCURVE",
"209 403 CURVE SMOOTH",
"209 442 OFFCURVE",
"192 462 OFFCURVE",
"152 462 CURVE SMOOTH",
"122 462 OFFCURVE",
"79 442 OFFCURVE",
"46 408 CURVE",
"58 384 LINE",
"80 394 OFFCURVE",
"102 398 OFFCURVE",
"121 398 CURVE SMOOTH",
"136 398 OFFCURVE",
"147 396 OFFCURVE",
"153 392 CURVE",
"140 420 LINE",
"136 339 OFFCURVE",
"71 128 OFFCURVE",
"71 54 CURVE SMOOTH",
"71 11 OFFCURVE",
"88 -12 OFFCURVE",
"122 -12 CURVE SMOOTH"
);
}
);
width = 264.92308;
}
);
leftKerningGroup = i;
leftMetricsKey = n;
rightKerningGroup = i;
rightMetricsKey = l;
unicode = 0131;
},
{
color = 4;
glyphname = jdotless;
layers = (
{
anchors = (
{
name = bottom;
position = "{39, -258}";
},
{
name = top;
position = "{153, 443}";
}
);
guideLines = (
{
angle = 90;
position = "{201, 0}";
},
{
angle = 90;
position = "{-106, 0}";
}
);
layerId = "E1BF09ED-4302-4AD3-9939-8FDA35DE0FE8";
paths = (
{
closed = 1;
nodes = (
"61 -258 OFFCURVE",
"99 -151 OFFCURVE",
"141 103 CURVE SMOOTH",
"167 262 OFFCURVE",
"177 365 OFFCURVE",
"177 426 CURVE SMOOTH",
"177 448 OFFCURVE",
"167 462 OFFCURVE",
"133 462 CURVE SMOOTH",
"112 462 OFFCURVE",
"89 453 OFFCURVE",
"65 430 CURVE",
"69 419 LINE",
"87 429 OFFCURVE",
"106 435 OFFCURVE",
"128 435 CURVE SMOOTH",
"138 435 OFFCURVE",
"150 433 OFFCURVE",
"162 427 CURVE",
"150 441 LINE",
"150 342 OFFCURVE",
"119 108 OFFCURVE",
"80 -101 CURVE SMOOTH",
"66 -174 OFFCURVE",
"33 -227 OFFCURVE",
"-16 -227 CURVE SMOOTH",
"-45 -227 OFFCURVE",
"-60 -218 OFFCURVE",
"-74 -195 CURVE",
"-80 -203 OFFCURVE",
"-83 -212 OFFCURVE",
"-83 -223 CURVE SMOOTH",
"-83 -242 OFFCURVE",
"-64 -258 OFFCURVE",
"-32 -258 CURVE SMOOTH"
);
}
);
width = 245;
},
{
anchors = (
{
name = bottom;
position = "{83, -258}";
},
{
name = top;
position = "{197, 443}";
}
);
guideLines = (
{
angle = 90;
position = "{231, 0}";
},
{
angle = 90;
position = "{-75, 0}";
},
{
angle = 90;
position = "{67, 0}";
}
);
layerId = "7B53E429-1BF0-49C5-9F57-63EEBF39C6CC";
paths = (
{
closed = 1;
nodes = (
"113 -268 OFFCURVE",
"200 -151 OFFCURVE",
"242 103 CURVE SMOOTH",
"264 237 OFFCURVE",
"280 352 OFFCURVE",
"280 385 CURVE SMOOTH",
"280 422 OFFCURVE",
"253 462 OFFCURVE",
"196 462 CURVE SMOOTH",
"148 462 OFFCURVE",
"75 434 OFFCURVE",
"18 392 CURVE",
"44 343 LINE",
"80 356 OFFCURVE",
"114 362 OFFCURVE",
"143 362 CURVE SMOOTH",
"165 362 OFFCURVE",
"183 359 OFFCURVE",
"196 352 CURVE",
"109 424 LINE",
"109 365 OFFCURVE",
"84 146 OFFCURVE",
"49 -39 CURVE SMOOTH",
"36 -111 OFFCURVE",
"18 -161 OFFCURVE",
"-25 -161 CURVE SMOOTH",
"-62 -161 OFFCURVE",
"-84 -148 OFFCURVE",
"-108 -120 CURVE",
"-115 -132 OFFCURVE",
"-124 -159 OFFCURVE",
"-124 -186 CURVE SMOOTH",
"-124 -238 OFFCURVE",
"-91 -268 OFFCURVE",
"-31 -268 CURVE SMOOTH"
);
}
);
width = 305;
},
{
anchors = (
{
name = bottom;
position = "{52, -258}";
},
{
name = top;
position = "{166, 443}";
}
);
layerId = "3EF2C2DE-A0EB-47A2-88E7-F2C629C295C3";
paths = (
{
closed = 1;
nodes = (
"62 -258 OFFCURVE",
"120 -151 OFFCURVE",
"162 103 CURVE SMOOTH",
"188 261 OFFCURVE",
"201 365 OFFCURVE",
"201 403 CURVE SMOOTH",
"201 443 OFFCURVE",
"183 462 OFFCURVE",
"144 462 CURVE SMOOTH",
"113 462 OFFCURVE",
"71 442 OFFCURVE",
"38 408 CURVE",
"51 384 LINE",
"69 394 OFFCURVE",
"91 398 OFFCURVE",
"112 398 CURVE SMOOTH",
"128 398 OFFCURVE",
"139 397 OFFCURVE",
"146 392 CURVE",
"131 426 LINE",
"131 358 OFFCURVE",
"100 121 OFFCURVE",
"65 -80 CURVE SMOOTH",
"50 -164 OFFCURVE",
"25 -201 OFFCURVE",
"-23 -201 CURVE SMOOTH",
"-50 -201 OFFCURVE",
"-66 -192 OFFCURVE",
"-92 -162 CURVE",
"-99 -174 OFFCURVE",
"-102 -191 OFFCURVE",
"-102 -207 CURVE SMOOTH",
"-102 -239 OFFCURVE",
"-79 -258 OFFCURVE",
"-39 -258 CURVE SMOOTH"
);
}
);
width = 247.30769;
}
);
leftKerningGroup = j;
rightKerningGroup = j;
unicode = 0237;
},
{
color = 4;
glyphname = k;
layers = (
{
anchors = (
{
name = bottom;
position = "{209, 0}";
},
{
name = top;
position = "{337, 726}";
}
);
background = {
paths = (
{
closed = 1;
nodes = (
"95 -12 OFFCURVE",
"110 -10 OFFCURVE",
"121 -4 CURVE",
"105 60 LINE",
"106 29 LINE",
"124 179 OFFCURVE",
"141 268 OFFCURVE",
"162 333 CURVE SMOOTH",
"189 414 OFFCURVE",
"248 444 OFFCURVE",
"299 444 CURVE SMOOTH",
"349 444 OFFCURVE",
"390 413 OFFCURVE",
"390 359 CURVE SMOOTH",
"390 281 OFFCURVE",
"318 216 OFFCURVE",
"217 207 CURVE",
"287 49 LINE SMOOTH",
"299 23 OFFCURVE",
"314 -12 OFFCURVE",
"348 -12 CURVE SMOOTH",
"370 -12 OFFCURVE",
"397 0 OFFCURVE",
"423 30 CURVE",
"418 40 LINE",
"403 29 OFFCURVE",
"383 23 OFFCURVE",
"360 23 CURVE SMOOTH",
"336 23 OFFCURVE",
"327 37 OFFCURVE",
"304 85 CURVE SMOOTH",
"247 204 LINE",
"240 196 LINE",
"344 216 OFFCURVE",
"421 283 OFFCURVE",
"421 365 CURVE SMOOTH",
"421 422 OFFCURVE",
"385 462 OFFCURVE",
"317 462 CURVE SMOOTH",
"258 462 OFFCURVE",
"198 434 OFFCURVE",
"165 371 CURVE",
"161 371 LINE",
"184 481 OFFCURVE",
"212 652 OFFCURVE",
"212 697 CURVE SMOOTH",
"212 719 OFFCURVE",
"202 733 OFFCURVE",
"168 733 CURVE SMOOTH",
"147 733 OFFCURVE",
"124 724 OFFCURVE",
"100 701 CURVE",
"104 690 LINE",
"122 700 OFFCURVE",
"141 706 OFFCURVE",
"163 706 CURVE SMOOTH",
"173 706 OFFCURVE",
"185 704 OFFCURVE",
"197 698 CURVE",
"191 713 LINE",
"191 571 OFFCURVE",
"73 66 OFFCURVE",
"73 0 CURVE SMOOTH",
"73 -8 OFFCURVE",
"76 -12 OFFCURVE",
"85 -12 CURVE SMOOTH"
);
}
);
};
layerId = "E1BF09ED-4302-4AD3-9939-8FDA35DE0FE8";
paths = (
{
closed = 1;
nodes = (
"95 -12 OFFCURVE",
"110 -10 OFFCURVE",
"121 -4 CURVE",
"105 60 LINE",
"106 29 LINE",
"141 322 OFFCURVE",
"184 445 OFFCURVE",
"299 445 CURVE SMOOTH",
"349 445 OFFCURVE",
"390 414 OFFCURVE",
"390 361 CURVE SMOOTH",
"390 282 OFFCURVE",
"318 216 OFFCURVE",
"217 207 CURVE",
"287 49 LINE SMOOTH",
"299 23 OFFCURVE",
"314 -12 OFFCURVE",
"348 -12 CURVE SMOOTH",
"369 -12 OFFCURVE",
"394 2 OFFCURVE",
"422 30 CURVE",
"417 41 LINE",
"393 25 OFFCURVE",
"377 19 OFFCURVE",
"358 19 CURVE SMOOTH",
"334 19 OFFCURVE",
"327 37 OFFCURVE",
"304 85 CURVE SMOOTH",
"247 204 LINE",
"240 196 LINE",
"344 216 OFFCURVE",
"421 283 OFFCURVE",
"421 365 CURVE SMOOTH",
"421 422 OFFCURVE",
"384 462 OFFCURVE",
"314 462 CURVE SMOOTH",
"255 462 OFFCURVE",
"197 438 OFFCURVE",
"162 356 CURVE",
"158 356 LINE",
"182 472 OFFCURVE",
"212 649 OFFCURVE",
"212 697 CURVE SMOOTH",
"212 719 OFFCURVE",
"202 733 OFFCURVE",
"168 733 CURVE SMOOTH",
"147 733 OFFCURVE",
"124 724 OFFCURVE",
"100 701 CURVE",
"104 690 LINE",
"122 700 OFFCURVE",
"141 706 OFFCURVE",
"163 706 CURVE SMOOTH",
"173 706 OFFCURVE",
"185 704 OFFCURVE",
"197 698 CURVE",
"191 713 LINE",
"191 571 OFFCURVE",
"73 66 OFFCURVE",
"73 0 CURVE SMOOTH",
"73 -8 OFFCURVE",
"76 -12 OFFCURVE",
"85 -12 CURVE SMOOTH"
);
}
);
width = 460;
},
{
anchors = (
{
name = bottom;
position = "{258, 0}";
},
{
name = top;
position = "{386, 726}";
}
);
layerId = "7B53E429-1BF0-49C5-9F57-63EEBF39C6CC";
paths = (
{
closed = 1;
nodes = (
"138 -12 OFFCURVE",
"200 -2 OFFCURVE",
"241 19 CURVE",
"214 142 LINE",
"217 29 LINE",
"228 101 OFFCURVE",
"250 374 OFFCURVE",
"345 374 CURVE SMOOTH",
"366 374 OFFCURVE",
"371 355 OFFCURVE",
"371 332 CURVE SMOOTH",
"371 274 OFFCURVE",
"309 237 OFFCURVE",
"261 226 CURVE",
"298 72 LINE SMOOTH",
"313 8 OFFCURVE",
"352 -12 OFFCURVE",
"411 -12 CURVE SMOOTH",
"453 -12 OFFCURVE",
"526 22 OFFCURVE",
"564 59 CURVE",
"539 110 LINE",
"523 99 OFFCURVE",
"509 93 OFFCURVE",
"490 93 CURVE SMOOTH",
"470 93 OFFCURVE",
"461 112 OFFCURVE",
"455 135 CURVE SMOOTH",
"431 223 LINE",
"371 173 LINE",
"476 208 OFFCURVE",
"547 279 OFFCURVE",
"547 351 CURVE SMOOTH",
"547 415 OFFCURVE",
"504 462 OFFCURVE",
"433 462 CURVE SMOOTH",
"363 462 OFFCURVE",
"321 444 OFFCURVE",
"273 381 CURVE",
"270 381 LINE",
"295 477 OFFCURVE",
"325 617 OFFCURVE",
"325 657 CURVE SMOOTH",
"325 694 OFFCURVE",
"298 734 OFFCURVE",
"241 734 CURVE SMOOTH",
"193 734 OFFCURVE",
"120 706 OFFCURVE",
"63 664 CURVE",
"89 615 LINE",
"125 628 OFFCURVE",
"159 634 OFFCURVE",
"188 634 CURVE SMOOTH",
"210 634 OFFCURVE",
"228 631 OFFCURVE",
"241 624 CURVE",
"159 679 LINE",
"147 555 OFFCURVE",
"42 105 OFFCURVE",
"41 37 CURVE SMOOTH",
"41 9 OFFCURVE",
"55 -12 OFFCURVE",
"104 -12 CURVE SMOOTH"
);
}
);
width = 591;
},
{
anchors = (
{
name = bottom;
position = "{216, 0}";
},
{
name = top;
position = "{344, 726}";
}
);
layerId = "3EF2C2DE-A0EB-47A2-88E7-F2C629C295C3";
paths = (
{
closed = 1;
nodes = (
"103 -12 OFFCURVE",
"131 -8 OFFCURVE",
"151 3 CURVE",
"129 90 LINE",
"132 29 LINE",
"169 316 OFFCURVE",
"208 425 OFFCURVE",
"306 425 CURVE SMOOTH",
"346 425 OFFCURVE",
"369 395 OFFCURVE",
"369 361 CURVE SMOOTH",
"369 276 OFFCURVE",
"286 228 OFFCURVE",
"206 214 CURVE",
"268 50 LINE SMOOTH",
"282 9 OFFCURVE",
"305 -12 OFFCURVE",
"340 -12 CURVE SMOOTH",
"369 -12 OFFCURVE",
"412 10 OFFCURVE",
"445 43 CURVE",
"432 67 LINE",
"415 55 OFFCURVE",
"399 49 OFFCURVE",
"376 49 CURVE SMOOTH",
"351 49 OFFCURVE",
"341 61 OFFCURVE",
"330 87 CURVE SMOOTH",
"279 215 LINE",
"255 201 LINE",
"364 226 OFFCURVE",
"444 292 OFFCURVE",
"443 364 CURVE SMOOTH",
"444 422 OFFCURVE",
"401 462 OFFCURVE",
"337 462 CURVE SMOOTH",
"268 462 OFFCURVE",
"218 428 OFFCURVE",
"185 363 CURVE",
"183 363 LINE",
"204 467 OFFCURVE",
"231 631 OFFCURVE",
"231 675 CURVE SMOOTH",
"231 714 OFFCURVE",
"214 734 OFFCURVE",
"179 734 CURVE SMOOTH",
"149 734 OFFCURVE",
"107 713 OFFCURVE",
"74 680 CURVE",
"86 656 LINE",
"108 666 OFFCURVE",
"129 670 OFFCURVE",
"148 670 CURVE SMOOTH",
"162 670 OFFCURVE",
"173 668 OFFCURVE",
"181 663 CURVE",
"165 682 LINE",
"164 557 OFFCURVE",
"58 100 OFFCURVE",
"58 24 CURVE SMOOTH",
"58 -2 OFFCURVE",
"64 -12 OFFCURVE",
"88 -12 CURVE SMOOTH"
);
}
);
width = 476.57692;
}
);
leftKerningGroup = l;
leftMetricsKey = h;
rightKerningGroup = k;
rightMetricsKey = "=n*.2";
unicode = 006B;
},
{
color = 4;
glyphname = kgreenlandic;
layers = (
{
background = {
paths = (
{
closed = 1;
nodes = (
"112 -12 OFFCURVE",
"127 -10 OFFCURVE",
"138 -4 CURVE",
"122 60 LINE",
"123 29 LINE",
"141 179 OFFCURVE",
"158 268 OFFCURVE",
"179 333 CURVE SMOOTH",
"206 414 OFFCURVE",
"265 444 OFFCURVE",
"316 444 CURVE SMOOTH",
"366 444 OFFCURVE",
"407 413 OFFCURVE",
"407 359 CURVE SMOOTH",
"407 281 OFFCURVE",
"335 216 OFFCURVE",
"234 207 CURVE",
"304 49 LINE SMOOTH",
"316 23 OFFCURVE",
"331 -12 OFFCURVE",
"365 -12 CURVE SMOOTH",
"387 -12 OFFCURVE",
"414 0 OFFCURVE",
"440 30 CURVE",
"435 40 LINE",
"420 29 OFFCURVE",
"400 23 OFFCURVE",
"377 23 CURVE SMOOTH",
"353 23 OFFCURVE",
"344 37 OFFCURVE",
"321 85 CURVE SMOOTH",
"264 204 LINE",
"257 196 LINE",
"361 216 OFFCURVE",
"438 283 OFFCURVE",
"438 365 CURVE SMOOTH",
"438 422 OFFCURVE",
"402 462 OFFCURVE",
"334 462 CURVE SMOOTH",
"275 462 OFFCURVE",
"215 434 OFFCURVE",
"182 371 CURVE",
"178 371 LINE",
"201 481 OFFCURVE",
"229 652 OFFCURVE",
"229 697 CURVE SMOOTH",
"229 719 OFFCURVE",
"219 733 OFFCURVE",
"185 733 CURVE SMOOTH",
"164 733 OFFCURVE",
"141 724 OFFCURVE",
"117 701 CURVE",
"121 690 LINE",
"139 700 OFFCURVE",
"158 706 OFFCURVE",
"180 706 CURVE SMOOTH",
"190 706 OFFCURVE",
"202 704 OFFCURVE",
"214 698 CURVE",
"208 713 LINE",
"208 571 OFFCURVE",
"90 66 OFFCURVE",
"90 0 CURVE SMOOTH",
"90 -8 OFFCURVE",
"93 -12 OFFCURVE",
"102 -12 CURVE SMOOTH"
);
}
);
};
layerId = "E1BF09ED-4302-4AD3-9939-8FDA35DE0FE8";
paths = (
{
closed = 1;
nodes = (
"177 389 OFFCURVE",
"179 401 OFFCURVE",
"179 426 CURVE SMOOTH",
"179 448 OFFCURVE",
"170 462 OFFCURVE",
"140 462 CURVE SMOOTH",
"119 462 OFFCURVE",
"96 453 OFFCURVE",
"72 430 CURVE",
"76 419 LINE",
"94 429 OFFCURVE",
"113 435 OFFCURVE",
"135 435 CURVE SMOOTH",
"145 435 OFFCURVE",
"157 433 OFFCURVE",
"169 427 CURVE",
"154 445 LINE",
"154 311 OFFCURVE",
"90 47 OFFCURVE",
"90 0 CURVE SMOOTH",
"90 -8 OFFCURVE",
"93 -12 OFFCURVE",
"102 -12 CURVE SMOOTH",
"112 -12 OFFCURVE",
"127 -10 OFFCURVE",
"138 -4 CURVE",
"122 60 LINE",
"123 29 LINE",
"158 322 OFFCURVE",
"201 445 OFFCURVE",
"316 445 CURVE SMOOTH",
"366 445 OFFCURVE",
"407 414 OFFCURVE",
"407 361 CURVE SMOOTH",
"407 282 OFFCURVE",
"335 216 OFFCURVE",
"234 207 CURVE",
"304 49 LINE SMOOTH",
"316 23 OFFCURVE",
"331 -12 OFFCURVE",
"365 -12 CURVE SMOOTH",
"386 -12 OFFCURVE",
"411 2 OFFCURVE",
"439 30 CURVE",
"434 41 LINE",
"410 25 OFFCURVE",
"394 19 OFFCURVE",
"375 19 CURVE SMOOTH",
"351 19 OFFCURVE",
"344 37 OFFCURVE",
"321 85 CURVE SMOOTH",
"264 204 LINE",
"257 196 LINE",
"361 216 OFFCURVE",
"438 283 OFFCURVE",
"438 365 CURVE SMOOTH",
"438 422 OFFCURVE",
"401 462 OFFCURVE",
"331 462 CURVE SMOOTH",
"271 462 OFFCURVE",
"212 438 OFFCURVE",
"177 356 CURVE",
"173 356 LINE"
);
}
);
width = 477;
},
{
layerId = "7B53E429-1BF0-49C5-9F57-63EEBF39C6CC";
paths = (
{
closed = 1;
nodes = (
"295 380 OFFCURVE",
"295 382 OFFCURVE",
"295 385 CURVE SMOOTH",
"295 422 OFFCURVE",
"268 462 OFFCURVE",
"211 462 CURVE SMOOTH",
"163 462 OFFCURVE",
"90 434 OFFCURVE",
"33 392 CURVE",
"59 343 LINE",
"95 356 OFFCURVE",
"129 362 OFFCURVE",
"158 362 CURVE SMOOTH",
"180 362 OFFCURVE",
"198 359 OFFCURVE",
"211 352 CURVE",
"129 407 LINE",
"129 306 OFFCURVE",
"65 96 OFFCURVE",
"65 37 CURVE SMOOTH",
"65 9 OFFCURVE",
"79 -12 OFFCURVE",
"128 -12 CURVE SMOOTH",
"162 -12 OFFCURVE",
"224 -2 OFFCURVE",
"265 19 CURVE",
"238 142 LINE",
"241 29 LINE",
"252 101 OFFCURVE",
"274 374 OFFCURVE",
"369 374 CURVE SMOOTH",
"390 374 OFFCURVE",
"395 355 OFFCURVE",
"395 332 CURVE SMOOTH",
"395 274 OFFCURVE",
"333 237 OFFCURVE",
"285 226 CURVE",
"322 72 LINE SMOOTH",
"337 8 OFFCURVE",
"376 -12 OFFCURVE",
"435 -12 CURVE SMOOTH",
"477 -12 OFFCURVE",
"550 22 OFFCURVE",
"588 59 CURVE",
"563 110 LINE",
"547 99 OFFCURVE",
"533 93 OFFCURVE",
"514 93 CURVE SMOOTH",
"494 93 OFFCURVE",
"485 112 OFFCURVE",
"479 135 CURVE SMOOTH",
"455 223 LINE",
"395 173 LINE",
"500 208 OFFCURVE",
"571 279 OFFCURVE",
"571 351 CURVE SMOOTH",
"571 415 OFFCURVE",
"528 462 OFFCURVE",
"457 462 CURVE SMOOTH",
"387 462 OFFCURVE",
"346 443 OFFCURVE",
"298 377 CURVE",
"295 377 LINE"
);
}
);
width = 615;
},
{
layerId = "3EF2C2DE-A0EB-47A2-88E7-F2C629C295C3";
paths = (
{
closed = 1;
nodes = (
"204 386 OFFCURVE",
"205 395 OFFCURVE",
"205 413 CURVE SMOOTH",
"205 439 OFFCURVE",
"190 462 OFFCURVE",
"151 462 CURVE SMOOTH",
"122 462 OFFCURVE",
"82 447 OFFCURVE",
"47 418 CURVE",
"58 394 LINE",
"83 405 OFFCURVE",
"106 411 OFFCURVE",
"131 411 CURVE SMOOTH",
"144 411 OFFCURVE",
"159 409 OFFCURVE",
"171 403 CURVE",
"135 433 LINE",
"135 309 OFFCURVE",
"71 63 OFFCURVE",
"71 12 CURVE SMOOTH",
"71 -3 OFFCURVE",
"76 -12 OFFCURVE",
"99 -12 CURVE SMOOTH",
"117 -12 OFFCURVE",
"147 -7 OFFCURVE",
"168 4 CURVE",
"148 87 LINE",
"150 29 LINE",
"177 250 OFFCURVE",
"213 422 OFFCURVE",
"322 422 CURVE SMOOTH",
"362 422 OFFCURVE",
"391 394 OFFCURVE",
"391 351 CURVE SMOOTH",
"391 279 OFFCURVE",
"322 223 OFFCURVE",
"239 213 CURVE",
"298 57 LINE SMOOTH",
"311 19 OFFCURVE",
"334 -12 OFFCURVE",
"376 -12 CURVE SMOOTH",
"404 -12 OFFCURVE",
"444 9 OFFCURVE",
"476 40 CURVE",
"464 63 LINE",
"442 49 OFFCURVE",
"427 43 OFFCURVE",
"408 43 CURVE SMOOTH",
"385 43 OFFCURVE",
"378 61 OFFCURVE",
"360 101 CURVE SMOOTH",
"315 210 LINE",
"290 188 LINE",
"394 213 OFFCURVE",
"469 282 OFFCURVE",
"469 361 CURVE SMOOTH",
"469 420 OFFCURVE",
"431 462 OFFCURVE",
"361 462 CURVE SMOOTH",
"297 462 OFFCURVE",
"243 440 OFFCURVE",
"205 363 CURVE",
"201 363 LINE"
);
}
);
width = 508;
}
);
leftKerningGroup = n;
leftMetricsKey = n;
rightKerningGroup = k;
rightMetricsKey = k;
unicode = 0138;
},
{
color = 4;
glyphname = l;
layers = (
{
anchors = (
{
name = bottom;
position = "{99, 0}";
},
{
name = center;
position = "{148, 363}";
},
{
name = top;
position = "{207, 726}";
},
{
name = topright;
position = "{253, 550}";
}
);
background = {
paths = (
{
closed = 1;
nodes = (
"104 686 LINE",
"122 697 OFFCURVE",
"136 701 OFFCURVE",
"154 701 CURVE SMOOTH",
"173 701 OFFCURVE",
"185 696 OFFCURVE",
"193 692 CURVE",
"190 706 LINE",
"153 439 OFFCURVE",
"88 117 OFFCURVE",
"88 44 CURVE SMOOTH",
"88 15 OFFCURVE",
"92 -12 OFFCURVE",
"126 -12 CURVE SMOOTH",
"144 -12 OFFCURVE",
"162 -5 OFFCURVE",
"192 25 CURVE",
"187 36 LINE",
"170 25 OFFCURVE",
"159 19 OFFCURVE",
"140 19 CURVE SMOOTH",
"124 19 OFFCURVE",
"118 28 OFFCURVE",
"118 42 CURVE SMOOTH",
"118 190 OFFCURVE",
"207 610 OFFCURVE",
"207 673 CURVE SMOOTH",
"207 714 OFFCURVE",
"193 734 OFFCURVE",
"170 734 CURVE SMOOTH",
"148 734 OFFCURVE",
"123 725 OFFCURVE",
"99 697 CURVE"
);
}
);
};
layerId = "E1BF09ED-4302-4AD3-9939-8FDA35DE0FE8";
paths = (
{
closed = 1;
nodes = (
"142 -12 OFFCURVE",
"160 -9 OFFCURVE",
"194 25 CURVE",
"189 36 LINE",
"172 25 OFFCURVE",
"159 19 OFFCURVE",
"141 19 CURVE SMOOTH",
"124 19 OFFCURVE",
"118 27 OFFCURVE",
"118 47 CURVE SMOOTH",
"118 199 OFFCURVE",
"212 632 OFFCURVE",
"212 697 CURVE SMOOTH",
"212 719 OFFCURVE",
"202 733 OFFCURVE",
"168 733 CURVE SMOOTH",
"147 733 OFFCURVE",
"124 724 OFFCURVE",
"100 701 CURVE",
"104 690 LINE",
"122 700 OFFCURVE",
"141 706 OFFCURVE",
"163 706 CURVE SMOOTH",
"173 706 OFFCURVE",
"185 704 OFFCURVE",
"197 698 CURVE",
"191 713 LINE",
"157 476 OFFCURVE",
"89 117 OFFCURVE",
"89 44 CURVE SMOOTH",
"89 6 OFFCURVE",
"104 -12 OFFCURVE",
"124 -12 CURVE SMOOTH"
);
}
);
width = 244;
},
{
anchors = (
{
name = bottom;
position = "{146, 0}";
},
{
name = center;
position = "{193, 363}";
},
{
name = top;
position = "{254, 726}";
},
{
name = topright;
position = "{348, 550}";
}
);
layerId = "7B53E429-1BF0-49C5-9F57-63EEBF39C6CC";
paths = (
{
closed = 1;
nodes = (
"205 -12 OFFCURVE",
"279 20 OFFCURVE",
"316 58 CURVE",
"286 110 LINE",
"275 104 OFFCURVE",
"261 100 OFFCURVE",
"252 100 CURVE SMOOTH",
"238 100 OFFCURVE",
"232 111 OFFCURVE",
"232 136 CURVE SMOOTH",
"232 234 OFFCURVE",
"325 587 OFFCURVE",
"325 657 CURVE SMOOTH",
"325 694 OFFCURVE",
"298 734 OFFCURVE",
"241 734 CURVE SMOOTH",
"193 734 OFFCURVE",
"120 706 OFFCURVE",
"63 664 CURVE",
"89 615 LINE",
"125 628 OFFCURVE",
"159 634 OFFCURVE",
"188 634 CURVE SMOOTH",
"210 634 OFFCURVE",
"228 631 OFFCURVE",
"241 624 CURVE",
"159 679 LINE",
"124 436 OFFCURVE",
"60 164 OFFCURVE",
"60 82 CURVE SMOOTH",
"60 23 OFFCURVE",
"93 -12 OFFCURVE",
"153 -12 CURVE SMOOTH"
);
}
);
width = 345;
},
{
anchors = (
{
name = bottom;
position = "{105, 0}";
},
{
name = center;
position = "{149, 363}";
},
{
name = top;
position = "{213, 726}";
},
{
name = topright;
position = "{256, 550}";
}
);
layerId = "3EF2C2DE-A0EB-47A2-88E7-F2C629C295C3";
paths = (
{
closed = 1;
nodes = (
"146 -12 OFFCURVE",
"188 8 OFFCURVE",
"222 43 CURVE",
"209 66 LINE",
"192 55 OFFCURVE",
"176 49 OFFCURVE",
"163 49 CURVE SMOOTH",
"146 49 OFFCURVE",
"140 57 OFFCURVE",
"140 74 CURVE SMOOTH",
"140 185 OFFCURVE",
"231 612 OFFCURVE",
"231 675 CURVE SMOOTH",
"231 714 OFFCURVE",
"214 734 OFFCURVE",
"179 734 CURVE SMOOTH",
"149 734 OFFCURVE",
"107 713 OFFCURVE",
"74 680 CURVE",
"86 656 LINE",
"107 666 OFFCURVE",
"129 670 OFFCURVE",
"148 670 CURVE SMOOTH",
"162 670 OFFCURVE",
"173 668 OFFCURVE",
"181 663 CURVE",
"169 706 LINE",
"132 443 OFFCURVE",
"64 116 OFFCURVE",
"64 54 CURVE SMOOTH",
"64 11 OFFCURVE",
"83 -12 OFFCURVE",
"116 -12 CURVE SMOOTH"
);
}
);
width = 259;
}
);
leftKerningGroup = l;
rightKerningGroup = l;
unicode = 006C;
},
